Primae-Asc Cursive Light.ufo
<glyph name="exclam" format="2">
	<unicode hex="0021"/>
	<advance width="750"/>
	<outline>
		<contour>
			<point x="362" y="396" type="curve" smooth="yes"/>
			<point x="378" y="396"/>
			<point x="388" y="402"/>
			<point x="398" y="439" type="curve" smooth="yes"/>
			<point x="469" y="691"/>
			<point x="580" y="1059"/>
			<point x="654" y="1301" type="curve" smooth="yes"/>
			<point x="663" y="1332"/>
			<point x="670" y="1358"/>
			<point x="670" y="1367" type="curve" smooth="yes"/>
			<point x="670" y="1385"/>
			<point x="651" y="1399"/>
			<point x="630" y="1399" type="curve" smooth="yes"/>
			<point x="612" y="1399"/>
			<point x="601" y="1386"/>
			<point x="596" y="1370" type="curve" smooth="yes"/>
			<point x="504" y="1066"/>
			<point x="404" y="714"/>
			<point x="342" y="493" type="curve" smooth="yes"/>
			<point x="331" y="456"/>
			<point x="327" y="441"/>
			<point x="327" y="426" type="curve" smooth="yes"/>
			<point x="327" y="407"/>
			<point x="345" y="396"/>
		</contour>
		<contour>
			<point x="250" y="-12" type="curve" smooth="yes"/>
			<point x="298" y="-12"/>
			<point x="345" y="33"/>
			<point x="345" y="86" type="curve" smooth="yes"/>
			<point x="345" y="123"/>
			<point x="317" y="151"/>
			<point x="279" y="151" type="curve" smooth="yes"/>
			<point x="232" y="151"/>
			<point x="190" y="109"/>
			<point x="190" y="56" type="curve" smooth="yes"/>
			<point x="190" y="13"/>
			<point x="218" y="-12"/>
		</contour>
	</outline>
</glyph>
<glyph name="dollar" format="2">
	<unicode hex="0024"/>
	<advance width="1200"/>
	<outline>
		<contour>
			<point x="110" y="85" type="curve" smooth="yes"/>
			<point x="110" y="75"/>
			<point x="118" y="63"/>
			<point x="136" y="54" type="curve" smooth="yes"/>
			<point x="208" y="18"/>
			<point x="333" y="-7"/>
			<point x="459" y="-7" type="curve" smooth="yes"/>
			<point x="707" y="-7"/>
			<point x="934" y="155"/>
			<point x="934" y="433" type="curve" smooth="yes"/>
			<point x="934" y="595"/>
			<point x="870" y="721"/>
			<point x="658" y="858" type="curve"/>
			<point x="615" y="875" type="line"/>
			<point x="446" y="982"/>
			<point x="388" y="1100"/>
			<point x="388" y="1218" type="curve" smooth="yes"/>
			<point x="388" y="1424"/>
			<point x="556" y="1550"/>
			<point x="779" y="1550" type="curve" smooth="yes"/>
			<point x="872" y="1550"/>
			<point x="958" y="1524"/>
			<point x="1012" y="1499" type="curve" smooth="yes"/>
			<point x="1038" y="1487"/>
			<point x="1049" y="1486"/>
			<point x="1057" y="1486" type="curve" smooth="yes"/>
			<point x="1073" y="1486"/>
			<point x="1085" y="1501"/>
			<point x="1085" y="1516" type="curve" smooth="yes"/>
			<point x="1085" y="1533"/>
			<point x="1069" y="1551"/>
			<point x="1005" y="1581" type="curve" smooth="yes"/>
			<point x="945" y="1609"/>
			<point x="867" y="1625"/>
			<point x="790" y="1625" type="curve" smooth="yes"/>
			<point x="503" y="1625"/>
			<point x="308" y="1459"/>
			<point x="308" y="1211" type="curve" smooth="yes"/>
			<point x="308" y="1065"/>
			<point x="367" y="940"/>
			<point x="589" y="788" type="curve"/>
			<point x="632" y="773" type="line"/>
			<point x="803" y="671"/>
			<point x="857" y="564"/>
			<point x="857" y="429" type="curve" smooth="yes"/>
			<point x="857" y="195"/>
			<point x="667" y="68"/>
			<point x="469" y="68" type="curve" smooth="yes"/>
			<point x="351" y="68"/>
			<point x="283" y="82"/>
			<point x="193" y="113" type="curve" smooth="yes"/>
			<point x="178" y="118"/>
			<point x="162" y="123"/>
			<point x="143" y="123" type="curve" smooth="yes"/>
			<point x="121" y="123"/>
			<point x="110" y="102"/>
		</contour>
		<contour>
			<point x="358" y="-206" type="curve" smooth="yes"/>
			<point x="378" y="-206"/>
			<point x="390" y="-192"/>
			<point x="394" y="-179" type="curve" smooth="yes"/>
			<point x="909" y="1750" type="line" smooth="yes"/>
			<point x="910" y="1755"/>
			<point x="911" y="1762"/>
			<point x="911" y="1766" type="curve" smooth="yes"/>
			<point x="911" y="1786"/>
			<point x="893" y="1800"/>
			<point x="873" y="1800" type="curve" smooth="yes"/>
			<point x="856" y="1800"/>
			<point x="842" y="1788"/>
			<point x="838" y="1773" type="curve" smooth="yes"/>
			<point x="322" y="-156" type="line" smooth="yes"/>
			<point x="321" y="-161"/>
			<point x="320" y="-167"/>
			<point x="320" y="-171" type="curve" smooth="yes"/>
			<point x="320" y="-191"/>
			<point x="338" y="-206"/>
		</contour>
	</outline>
</glyph>
<glyph name="quotesingle" format="2">
	<unicode hex="0027"/>
	<advance width="530"/>
	<outline>
		<contour>
			<point x="310" y="1112" type="curve" smooth="yes"/>
			<point x="329" y="1112"/>
			<point x="342" y="1133"/>
			<point x="357" y="1182" type="curve" smooth="yes"/>
			<point x="384" y="1273"/>
			<point x="425" y="1401"/>
			<point x="452" y="1483" type="curve" smooth="yes"/>
			<point x="469" y="1535"/>
			<point x="475" y="1555"/>
			<point x="475" y="1575" type="curve" smooth="yes"/>
			<point x="475" y="1590"/>
			<point x="458" y="1600"/>
			<point x="437" y="1600" type="curve" smooth="yes"/>
			<point x="414" y="1600"/>
			<point x="394" y="1575"/>
			<point x="337" y="1365" type="curve" smooth="yes"/>
			<point x="307" y="1255"/>
			<point x="290" y="1164"/>
			<point x="290" y="1140" type="curve" smooth="yes"/>
			<point x="290" y="1124"/>
			<point x="295" y="1112"/>
		</contour>
	</outline>
</glyph>
<glyph name="parenleft" format="2">
	<unicode hex="0028"/>
	<advance width="734"/>
	<outline>
		<contour>
			<point x="377" y="-305" type="curve" smooth="yes"/>
			<point x="392" y="-305"/>
			<point x="404" y="-293"/>
			<point x="404" y="-281" type="curve" smooth="yes"/>
			<point x="404" y="-272"/>
			<point x="401" y="-266"/>
			<point x="391" y="-251" type="curve" smooth="yes"/>
			<point x="381" y="-236"/>
			<point x="372" y="-221"/>
			<point x="364" y="-205" type="curve" smooth="yes"/>
			<point x="263" y="-13"/>
			<point x="225" y="150"/>
			<point x="225" y="360" type="curve" smooth="yes"/>
			<point x="225" y="791"/>
			<point x="434" y="1226"/>
			<point x="698" y="1490" type="curve" smooth="yes"/>
			<point x="769" y="1561"/>
			<point x="784" y="1578"/>
			<point x="784" y="1592" type="curve" smooth="yes"/>
			<point x="784" y="1611"/>
			<point x="763" y="1625"/>
			<point x="745" y="1625" type="curve" smooth="yes"/>
			<point x="717" y="1625"/>
			<point x="696" y="1614"/>
			<point x="611" y="1525" type="curve" smooth="yes"/>
			<point x="347" y="1248"/>
			<point x="150" y="830"/>
			<point x="150" y="386" type="curve" smooth="yes"/>
			<point x="150" y="151"/>
			<point x="217" y="-71"/>
			<point x="308" y="-228" type="curve" smooth="yes"/>
			<point x="342" y="-287"/>
			<point x="362" y="-305"/>
		</contour>
	</outline>
</glyph>
<glyph name="parenright" format="2">
	<unicode hex="0029"/>
	<advance width="714"/>
	<outline>
		<contour>
			<point x="334" y="1631" type="curve" smooth="yes"/>
			<point x="310" y="1631"/>
			<point x="283" y="1614"/>
			<point x="283" y="1589" type="curve" smooth="yes"/>
			<point x="283" y="1580"/>
			<point x="288" y="1570"/>
			<point x="299" y="1552" type="curve" smooth="yes"/>
			<point x="308" y="1537"/>
			<point x="317" y="1522"/>
			<point x="342" y="1474" type="curve" smooth="yes"/>
			<point x="439" y="1290"/>
			<point x="489" y="1103"/>
			<point x="489" y="879" type="curve" smooth="yes"/>
			<point x="489" y="509"/>
			<point x="303" y="89"/>
			<point x="23" y="-187" type="curve" smooth="yes"/>
			<point x="-37" y="-247"/>
			<point x="-50" y="-261"/>
			<point x="-50" y="-273" type="curve" smooth="yes"/>
			<point x="-50" y="-292"/>
			<point x="-37" y="-299"/>
			<point x="-22" y="-299" type="curve" smooth="yes"/>
			<point x="0" y="-299"/>
			<point x="14" y="-287"/>
			<point x="88" y="-213" type="curve" smooth="yes"/>
			<point x="371" y="69"/>
			<point x="564" y="496"/>
			<point x="564" y="886" type="curve" smooth="yes"/>
			<point x="564" y="1166"/>
			<point x="493" y="1399"/>
			<point x="402" y="1560" type="curve" smooth="yes"/>
			<point x="371" y="1615"/>
			<point x="355" y="1631"/>
		</contour>
	</outline>
</glyph>
<glyph name="period" format="2">
	<unicode hex="002E"/>
	<advance width="563"/>
	<outline>
		<contour>
			<point x="263" y="-12" type="curve" smooth="yes"/>
			<point x="314" y="-12"/>
			<point x="363" y="36"/>
			<point x="363" y="92" type="curve" smooth="yes"/>
			<point x="363" y="131"/>
			<point x="334" y="160"/>
			<point x="294" y="160" type="curve" smooth="yes"/>
			<point x="244" y="160"/>
			<point x="200" y="116"/>
			<point x="200" y="60" type="curve" smooth="yes"/>
			<point x="200" y="15"/>
			<point x="229" y="-12"/>
		</contour>
	</outline>
</glyph>
<glyph name="zero" format="2">
	<unicode hex="0030"/>
	<advance width="1187"/>
	<outline>
		<contour>
			<point x="432" y="-14" type="curve" smooth="yes"/>
			<point x="757" y="-14"/>
			<point x="1077" y="548"/>
			<point x="1077" y="1140" type="curve" smooth="yes"/>
			<point x="1077" y="1468"/>
			<point x="957" y="1616"/>
			<point x="785" y="1616" type="curve" smooth="yes"/>
			<point x="460" y="1616"/>
			<point x="140" y="1055"/>
			<point x="140" y="462" type="curve" smooth="yes"/>
			<point x="140" y="134"/>
			<point x="260" y="-14"/>
		</contour>
		<contour>
			<point x="441" y="64" type="curve" smooth="yes"/>
			<point x="318" y="64"/>
			<point x="222" y="179"/>
			<point x="222" y="459" type="curve" smooth="yes"/>
			<point x="222" y="1005"/>
			<point x="519" y="1538"/>
			<point x="776" y="1538" type="curve" smooth="yes"/>
			<point x="899" y="1538"/>
			<point x="995" y="1423"/>
			<point x="995" y="1143" type="curve" smooth="yes"/>
			<point x="995" y="597"/>
			<point x="698" y="64"/>
		</contour>
	</outline>
</glyph>
<glyph name="two" format="2">
	<unicode hex="0032"/>
	<advance width="1210"/>
	<outline>
		<contour>
			<point x="686" y="-7" type="curve" smooth="yes"/>
			<point x="810" y="-7"/>
			<point x="895" y="53"/>
			<point x="952" y="112" type="curve" smooth="yes"/>
			<point x="975" y="136"/>
			<point x="982" y="150"/>
			<point x="982" y="161" type="curve" smooth="yes"/>
			<point x="982" y="178"/>
			<point x="967" y="188"/>
			<point x="955" y="188" type="curve" smooth="yes"/>
			<point x="942" y="188"/>
			<point x="928" y="177"/>
			<point x="904" y="155" type="curve" smooth="yes"/>
			<point x="845" y="101"/>
			<point x="771" y="68"/>
			<point x="703" y="68" type="curve" smooth="yes"/>
			<point x="603" y="68"/>
			<point x="525" y="108"/>
			<point x="449" y="148" type="curve" smooth="yes"/>
			<point x="369" y="190"/>
			<point x="295" y="228"/>
			<point x="196" y="228" type="curve" smooth="yes"/>
			<point x="78" y="228"/>
			<point x="10" y="156"/>
			<point x="10" y="81" type="curve" smooth="yes"/>
			<point x="10" y="30"/>
			<point x="48" y="-7"/>
			<point x="113" y="-7" type="curve" smooth="yes"/>
			<point x="322" y="-7"/>
			<point x="1070" y="783"/>
			<point x="1070" y="1270" type="curve" smooth="yes"/>
			<point x="1070" y="1494"/>
			<point x="935" y="1623"/>
			<point x="741" y="1623" type="curve" smooth="yes"/>
			<point x="544" y="1623"/>
			<point x="404" y="1499"/>
			<point x="313" y="1381" type="curve" smooth="yes"/>
			<point x="299" y="1363"/>
			<point x="289" y="1347"/>
			<point x="289" y="1334" type="curve" smooth="yes"/>
			<point x="289" y="1318"/>
			<point x="305" y="1298"/>
			<point x="325" y="1298" type="curve" smooth="yes"/>
			<point x="340" y="1298"/>
			<point x="351" y="1311"/>
			<point x="369" y="1333" type="curve" smooth="yes"/>
			<point x="452" y="1434"/>
			<point x="588" y="1543"/>
			<point x="727" y="1543" type="curve" smooth="yes"/>
			<point x="877" y="1543"/>
			<point x="988" y="1452"/>
			<point x="988" y="1253" type="curve" smooth="yes"/>
			<point x="988" y="826"/>
			<point x="278" y="63"/>
			<point x="120" y="63" type="curve" smooth="yes"/>
			<point x="95" y="63"/>
			<point x="80" y="74"/>
			<point x="80" y="94" type="curve" smooth="yes"/>
			<point x="80" y="130"/>
			<point x="125" y="163"/>
			<point x="196" y="163" type="curve" smooth="yes"/>
			<point x="275" y="163"/>
			<point x="344" y="126"/>
			<point x="419" y="84" type="curve" smooth="yes"/>
			<point x="501" y="38"/>
			<point x="583" y="-7"/>
		</contour>
	</outline>
</glyph>
<glyph name="four" format="2">
	<unicode hex="0034"/>
	<advance width="1190"/>
	<outline>
		<contour>
			<point x="621" y="31" type="curve" smooth="yes"/>
			<point x="687" y="312"/>
			<point x="783" y="664"/>
			<point x="849" y="870" type="curve" smooth="yes"/>
			<point x="866" y="922"/>
			<point x="867" y="935"/>
			<point x="867" y="945" type="curve" smooth="yes"/>
			<point x="867" y="960"/>
			<point x="848" y="973"/>
			<point x="828" y="973" type="curve" smooth="yes"/>
			<point x="809" y="973"/>
			<point x="798" y="960"/>
			<point x="783" y="914" type="curve" smooth="yes"/>
			<point x="704" y="667"/>
			<point x="616" y="336"/>
			<point x="555" y="78" type="curve" smooth="yes"/>
			<point x="545" y="34"/>
			<point x="544" y="26"/>
			<point x="544" y="16" type="curve" smooth="yes"/>
			<point x="544" y="0"/>
			<point x="561" y="-12"/>
			<point x="582" y="-12" type="curve" smooth="yes"/>
			<point x="599" y="-12"/>
			<point x="614" y="0"/>
		</contour>
		<contour>
			<point x="183" y="507" type="curve" smooth="yes"/>
			<point x="239" y="507"/>
			<point x="746" y="514"/>
			<point x="1028" y="517" type="curve" smooth="yes"/>
			<point x="1066" y="518"/>
			<point x="1080" y="535"/>
			<point x="1080" y="556" type="curve" smooth="yes"/>
			<point x="1080" y="579"/>
			<point x="1069" y="594"/>
			<point x="1026" y="594" type="curve" smooth="yes"/>
			<point x="904" y="594"/>
			<point x="380" y="581"/>
			<point x="154" y="578" type="curve"/>
			<point x="178" y="557" type="line"/>
			<point x="370" y="876"/>
			<point x="559" y="1217"/>
			<point x="720" y="1531" type="curve" smooth="yes"/>
			<point x="738" y="1567"/>
			<point x="740" y="1575"/>
			<point x="740" y="1584" type="curve" smooth="yes"/>
			<point x="740" y="1602"/>
			<point x="722" y="1618"/>
			<point x="700" y="1618" type="curve" smooth="yes"/>
			<point x="686" y="1618"/>
			<point x="674" y="1608"/>
			<point x="657" y="1575" type="curve" smooth="yes"/>
			<point x="485" y="1241"/>
			<point x="301" y="903"/>
			<point x="146" y="645" type="curve" smooth="yes"/>
			<point x="116" y="596"/>
			<point x="110" y="577"/>
			<point x="110" y="559" type="curve" smooth="yes"/>
			<point x="110" y="524"/>
			<point x="137" y="507"/>
		</contour>
	</outline>
</glyph>
<glyph name="five" format="2">
	<unicode hex="0035"/>
	<advance width="1144"/>
	<outline>
		<contour>
			<point x="411" y="-12" type="curve" smooth="yes"/>
			<point x="712" y="-12"/>
			<point x="934" y="252"/>
			<point x="934" y="562" type="curve" smooth="yes"/>
			<point x="934" y="828"/>
			<point x="768" y="966"/>
			<point x="540" y="966" type="curve" smooth="yes"/>
			<point x="459" y="966"/>
			<point x="360" y="948"/>
			<point x="318" y="934" type="curve"/>
			<point x="326" y="904" type="line"/>
			<point x="492" y="1530" type="line"/>
			<point x="560" y="1527"/>
			<point x="621" y="1525"/>
			<point x="699" y="1525" type="curve" smooth="yes"/>
			<point x="823" y="1525"/>
			<point x="983" y="1529"/>
			<point x="1036" y="1534" type="curve" smooth="yes"/>
			<point x="1092" y="1539"/>
			<point x="1104" y="1554"/>
			<point x="1104" y="1576" type="curve" smooth="yes"/>
			<point x="1104" y="1600"/>
			<point x="1089" y="1608"/>
			<point x="1058" y="1608" type="curve" smooth="yes"/>
			<point x="1049" y="1608"/>
			<point x="1030" y="1607"/>
			<point x="995" y="1605" type="curve" smooth="yes"/>
			<point x="940" y="1602"/>
			<point x="784" y="1599"/>
			<point x="697" y="1599" type="curve" smooth="yes"/>
			<point x="641" y="1599"/>
			<point x="589" y="1600"/>
			<point x="558" y="1601" type="curve" smooth="yes"/>
			<point x="532" y="1602"/>
			<point x="501" y="1603"/>
			<point x="486" y="1603" type="curve" smooth="yes"/>
			<point x="442" y="1603"/>
			<point x="430" y="1592"/>
			<point x="420" y="1553" type="curve" smooth="yes"/>
			<point x="263" y="955" type="line" smooth="yes"/>
			<point x="256" y="928"/>
			<point x="254" y="919"/>
			<point x="254" y="902" type="curve" smooth="yes"/>
			<point x="254" y="879"/>
			<point x="273" y="863"/>
			<point x="299" y="863" type="curve" smooth="yes"/>
			<point x="308" y="863"/>
			<point x="320" y="865"/>
			<point x="336" y="869" type="curve" smooth="yes"/>
			<point x="368" y="877"/>
			<point x="444" y="892"/>
			<point x="524" y="892" type="curve" smooth="yes"/>
			<point x="729" y="892"/>
			<point x="854" y="773"/>
			<point x="854" y="552" type="curve" smooth="yes"/>
			<point x="854" y="284"/>
			<point x="656" y="66"/>
			<point x="401" y="66" type="curve" smooth="yes"/>
			<point x="269" y="66"/>
			<point x="156" y="107"/>
			<point x="76" y="184" type="curve" smooth="yes"/>
			<point x="59" y="200"/>
			<point x="51" y="203"/>
			<point x="45" y="203" type="curve" smooth="yes"/>
			<point x="31" y="203"/>
			<point x="10" y="185"/>
			<point x="10" y="168" type="curve" smooth="yes"/>
			<point x="10" y="156"/>
			<point x="20" y="137"/>
			<point x="40" y="117" type="curve" smooth="yes"/>
			<point x="95" y="62"/>
			<point x="212" y="-12"/>
		</contour>
	</outline>
</glyph>
<glyph name="nine" format="2">
	<unicode hex="0039"/>
	<advance width="1090"/>
	<outline>
		<contour>
			<point x="942" y="924" type="curve"/>
			<point x="902" y="961" type="line"/>
			<point x="809" y="852"/>
			<point x="671" y="770"/>
			<point x="537" y="770" type="curve" smooth="yes"/>
			<point x="363" y="770"/>
			<point x="260" y="883"/>
			<point x="260" y="1088" type="curve" smooth="yes"/>
			<point x="260" y="1347"/>
			<point x="443" y="1547"/>
			<point x="668" y="1547" type="curve" smooth="yes"/>
			<point x="826" y="1547"/>
			<point x="930" y="1439"/>
			<point x="930" y="1207" type="curve" smooth="yes"/>
			<point x="930" y="940"/>
			<point x="793" y="634"/>
			<point x="331" y="113" type="curve" smooth="yes"/>
			<point x="284" y="60"/>
			<point x="262" y="36"/>
			<point x="262" y="15" type="curve" smooth="yes"/>
			<point x="262" y="-2"/>
			<point x="276" y="-15"/>
			<point x="296" y="-15" type="curve" smooth="yes"/>
			<point x="316" y="-15"/>
			<point x="328" y="-3"/>
			<point x="359" y="30" type="curve" smooth="yes"/>
			<point x="855" y="555"/>
			<point x="1010" y="935"/>
			<point x="1010" y="1226" type="curve" smooth="yes"/>
			<point x="1010" y="1481"/>
			<point x="881" y="1625"/>
			<point x="679" y="1625" type="curve" smooth="yes"/>
			<point x="405" y="1625"/>
			<point x="180" y="1383"/>
			<point x="180" y="1078" type="curve" smooth="yes"/>
			<point x="180" y="837"/>
			<point x="322" y="695"/>
			<point x="525" y="695" type="curve" smooth="yes"/>
			<point x="687" y="695"/>
			<point x="834" y="794"/>
		</contour>
	</outline>
</glyph>
<glyph name="less" format="2">
	<unicode hex="003C"/>
	<advance width="1200"/>
	<outline>
		<contour>
			<point x="827" y="318" type="curve" smooth="yes"/>
			<point x="848" y="318"/>
			<point x="860" y="336"/>
			<point x="860" y="352" type="curve" smooth="yes"/>
			<point x="860" y="365"/>
			<point x="850" y="375"/>
			<point x="819" y="398" type="curve" smooth="yes"/>
			<point x="328" y="759" type="line" smooth="yes"/>
			<point x="300" y="779"/>
			<point x="293" y="783"/>
			<point x="293" y="791" type="curve" smooth="yes"/>
			<point x="293" y="798"/>
			<point x="304" y="805"/>
			<point x="341" y="823" type="curve" smooth="yes"/>
			<point x="1044" y="1166" type="line" smooth="yes"/>
			<point x="1076" y="1182"/>
			<point x="1086" y="1190"/>
			<point x="1086" y="1205" type="curve" smooth="yes"/>
			<point x="1086" y="1226"/>
			<point x="1069" y="1245"/>
			<point x="1052" y="1245" type="curve" smooth="yes"/>
			<point x="1038" y="1245"/>
			<point x="1027" y="1241"/>
			<point x="999" y="1227" type="curve" smooth="yes"/>
			<point x="317" y="878" type="line" smooth="yes"/>
			<point x="241" y="839"/>
			<point x="225" y="819"/>
			<point x="225" y="792" type="curve" smooth="yes"/>
			<point x="225" y="771"/>
			<point x="233" y="755"/>
			<point x="286" y="715" type="curve" smooth="yes"/>
			<point x="769" y="350" type="line" smooth="yes"/>
			<point x="803" y="324"/>
			<point x="813" y="318"/>
		</contour>
	</outline>
</glyph>
<glyph name="equal" format="2">
	<unicode hex="003D"/>
	<advance width="1200"/>
	<outline>
		<contour>
			<point x="306" y="956" type="curve" smooth="yes"/>
			<point x="530" y="956"/>
			<point x="823" y="956"/>
			<point x="1005" y="965" type="curve" smooth="yes"/>
			<point x="1066" y="968"/>
			<point x="1082" y="985"/>
			<point x="1082" y="1007" type="curve" smooth="yes"/>
			<point x="1082" y="1024"/>
			<point x="1070" y="1034"/>
			<point x="1034" y="1034" type="curve" smooth="yes"/>
			<point x="854" y="1032"/>
			<point x="534" y="1031"/>
			<point x="306" y="1031" type="curve" smooth="yes"/>
			<point x="266" y="1031"/>
			<point x="255" y="1014"/>
			<point x="255" y="993" type="curve" smooth="yes"/>
			<point x="255" y="972"/>
			<point x="266" y="956"/>
		</contour>
		<contour>
			<point x="202" y="576" type="curve" smooth="yes"/>
			<point x="426" y="576"/>
			<point x="719" y="576"/>
			<point x="901" y="585" type="curve" smooth="yes"/>
			<point x="962" y="588"/>
			<point x="978" y="605"/>
			<point x="978" y="627" type="curve" smooth="yes"/>
			<point x="978" y="644"/>
			<point x="966" y="654"/>
			<point x="930" y="654" type="curve" smooth="yes"/>
			<point x="750" y="652"/>
			<point x="430" y="651"/>
			<point x="202" y="651" type="curve" smooth="yes"/>
			<point x="162" y="651"/>
			<point x="151" y="634"/>
			<point x="151" y="613" type="curve" smooth="yes"/>
			<point x="151" y="592"/>
			<point x="162" y="576"/>
		</contour>
	</outline>
</glyph>
<glyph name="question" format="2">
	<unicode hex="003F"/>
	<advance width="936"/>
	<outline>
		<contour>
			<point x="459" y="344" type="curve" smooth="yes"/>
			<point x="538" y="344"/>
			<point x="622" y="375"/>
			<point x="681" y="413" type="curve" smooth="yes"/>
			<point x="707" y="430"/>
			<point x="714" y="443"/>
			<point x="714" y="452" type="curve" smooth="yes"/>
			<point x="714" y="466"/>
			<point x="701" y="483"/>
			<point x="687" y="483" type="curve" smooth="yes"/>
			<point x="679" y="483"/>
			<point x="671" y="479"/>
			<point x="654" y="470" type="curve" smooth="yes"/>
			<point x="602" y="442"/>
			<point x="534" y="419"/>
			<point x="467" y="419" type="curve" smooth="yes"/>
			<point x="387" y="419"/>
			<point x="338" y="464"/>
			<point x="338" y="532" type="curve" smooth="yes"/>
			<point x="338" y="613"/>
			<point x="383" y="682"/>
			<point x="594" y="814" type="curve" smooth="yes"/>
			<point x="846" y="971"/>
			<point x="917" y="1073"/>
			<point x="917" y="1196" type="curve" smooth="yes"/>
			<point x="917" y="1331"/>
			<point x="799" y="1425"/>
			<point x="651" y="1425" type="curve" smooth="yes"/>
			<point x="527" y="1425"/>
			<point x="416" y="1381"/>
			<point x="332" y="1323" type="curve" smooth="yes"/>
			<point x="315" y="1311"/>
			<point x="294" y="1295"/>
			<point x="294" y="1277" type="curve" smooth="yes"/>
			<point x="294" y="1257"/>
			<point x="314" y="1245"/>
			<point x="325" y="1245" type="curve" smooth="yes"/>
			<point x="338" y="1245"/>
			<point x="351" y="1253"/>
			<point x="375" y="1268" type="curve" smooth="yes"/>
			<point x="454" y="1317"/>
			<point x="549" y="1350"/>
			<point x="630" y="1350" type="curve" smooth="yes"/>
			<point x="746" y="1350"/>
			<point x="837" y="1290"/>
			<point x="837" y="1188" type="curve" smooth="yes"/>
			<point x="837" y="1099"/>
			<point x="786" y="1025"/>
			<point x="559" y="882" type="curve" smooth="yes"/>
			<point x="317" y="729"/>
			<point x="258" y="635"/>
			<point x="258" y="530" type="curve" smooth="yes"/>
			<point x="258" y="429"/>
			<point x="341" y="344"/>
		</contour>
		<contour>
			<point x="349" y="-12" type="curve" smooth="yes"/>
			<point x="400" y="-12"/>
			<point x="449" y="36"/>
			<point x="449" y="92" type="curve" smooth="yes"/>
			<point x="449" y="131"/>
			<point x="420" y="160"/>
			<point x="380" y="160" type="curve" smooth="yes"/>
			<point x="330" y="160"/>
			<point x="286" y="116"/>
			<point x="286" y="60" type="curve" smooth="yes"/>
			<point x="286" y="15"/>
			<point x="315" y="-12"/>
		</contour>
	</outline>
</glyph>
<glyph name="D" format="2">
	<unicode hex="0044"/>
	<advance width="1359"/>
	<outline>
		<contour>
			<point x="0" y="86" type="curve" smooth="yes"/>
			<point x="0" y="40"/>
			<point x="183" y="-12"/>
			<point x="338" y="-12" type="curve" smooth="yes"/>
			<point x="758" y="-12"/>
			<point x="1209" y="379"/>
			<point x="1209" y="950" type="curve" smooth="yes"/>
			<point x="1209" y="1422"/>
			<point x="949" y="1610"/>
			<point x="694" y="1610" type="curve" smooth="yes"/>
			<point x="562" y="1610"/>
			<point x="440" y="1588"/>
			<point x="440" y="1551" type="curve" smooth="yes"/>
			<point x="440" y="1538"/>
			<point x="451" y="1522"/>
			<point x="462" y="1522" type="curve" smooth="yes"/>
			<point x="481" y="1522"/>
			<point x="543" y="1527"/>
			<point x="578" y="1530" type="curve" smooth="yes"/>
			<point x="607" y="1532"/>
			<point x="635" y="1535"/>
			<point x="677" y="1535" type="curve" smooth="yes"/>
			<point x="900" y="1535"/>
			<point x="1129" y="1378"/>
			<point x="1129" y="942" type="curve" smooth="yes"/>
			<point x="1129" y="440"/>
			<point x="735" y="63"/>
			<point x="350" y="63" type="curve" smooth="yes"/>
			<point x="238" y="63"/>
			<point x="147" y="85"/>
			<point x="86" y="106" type="curve" smooth="yes"/>
			<point x="53" y="118"/>
			<point x="42" y="121"/>
			<point x="36" y="121" type="curve" smooth="yes"/>
			<point x="15" y="121"/>
			<point x="0" y="105"/>
		</contour>
		<contour>
			<point x="226" y="47" type="line"/>
			<point x="635" y="1549" type="line"/>
			<point x="557" y="1548" type="line"/>
			<point x="146" y="50" type="line"/>
		</contour>
	</outline>
	<anchor name="bottom" x="320" y="0"/>
	<anchor name="center" x="440" y="830"/>
	<anchor name="top" x="851" y="1600"/>
</glyph>
<glyph name="L" format="2">
	<unicode hex="004C"/>
	<advance width="855"/>
	<outline>
		<contour>
			<point x="0" y="88" type="curve" smooth="yes"/>
			<point x="0" y="23"/>
			<point x="50" y="-28"/>
			<point x="130" y="-28" type="curve" smooth="yes"/>
			<point x="232" y="-28"/>
			<point x="285" y="10"/>
			<point x="357" y="164" type="curve" smooth="yes"/>
			<point x="420" y="298"/>
			<point x="475" y="479"/>
			<point x="542" y="798" type="curve" smooth="yes"/>
			<point x="665" y="1383"/>
			<point x="799" y="1550"/>
			<point x="981" y="1550" type="curve" smooth="yes"/>
			<point x="1050" y="1550"/>
			<point x="1113" y="1529"/>
			<point x="1192" y="1480" type="curve" smooth="yes"/>
			<point x="1202" y="1474"/>
			<point x="1211" y="1470"/>
			<point x="1218" y="1470" type="curve" smooth="yes"/>
			<point x="1232" y="1470"/>
			<point x="1248" y="1484"/>
			<point x="1248" y="1502" type="curve" smooth="yes"/>
			<point x="1248" y="1515"/>
			<point x="1235" y="1530"/>
			<point x="1214" y="1547" type="curve" smooth="yes"/>
			<point x="1178" y="1576"/>
			<point x="1093" y="1625"/>
			<point x="984" y="1625" type="curve" smooth="yes"/>
			<point x="751" y="1625"/>
			<point x="609" y="1465"/>
			<point x="469" y="820" type="curve" smooth="yes"/>
			<point x="395" y="480"/>
			<point x="350" y="309"/>
			<point x="300" y="196" type="curve" smooth="yes"/>
			<point x="256" y="96"/>
			<point x="215" y="47"/>
			<point x="141" y="47" type="curve" smooth="yes"/>
			<point x="99" y="47"/>
			<point x="77" y="64"/>
			<point x="77" y="92" type="curve" smooth="yes"/>
			<point x="77" y="124"/>
			<point x="109" y="151"/>
			<point x="169" y="151" type="curve" smooth="yes"/>
			<point x="239" y="151"/>
			<point x="292" y="138"/>
			<point x="415" y="85" type="curve" smooth="yes"/>
			<point x="529" y="36"/>
			<point x="659" y="-12"/>
			<point x="798" y="-12" type="curve" smooth="yes"/>
			<point x="835" y="-12"/>
			<point x="851" y="0"/>
			<point x="851" y="30" type="curve" smooth="yes"/>
			<point x="851" y="50"/>
			<point x="826" y="63"/>
			<point x="799" y="63" type="curve" smooth="yes"/>
			<point x="679" y="63"/>
			<point x="557" y="108"/>
			<point x="450" y="153" type="curve" smooth="yes"/>
			<point x="334" y="202"/>
			<point x="257" y="223"/>
			<point x="179" y="223" type="curve" smooth="yes"/>
			<point x="72" y="223"/>
			<point x="0" y="160"/>
		</contour>
	</outline>
	<anchor name="bottom" x="453" y="0"/>
	<anchor name="center" x="507" y="839"/>
	<anchor name="top" x="984" y="1625"/>
	<anchor name="topright" x="1250" y="1600"/>
</glyph>
<glyph name="N" format="2">
	<unicode hex="004E"/>
	<advance width="1459"/>
	<outline>
		<contour>
			<point x="536" y="1455" type="curve" smooth="yes"/>
			<point x="882" y="41" type="line" smooth="yes"/>
			<point x="893" y="-6"/>
			<point x="902" y="-12"/>
			<point x="924" y="-12" type="curve" smooth="yes"/>
			<point x="946" y="-12"/>
			<point x="957" y="-5"/>
			<point x="971" y="45" type="curve" smooth="yes"/>
			<point x="1051" y="327"/>
			<point x="1356" y="1373"/>
			<point x="1402" y="1505" type="curve" smooth="yes"/>
			<point x="1416" y="1546"/>
			<point x="1419" y="1563"/>
			<point x="1419" y="1571" type="curve" smooth="yes"/>
			<point x="1419" y="1589"/>
			<point x="1400" y="1600"/>
			<point x="1380" y="1600" type="curve" smooth="yes"/>
			<point x="1362" y="1600"/>
			<point x="1352" y="1587"/>
			<point x="1344" y="1565" type="curve" smooth="yes"/>
			<point x="1280" y="1389"/>
			<point x="983" y="347"/>
			<point x="921" y="105" type="curve"/>
			<point x="942" y="116" type="line"/>
			<point x="602" y="1542" type="line" smooth="yes"/>
			<point x="591" y="1587"/>
			<point x="582" y="1600"/>
			<point x="551" y="1600" type="curve" smooth="yes"/>
			<point x="528" y="1600"/>
			<point x="514" y="1587"/>
			<point x="514" y="1562" type="curve" smooth="yes"/>
			<point x="514" y="1543"/>
			<point x="520" y="1518"/>
		</contour>
		<contour>
			<point x="561" y="1382" type="curve"/>
			<point x="530" y="1517" type="line"/>
			<point x="418" y="1106"/>
			<point x="186" y="294"/>
			<point x="123" y="82" type="curve" smooth="yes"/>
			<point x="113" y="48"/>
			<point x="110" y="37"/>
			<point x="110" y="22" type="curve" smooth="yes"/>
			<point x="110" y="1"/>
			<point x="128" y="-12"/>
			<point x="149" y="-12" type="curve" smooth="yes"/>
			<point x="165" y="-12"/>
			<point x="178" y="-4"/>
			<point x="187" y="25" type="curve" smooth="yes"/>
			<point x="260" y="269"/>
			<point x="475" y="1052"/>
		</contour>
	</outline>
	<anchor name="bottom" x="559" y="0"/>
	<anchor name="top" x="983" y="1600"/>
</glyph>
<glyph name="U" format="2">
	<unicode hex="0055"/>
	<advance width="1102"/>
	<outline>
		<contour>
			<point x="1016" y="-12" type="curve" smooth="yes"/>
			<point x="1064" y="-12"/>
			<point x="1078" y="8"/>
			<point x="1078" y="29" type="curve" smooth="yes"/>
			<point x="1078" y="52"/>
			<point x="1060" y="63"/>
			<point x="1038" y="63" type="curve" smooth="yes"/>
			<point x="1004" y="63"/>
			<point x="982" y="82"/>
			<point x="982" y="142" type="curve" smooth="yes"/>
			<point x="982" y="175"/>
			<point x="990" y="212"/>
			<point x="1015" y="311" type="curve" smooth="yes"/>
			<point x="1087" y="595"/>
			<point x="1245" y="1101"/>
			<point x="1340" y="1404" type="curve" smooth="yes"/>
			<point x="1384" y="1544"/>
			<point x="1388" y="1562"/>
			<point x="1388" y="1578" type="curve" smooth="yes"/>
			<point x="1388" y="1599"/>
			<point x="1370" y="1608"/>
			<point x="1352" y="1608" type="curve" smooth="yes"/>
			<point x="1329" y="1608"/>
			<point x="1322" y="1597"/>
			<point x="1265" y="1427" type="curve" smooth="yes"/>
			<point x="1194" y="1215"/>
			<point x="1139" y="1078"/>
			<point x="1018" y="832" type="curve" smooth="yes"/>
			<point x="745" y="277"/>
			<point x="535" y="63"/>
			<point x="354" y="63" type="curve" smooth="yes"/>
			<point x="273" y="63"/>
			<point x="230" y="122"/>
			<point x="230" y="245" type="curve" smooth="yes"/>
			<point x="230" y="335"/>
			<point x="255" y="453"/>
			<point x="322" y="656" type="curve" smooth="yes"/>
			<point x="354" y="753"/>
			<point x="387" y="853"/>
			<point x="425" y="956" type="curve" smooth="yes"/>
			<point x="490" y="1131"/>
			<point x="552" y="1312"/>
			<point x="600" y="1474" type="curve" smooth="yes"/>
			<point x="625" y="1558"/>
			<point x="624" y="1577"/>
			<point x="624" y="1579" type="curve" smooth="yes"/>
			<point x="624" y="1599"/>
			<point x="606" y="1608"/>
			<point x="583" y="1608" type="curve" smooth="yes"/>
			<point x="566" y="1608"/>
			<point x="557" y="1601"/>
			<point x="537" y="1532" type="curve" smooth="yes"/>
			<point x="480" y="1336"/>
			<point x="409" y="1127"/>
			<point x="341" y="937" type="curve" smooth="yes"/>
			<point x="310" y="850"/>
			<point x="294" y="802"/>
			<point x="256" y="688" type="curve" smooth="yes"/>
			<point x="181" y="464"/>
			<point x="150" y="333"/>
			<point x="150" y="229" type="curve" smooth="yes"/>
			<point x="150" y="76"/>
			<point x="221" y="-12"/>
			<point x="341" y="-12" type="curve" smooth="yes"/>
			<point x="571" y="-12"/>
			<point x="815" y="209"/>
			<point x="1164" y="1013" type="curve"/>
			<point x="1157" y="1013" type="line"/>
			<point x="1092" y="798"/>
			<point x="1009" y="533"/>
			<point x="952" y="342" type="curve" smooth="yes"/>
			<point x="921" y="237"/>
			<point x="909" y="178"/>
			<point x="909" y="120" type="curve" smooth="yes"/>
			<point x="909" y="34"/>
			<point x="957" y="-12"/>
		</contour>
	</outline>
	<anchor name="bottom" x="527" y="0"/>
	<anchor name="ogonek" x="1089" y="-12"/>
	<anchor name="top" x="975" y="1600"/>
	<anchor name="topright" x="1680" y="1434"/>
</glyph>
<glyph name="W" format="2">
	<unicode hex="0057"/>
	<advance width="1790"/>
	<outline>
		<contour>
			<point x="328" y="1539" type="curve" smooth="yes"/>
			<point x="301" y="167" type="line" smooth="yes"/>
			<point x="300" y="122"/>
			<point x="301" y="100"/>
			<point x="301" y="63" type="curve" smooth="yes"/>
			<point x="301" y="4"/>
			<point x="318" y="-12"/>
			<point x="356" y="-12" type="curve" smooth="yes"/>
			<point x="380" y="-12"/>
			<point x="399" y="-1"/>
			<point x="425" y="56" type="curve" smooth="yes"/>
			<point x="641" y="519"/>
			<point x="822" y="889"/>
			<point x="995" y="1167" type="curve"/>
			<point x="982" y="1194" type="line"/>
			<point x="960" y="152" type="line" smooth="yes"/>
			<point x="959" y="122"/>
			<point x="959" y="100"/>
			<point x="959" y="63" type="curve" smooth="yes"/>
			<point x="959" y="4"/>
			<point x="976" y="-12"/>
			<point x="1014" y="-12" type="curve" smooth="yes"/>
			<point x="1038" y="-12"/>
			<point x="1055" y="1"/>
			<point x="1074" y="41" type="curve" smooth="yes"/>
			<point x="1391" y="701"/>
			<point x="1647" y="1141"/>
			<point x="1879" y="1423" type="curve" smooth="yes"/>
			<point x="1936" y="1492"/>
			<point x="1979" y="1519"/>
			<point x="2020" y="1544" type="curve" smooth="yes"/>
			<point x="2032" y="1551"/>
			<point x="2035" y="1559"/>
			<point x="2035" y="1568" type="curve" smooth="yes"/>
			<point x="2035" y="1583"/>
			<point x="2022" y="1600"/>
			<point x="2000" y="1600" type="curve" smooth="yes"/>
			<point x="1962" y="1600"/>
			<point x="1916" y="1570"/>
			<point x="1848" y="1495" type="curve" smooth="yes"/>
			<point x="1630" y="1257"/>
			<point x="1331" y="748"/>
			<point x="1012" y="63" type="curve"/>
			<point x="1028" y="55" type="line"/>
			<point x="1054" y="1239" type="line" smooth="yes"/>
			<point x="1054" y="1245"/>
			<point x="1054" y="1251"/>
			<point x="1053" y="1256" type="curve" smooth="yes"/>
			<point x="1049" y="1283"/>
			<point x="1035" y="1291"/>
			<point x="1019" y="1291" type="curve" smooth="yes"/>
			<point x="1001" y="1291"/>
			<point x="989" y="1284"/>
			<point x="957" y="1236" type="curve" smooth="yes"/>
			<point x="798" y="996"/>
			<point x="586" y="575"/>
			<point x="359" y="65" type="curve"/>
			<point x="370" y="55" type="line"/>
			<point x="405" y="1539" type="line" smooth="yes"/>
			<point x="405" y="1545"/>
			<point x="405" y="1551"/>
			<point x="405" y="1556" type="curve" smooth="yes"/>
			<point x="402" y="1591"/>
			<point x="390" y="1600"/>
			<point x="370" y="1600" type="curve" smooth="yes"/>
			<point x="347" y="1600"/>
			<point x="333" y="1591"/>
			<point x="329" y="1555" type="curve" smooth="yes"/>
			<point x="328" y="1550"/>
			<point x="328" y="1545"/>
		</contour>
	</outline>
	<anchor name="bottom" x="695" y="0"/>
	<anchor name="top" x="1079" y="1600"/>
</glyph>
<glyph name="Y" format="2">
	<unicode hex="0059"/>
	<advance width="1034"/>
	<outline>
		<contour>
			<point x="270" y="1502" type="curve" smooth="yes"/>
			<point x="467" y="608" type="line"/>
			<point x="527" y="691" type="line"/>
			<point x="344" y="1540" type="line" smooth="yes"/>
			<point x="330" y="1605"/>
			<point x="327" y="1614"/>
			<point x="303" y="1614" type="curve" smooth="yes"/>
			<point x="280" y="1614"/>
			<point x="256" y="1600"/>
			<point x="256" y="1583" type="curve" smooth="yes"/>
			<point x="256" y="1568"/>
			<point x="264" y="1529"/>
		</contour>
		<contour>
			<point x="514" y="694" type="curve"/>
			<point x="473" y="637" type="line"/>
			<point x="341" y="453"/>
			<point x="212" y="266"/>
			<point x="93" y="77" type="curve" smooth="yes"/>
			<point x="73" y="45"/>
			<point x="70" y="36"/>
			<point x="70" y="25" type="curve" smooth="yes"/>
			<point x="70" y="2"/>
			<point x="90" y="-12"/>
			<point x="111" y="-12" type="curve" smooth="yes"/>
			<point x="122" y="-12"/>
			<point x="134" y="-10"/>
			<point x="154" y="22" type="curve" smooth="yes"/>
			<point x="480" y="552"/>
			<point x="875" y="1062"/>
			<point x="1287" y="1527" type="curve" smooth="yes"/>
			<point x="1312" y="1555"/>
			<point x="1314" y="1564"/>
			<point x="1314" y="1573" type="curve" smooth="yes"/>
			<point x="1314" y="1594"/>
			<point x="1294" y="1609"/>
			<point x="1274" y="1609" type="curve" smooth="yes"/>
			<point x="1262" y="1609"/>
			<point x="1254" y="1601"/>
			<point x="1230" y="1574" type="curve" smooth="yes"/>
			<point x="981" y="1296"/>
			<point x="737" y="1003"/>
		</contour>
	</outline>
	<anchor name="bottom" x="315" y="0"/>
	<anchor name="top" x="750" y="1600"/>
	<anchor name="topleft" x="372" y="1434"/>
</glyph>
<glyph name="Z" format="2">
	<unicode hex="005A"/>
	<advance width="834"/>
	<outline>
		<contour>
			<point x="-50" y="63" type="curve" smooth="yes"/>
			<point x="-50" y="12"/>
			<point x="-14" y="-25"/>
			<point x="45" y="-25" type="curve" smooth="yes"/>
			<point x="104" y="-25"/>
			<point x="161" y="2"/>
			<point x="281" y="144" type="curve" smooth="yes"/>
			<point x="485" y="385"/>
			<point x="690" y="670"/>
			<point x="770" y="778" type="curve" smooth="yes"/>
			<point x="1133" y="1269"/>
			<point x="1224" y="1422"/>
			<point x="1271" y="1505" type="curve" smooth="yes"/>
			<point x="1291" y="1540"/>
			<point x="1298" y="1557"/>
			<point x="1298" y="1573" type="curve" smooth="yes"/>
			<point x="1298" y="1596"/>
			<point x="1289" y="1611"/>
			<point x="1259" y="1611" type="curve" smooth="yes"/>
			<point x="1255" y="1611"/>
			<point x="1245" y="1610"/>
			<point x="1230" y="1608" type="curve" smooth="yes"/>
			<point x="1168" y="1601"/>
			<point x="1014" y="1584"/>
			<point x="731" y="1584" type="curve" smooth="yes"/>
			<point x="601" y="1584"/>
			<point x="509" y="1593"/>
			<point x="452" y="1599" type="curve" smooth="yes"/>
			<point x="426" y="1602"/>
			<point x="408" y="1604"/>
			<point x="396" y="1604" type="curve" smooth="yes"/>
			<point x="373" y="1604"/>
			<point x="358" y="1594"/>
			<point x="358" y="1572" type="curve" smooth="yes"/>
			<point x="358" y="1552"/>
			<point x="370" y="1541"/>
			<point x="397" y="1534" type="curve" smooth="yes"/>
			<point x="445" y="1522"/>
			<point x="591" y="1509"/>
			<point x="717" y="1509" type="curve" smooth="yes"/>
			<point x="930" y="1509"/>
			<point x="1110" y="1522"/>
			<point x="1228" y="1539" type="curve"/>
			<point x="1216" y="1545" type="line"/>
			<point x="1156" y="1443"/>
			<point x="1056" y="1286"/>
			<point x="697" y="800" type="curve" smooth="yes"/>
			<point x="459" y="479"/>
			<point x="311" y="284"/>
			<point x="198" y="158" type="curve" smooth="yes"/>
			<point x="127" y="79"/>
			<point x="85" y="50"/>
			<point x="52" y="50" type="curve" smooth="yes"/>
			<point x="37" y="50"/>
			<point x="27" y="58"/>
			<point x="27" y="73" type="curve" smooth="yes"/>
			<point x="27" y="97"/>
			<point x="57" y="122"/>
			<point x="130" y="122" type="curve" smooth="yes"/>
			<point x="214" y="122"/>
			<point x="295" y="98"/>
			<point x="389" y="64" type="curve" smooth="yes"/>
			<point x="494" y="27"/>
			<point x="609" y="-12"/>
			<point x="766" y="-12" type="curve" smooth="yes"/>
			<point x="801" y="-12"/>
			<point x="819" y="4"/>
			<point x="819" y="30" type="curve" smooth="yes"/>
			<point x="819" y="50"/>
			<point x="801" y="63"/>
			<point x="777" y="63" type="curve" smooth="yes"/>
			<point x="621" y="63"/>
			<point x="506" y="100"/>
			<point x="401" y="137" type="curve" smooth="yes"/>
			<point x="328" y="164"/>
			<point x="237" y="194"/>
			<point x="142" y="194" type="curve" smooth="yes"/>
			<point x="22" y="194"/>
			<point x="-50" y="132"/>
		</contour>
	</outline>
	<anchor name="bottom" x="383" y="0"/>
	<anchor name="center" x="755" y="820"/>
	<anchor name="top" x="831" y="1600"/>
	<anchor name="topright" x="1338" y="1600"/>
</glyph>
<glyph name="backslash" format="2">
	<unicode hex="005C"/>
	<advance width="876"/>
	<outline>
		<contour>
			<point x="588" y="-112" type="curve" smooth="yes"/>
			<point x="609" y="-112"/>
			<point x="626" y="-95"/>
			<point x="626" y="-74" type="curve" smooth="yes"/>
			<point x="626" y="-67"/>
			<point x="621" y="-37"/>
			<point x="620" y="-31" type="curve" smooth="yes"/>
			<point x="360" y="1416" type="line" smooth="yes"/>
			<point x="354" y="1449"/>
			<point x="345" y="1458"/>
			<point x="324" y="1458" type="curve" smooth="yes"/>
			<point x="299" y="1458"/>
			<point x="286" y="1444"/>
			<point x="286" y="1424" type="curve" smooth="yes"/>
			<point x="286" y="1410"/>
			<point x="289" y="1389"/>
			<point x="296" y="1350" type="curve" smooth="yes"/>
			<point x="554" y="-84" type="line" smooth="yes"/>
			<point x="558" y="-106"/>
			<point x="573" y="-112"/>
		</contour>
	</outline>
</glyph>
<glyph name="underscore" format="2">
	<unicode hex="005F"/>
	<advance width="1570"/>
	<outline>
		<contour>
			<point x="190" y="-116" type="curve" smooth="yes"/>
			<point x="1375" y="-116" type="line" smooth="yes"/>
			<point x="1401" y="-116"/>
			<point x="1420" y="-105"/>
			<point x="1420" y="-75" type="curve" smooth="yes"/>
			<point x="1420" y="-52"/>
			<point x="1406" y="-41"/>
			<point x="1380" y="-41" type="curve" smooth="yes"/>
			<point x="195" y="-41" type="line" smooth="yes"/>
			<point x="169" y="-41"/>
			<point x="150" y="-52"/>
			<point x="150" y="-81" type="curve" smooth="yes"/>
			<point x="150" y="-105"/>
			<point x="164" y="-116"/>
		</contour>
	</outline>
</glyph>
<glyph name="d" format="2">
	<unicode hex="0064"/>
	<advance width="784"/>
	<outline>
		<contour>
			<point x="770" y="789" type="curve"/>
			<point x="785" y="855" type="line"/>
			<point x="673" y="908"/>
			<point x="577" y="935"/>
			<point x="515" y="935" type="curve" smooth="yes"/>
			<point x="287" y="935"/>
			<point x="65" y="604"/>
			<point x="65" y="248" type="curve" smooth="yes"/>
			<point x="65" y="73"/>
			<point x="127" y="-12"/>
			<point x="213" y="-12" type="curve" smooth="yes"/>
			<point x="370" y="-12"/>
			<point x="535" y="195"/>
			<point x="658" y="424" type="curve"/>
			<point x="653" y="433" type="line"/>
			<point x="626" y="328" type="line" smooth="yes"/>
			<point x="590" y="189"/>
			<point x="585" y="158"/>
			<point x="585" y="124" type="curve" smooth="yes"/>
			<point x="585" y="26"/>
			<point x="626" y="-12"/>
			<point x="706" y="-12" type="curve" smooth="yes"/>
			<point x="739" y="-12"/>
			<point x="763" y="6"/>
			<point x="763" y="34" type="curve" smooth="yes"/>
			<point x="763" y="50"/>
			<point x="754" y="63"/>
			<point x="725" y="63" type="curve" smooth="yes"/>
			<point x="685" y="63"/>
			<point x="665" y="82"/>
			<point x="665" y="133" type="curve" smooth="yes"/>
			<point x="665" y="171"/>
			<point x="678" y="223"/>
			<point x="705" y="326" type="curve" smooth="yes"/>
			<point x="962" y="1296" type="line" smooth="yes"/>
			<point x="969" y="1322"/>
			<point x="977" y="1354"/>
			<point x="977" y="1366" type="curve" smooth="yes"/>
			<point x="977" y="1394"/>
			<point x="957" y="1400"/>
			<point x="936" y="1400" type="curve" smooth="yes"/>
			<point x="916" y="1400"/>
			<point x="900" y="1384"/>
			<point x="893" y="1356" type="curve" smooth="yes"/>
			<point x="755" y="815" type="line" smooth="yes"/>
			<point x="642" y="371"/>
			<point x="360" y="63"/>
			<point x="230" y="63" type="curve" smooth="yes"/>
			<point x="180" y="63"/>
			<point x="146" y="113"/>
			<point x="146" y="261" type="curve" smooth="yes"/>
			<point x="146" y="561"/>
			<point x="333" y="860"/>
			<point x="520" y="860" type="curve" smooth="yes"/>
			<point x="591" y="860"/>
			<point x="666" y="840"/>
		</contour>
	</outline>
	<anchor name="bottom" x="275" y="0"/>
	<anchor name="center" x="835" y="1135"/>
	<anchor name="top" x="936" y="1400"/>
	<anchor name="topright" x="984" y="1400"/>
</glyph>
<glyph name="e" format="2">
	<unicode hex="0065"/>
	<advance width="512"/>
	<outline>
		<contour>
			<point x="157" y="451" type="curve"/>
			<point x="150" y="388" type="line"/>
			<point x="390" y="399"/>
			<point x="730" y="496"/>
			<point x="730" y="748" type="curve" smooth="yes"/>
			<point x="730" y="858"/>
			<point x="655" y="925"/>
			<point x="543" y="925" type="curve" smooth="yes"/>
			<point x="311" y="925"/>
			<point x="80" y="650"/>
			<point x="80" y="350" type="curve" smooth="yes"/>
			<point x="80" y="138"/>
			<point x="220" y="-12"/>
			<point x="440" y="-12" type="curve" smooth="yes"/>
			<point x="489" y="-12"/>
			<point x="502" y="9"/>
			<point x="502" y="30" type="curve" smooth="yes"/>
			<point x="502" y="52"/>
			<point x="487" y="63"/>
			<point x="464" y="63" type="curve" smooth="yes"/>
			<point x="272" y="63"/>
			<point x="160" y="168"/>
			<point x="160" y="353" type="curve" smooth="yes"/>
			<point x="160" y="603"/>
			<point x="342" y="853"/>
			<point x="535" y="853" type="curve" smooth="yes"/>
			<point x="608" y="853"/>
			<point x="652" y="808"/>
			<point x="652" y="736" type="curve" smooth="yes"/>
			<point x="652" y="528"/>
			<point x="365" y="462"/>
		</contour>
	</outline>
	<anchor name="bottom" x="387" y="0"/>
	<anchor name="ogonek" x="458" y="0"/>
	<anchor name="top" x="534" y="920"/>
</glyph>
<glyph name="f" format="2">
	<unicode hex="0066"/>
	<advance width="145"/>
	<outline>
		<contour>
			<point x="704" y="1350" type="curve" smooth="yes"/>
			<point x="763" y="1350"/>
			<point x="805" y="1328"/>
			<point x="835" y="1311" type="curve" smooth="yes"/>
			<point x="853" y="1301"/>
			<point x="867" y="1294"/>
			<point x="878" y="1294" type="curve" smooth="yes"/>
			<point x="893" y="1294"/>
			<point x="906" y="1310"/>
			<point x="906" y="1327" type="curve" smooth="yes"/>
			<point x="906" y="1358"/>
			<point x="811" y="1425"/>
			<point x="708" y="1425" type="curve" smooth="yes"/>
			<point x="566" y="1425"/>
			<point x="446" y="1303"/>
			<point x="391" y="1070" type="curve" smooth="yes"/>
			<point x="320" y="769"/>
			<point x="249" y="436"/>
			<point x="217" y="272" type="curve"/>
			<point x="166" y="268"/>
			<point x="137" y="259"/>
			<point x="137" y="233" type="curve" smooth="yes"/>
			<point x="137" y="210"/>
			<point x="150" y="194"/>
			<point x="194" y="167" type="curve"/>
			<point x="136" y="-93" type="line" smooth="yes"/>
			<point x="113" y="-195"/>
			<point x="87" y="-347"/>
			<point x="87" y="-407" type="curve" smooth="yes"/>
			<point x="87" y="-459"/>
			<point x="103" y="-470"/>
			<point x="129" y="-470" type="curve" smooth="yes"/>
			<point x="156" y="-470"/>
			<point x="169" y="-458"/>
			<point x="182" y="-359" type="curve" smooth="yes"/>
			<point x="199" y="-228"/>
			<point x="250" y="69"/>
			<point x="268" y="156" type="curve"/>
			<point x="321" y="416"/>
			<point x="388" y="728"/>
			<point x="460" y="1037" type="curve" smooth="yes"/>
			<point x="510" y="1251"/>
			<point x="598" y="1350"/>
		</contour>
	</outline>
</glyph>
<glyph name="g" format="2">
	<unicode hex="0067"/>
	<advance width="783"/>
	<outline>
		<contour>
			<point x="649" y="41" type="curve"/>
			<point x="649" y="113" type="line"/>
			<point x="223" y="-92"/>
			<point x="126" y="-196"/>
			<point x="126" y="-319" type="curve" smooth="yes"/>
			<point x="126" y="-410"/>
			<point x="207" y="-470"/>
			<point x="323" y="-470" type="curve" smooth="yes"/>
			<point x="519" y="-470"/>
			<point x="675" y="-351"/>
			<point x="700" y="-123" type="curve" smooth="yes"/>
			<point x="723" y="87"/>
			<point x="680" y="215"/>
			<point x="753" y="501" type="curve" smooth="yes"/>
			<point x="796" y="668"/>
			<point x="825" y="764"/>
			<point x="844" y="831" type="curve" smooth="yes"/>
			<point x="851" y="856"/>
			<point x="859" y="889"/>
			<point x="859" y="901" type="curve" smooth="yes"/>
			<point x="859" y="929"/>
			<point x="839" y="935"/>
			<point x="818" y="935" type="curve" smooth="yes"/>
			<point x="795" y="935"/>
			<point x="782" y="922"/>
			<point x="768" y="864" type="curve"/>
			<point x="663" y="911"/>
			<point x="574" y="935"/>
			<point x="516" y="935" type="curve" smooth="yes"/>
			<point x="288" y="935"/>
			<point x="66" y="618"/>
			<point x="66" y="278" type="curve" smooth="yes"/>
			<point x="66" y="103"/>
			<point x="128" y="18"/>
			<point x="214" y="18" type="curve" smooth="yes"/>
			<point x="373" y="18"/>
			<point x="542" y="219"/>
			<point x="666" y="436" type="curve"/>
			<point x="662" y="439" type="line"/>
			<point x="613" y="172"/>
			<point x="646" y="64"/>
			<point x="625" y="-116" type="curve" smooth="yes"/>
			<point x="602" y="-310"/>
			<point x="492" y="-395"/>
			<point x="335" y="-395" type="curve" smooth="yes"/>
			<point x="248" y="-395"/>
			<point x="201" y="-359"/>
			<point x="201" y="-310" type="curve" smooth="yes"/>
			<point x="201" y="-213"/>
			<point x="296" y="-126"/>
		</contour>
		<contour>
			<point x="146" y="291" type="curve" smooth="yes"/>
			<point x="146" y="576"/>
			<point x="334" y="860"/>
			<point x="521" y="860" type="curve" smooth="yes"/>
			<point x="588" y="860"/>
			<point x="658" y="843"/>
			<point x="750" y="800" type="curve"/>
			<point x="744" y="778" type="line" smooth="yes"/>
			<point x="639" y="396"/>
			<point x="360" y="93"/>
			<point x="231" y="93" type="curve" smooth="yes"/>
			<point x="180" y="93"/>
			<point x="146" y="143"/>
		</contour>
	</outline>
	<anchor name="bottom" x="231" y="0"/>
	<anchor name="top" x="558" y="920"/>
</glyph>
<glyph name="l" format="2">
	<unicode hex="006C"/>
	<advance width="313"/>
	<outline>
		<contour>
			<point x="265" y="578" type="curve" smooth="yes"/>
			<point x="467" y="1320" type="line" smooth="yes"/>
			<point x="473" y="1341"/>
			<point x="477" y="1362"/>
			<point x="477" y="1370" type="curve" smooth="yes"/>
			<point x="477" y="1387"/>
			<point x="455" y="1400"/>
			<point x="430" y="1400" type="curve" smooth="yes"/>
			<point x="410" y="1400"/>
			<point x="401" y="1387"/>
			<point x="392" y="1352" type="curve" smooth="yes"/>
			<point x="191" y="596" type="line" smooth="yes"/>
			<point x="120" y="327"/>
			<point x="90" y="212"/>
			<point x="90" y="130" type="curve" smooth="yes"/>
			<point x="90" y="37"/>
			<point x="138" y="-12"/>
			<point x="235" y="-12" type="curve" smooth="yes"/>
			<point x="268" y="-12"/>
			<point x="291" y="6"/>
			<point x="291" y="34" type="curve" smooth="yes"/>
			<point x="291" y="50"/>
			<point x="283" y="63"/>
			<point x="254" y="63" type="curve" smooth="yes"/>
			<point x="187" y="63"/>
			<point x="170" y="82"/>
			<point x="170" y="144" type="curve" smooth="yes"/>
			<point x="170" y="214"/>
			<point x="196" y="323"/>
		</contour>
	</outline>
	<anchor name="bottom" x="144" y="0"/>
	<anchor name="center" x="272" y="735"/>
	<anchor name="top" x="450" y="1400"/>
	<anchor name="topright" x="517" y="1400"/>
</glyph>
<glyph name="p" format="2">
	<unicode hex="0070"/>
	<advance width="1090"/>
	<outline>
		<contour>
			<point x="334" y="61" type="curve" smooth="yes"/>
			<point x="309" y="61"/>
			<point x="291" y="47"/>
			<point x="291" y="20" type="curve" smooth="yes"/>
			<point x="291" y="-1"/>
			<point x="311" y="-12"/>
			<point x="330" y="-12" type="curve" smooth="yes"/>
			<point x="621" y="-12"/>
			<point x="900" y="346"/>
			<point x="900" y="676" type="curve" smooth="yes"/>
			<point x="900" y="857"/>
			<point x="823" y="935"/>
			<point x="711" y="935" type="curve" smooth="yes"/>
			<point x="553" y="935"/>
			<point x="410" y="817"/>
			<point x="236" y="496" type="curve"/>
			<point x="246" y="500" type="line"/>
			<point x="276" y="618"/>
			<point x="309" y="736"/>
			<point x="346" y="863" type="curve" smooth="yes"/>
			<point x="350" y="878"/>
			<point x="352" y="892"/>
			<point x="352" y="900" type="curve" smooth="yes"/>
			<point x="352" y="919"/>
			<point x="342" y="935"/>
			<point x="317" y="935" type="curve" smooth="yes"/>
			<point x="296" y="935"/>
			<point x="279" y="926"/>
			<point x="266" y="878" type="curve" smooth="yes"/>
			<point x="195" y="615"/>
			<point x="131" y="349"/>
			<point x="74" y="85" type="curve"/>
			<point x="20" y="-126"/>
			<point x="-24" y="-316"/>
			<point x="-24" y="-415" type="curve" smooth="yes"/>
			<point x="-24" y="-453"/>
			<point x="-5" y="-468"/>
			<point x="20" y="-468" type="curve" smooth="yes"/>
			<point x="40" y="-468"/>
			<point x="58" y="-454"/>
			<point x="64" y="-420" type="curve" smooth="yes"/>
			<point x="74" y="-365"/>
			<point x="84" y="-309"/>
			<point x="92" y="-247" type="curve" smooth="yes"/>
			<point x="108" y="-125"/>
			<point x="131" y="3"/>
			<point x="164" y="141" type="curve" smooth="yes"/>
			<point x="243" y="470"/>
			<point x="488" y="860"/>
			<point x="687" y="860" type="curve" smooth="yes"/>
			<point x="767" y="860"/>
			<point x="820" y="795"/>
			<point x="820" y="663" type="curve" smooth="yes"/>
			<point x="820" y="370"/>
			<point x="584" y="61"/>
		</contour>
	</outline>
</glyph>
<glyph name="q" format="2">
	<unicode hex="0071"/>
	<advance width="908"/>
	<outline>
		<contour>
			<point x="65" y="248" type="curve" smooth="yes"/>
			<point x="65" y="73"/>
			<point x="127" y="-12"/>
			<point x="213" y="-12" type="curve" smooth="yes"/>
			<point x="370" y="-12"/>
			<point x="535" y="195"/>
			<point x="697" y="488" type="curve"/>
			<point x="674" y="488" type="line"/>
			<point x="612" y="266"/>
			<point x="567" y="111"/>
			<point x="523" y="-56" type="curve" smooth="yes"/>
			<point x="480" y="-217"/>
			<point x="445" y="-379"/>
			<point x="445" y="-435" type="curve" smooth="yes"/>
			<point x="445" y="-459"/>
			<point x="455" y="-470"/>
			<point x="485" y="-470" type="curve" smooth="yes"/>
			<point x="504" y="-470"/>
			<point x="517" y="-462"/>
			<point x="523" y="-434" type="curve" smooth="yes"/>
			<point x="557" y="-269"/>
			<point x="598" y="-82"/>
			<point x="705" y="316" type="curve" smooth="yes"/>
			<point x="843" y="831" type="line" smooth="yes"/>
			<point x="850" y="857"/>
			<point x="858" y="889"/>
			<point x="858" y="901" type="curve" smooth="yes"/>
			<point x="858" y="929"/>
			<point x="838" y="935"/>
			<point x="817" y="935" type="curve" smooth="yes"/>
			<point x="797" y="935"/>
			<point x="781" y="919"/>
			<point x="774" y="891" type="curve" smooth="yes"/>
			<point x="767" y="864" type="line"/>
			<point x="662" y="911"/>
			<point x="573" y="935"/>
			<point x="515" y="935" type="curve" smooth="yes"/>
			<point x="287" y="935"/>
			<point x="65" y="604"/>
		</contour>
		<contour>
			<point x="145" y="261" type="curve" smooth="yes"/>
			<point x="145" y="561"/>
			<point x="333" y="860"/>
			<point x="520" y="860" type="curve" smooth="yes"/>
			<point x="587" y="860"/>
			<point x="658" y="843"/>
			<point x="750" y="800" type="curve"/>
			<point x="652" y="447"/>
			<point x="381" y="63"/>
			<point x="230" y="63" type="curve" smooth="yes"/>
			<point x="179" y="63"/>
			<point x="145" y="113"/>
		</contour>
	</outline>
</glyph>
<glyph name="y" format="2">
	<unicode hex="0079"/>
	<advance width="804"/>
	<outline>
		<contour>
			<point x="669" y="41" type="curve"/>
			<point x="669" y="113" type="line"/>
			<point x="243" y="-92"/>
			<point x="146" y="-196"/>
			<point x="146" y="-319" type="curve" smooth="yes"/>
			<point x="146" y="-410"/>
			<point x="217" y="-470"/>
			<point x="333" y="-470" type="curve" smooth="yes"/>
			<point x="529" y="-470"/>
			<point x="695" y="-351"/>
			<point x="720" y="-123" type="curve" smooth="yes"/>
			<point x="728" y="-50"/>
			<point x="728" y="17"/>
			<point x="728" y="110" type="curve" smooth="yes"/>
			<point x="728" y="210"/>
			<point x="728" y="342"/>
			<point x="780" y="529" type="curve" smooth="yes"/>
			<point x="840" y="743"/>
			<point x="880" y="887"/>
			<point x="880" y="905" type="curve" smooth="yes"/>
			<point x="880" y="926"/>
			<point x="863" y="935"/>
			<point x="838" y="935" type="curve" smooth="yes"/>
			<point x="819" y="935"/>
			<point x="806" y="926"/>
			<point x="799" y="898" type="curve" smooth="yes"/>
			<point x="794" y="877"/>
			<point x="790" y="863"/>
			<point x="768" y="789" type="curve" smooth="yes"/>
			<point x="664" y="439"/>
			<point x="378" y="93"/>
			<point x="237" y="93" type="curve" smooth="yes"/>
			<point x="191" y="93"/>
			<point x="169" y="120"/>
			<point x="169" y="193" type="curve" smooth="yes"/>
			<point x="169" y="267"/>
			<point x="181" y="336"/>
			<point x="245" y="534" type="curve" smooth="yes"/>
			<point x="321" y="769"/>
			<point x="348" y="872"/>
			<point x="348" y="902" type="curve" smooth="yes"/>
			<point x="348" y="925"/>
			<point x="337" y="935"/>
			<point x="317" y="935" type="curve" smooth="yes"/>
			<point x="296" y="935"/>
			<point x="278" y="925"/>
			<point x="269" y="878" type="curve" smooth="yes"/>
			<point x="262" y="842"/>
			<point x="243" y="760"/>
			<point x="181" y="563" type="curve" smooth="yes"/>
			<point x="109" y="334"/>
			<point x="89" y="252"/>
			<point x="89" y="174" type="curve" smooth="yes"/>
			<point x="89" y="79"/>
			<point x="143" y="18"/>
			<point x="214" y="18" type="curve" smooth="yes"/>
			<point x="354" y="18"/>
			<point x="536" y="183"/>
			<point x="719" y="522" type="curve"/>
			<point x="711" y="540" type="line"/>
			<point x="658" y="331"/>
			<point x="654" y="199"/>
			<point x="654" y="87" type="curve" smooth="yes"/>
			<point x="654" y="10"/>
			<point x="651" y="-50"/>
			<point x="645" y="-116" type="curve" smooth="yes"/>
			<point x="628" y="-292"/>
			<point x="514" y="-395"/>
			<point x="345" y="-395" type="curve" smooth="yes"/>
			<point x="258" y="-395"/>
			<point x="221" y="-359"/>
			<point x="221" y="-310" type="curve" smooth="yes"/>
			<point x="221" y="-213"/>
			<point x="316" y="-126"/>
		</contour>
	</outline>
	<anchor name="top" x="580" y="920"/>
	<anchor name="topright" x="920" y="920"/>
</glyph>
<glyph name="cent" format="2">
	<unicode hex="00A2"/>
	<advance width="1200"/>
	<outline>
		<contour>
			<point x="580" y="324" type="curve" smooth="yes"/>
			<point x="695" y="324"/>
			<point x="821" y="384"/>
			<point x="898" y="458" type="curve" smooth="yes"/>
			<point x="919" y="479"/>
			<point x="931" y="495"/>
			<point x="931" y="514" type="curve" smooth="yes"/>
			<point x="931" y="525"/>
			<point x="919" y="538"/>
			<point x="905" y="538" type="curve" smooth="yes"/>
			<point x="891" y="538"/>
			<point x="883" y="526"/>
			<point x="859" y="506" type="curve" smooth="yes"/>
			<point x="774" y="436"/>
			<point x="686" y="399"/>
			<point x="597" y="399" type="curve" smooth="yes"/>
			<point x="427" y="399"/>
			<point x="321" y="494"/>
			<point x="321" y="696" type="curve" smooth="yes"/>
			<point x="321" y="958"/>
			<point x="502" y="1232"/>
			<point x="751" y="1232" type="curve" smooth="yes"/>
			<point x="824" y="1232"/>
			<point x="886" y="1197"/>
			<point x="945" y="1149" type="curve" smooth="yes"/>
			<point x="967" y="1131"/>
			<point x="973" y="1127"/>
			<point x="983" y="1127" type="curve" smooth="yes"/>
			<point x="998" y="1127"/>
			<point x="1015" y="1141"/>
			<point x="1015" y="1156" type="curve" smooth="yes"/>
			<point x="1015" y="1167"/>
			<point x="1011" y="1174"/>
			<point x="1001" y="1188" type="curve" smooth="yes"/>
			<point x="961" y="1243"/>
			<point x="858" y="1308"/>
			<point x="762" y="1308" type="curve" smooth="yes"/>
			<point x="477" y="1308"/>
			<point x="243" y="1002"/>
			<point x="243" y="692" type="curve" smooth="yes"/>
			<point x="243" y="472"/>
			<point x="380" y="324"/>
		</contour>
		<contour>
			<point x="477" y="120" type="curve" smooth="yes"/>
			<point x="497" y="120"/>
			<point x="510" y="134"/>
			<point x="513" y="147" type="curve" smooth="yes"/>
			<point x="850" y="1449" type="line" smooth="yes"/>
			<point x="854" y="1464"/>
			<point x="855" y="1468"/>
			<point x="855" y="1476" type="curve" smooth="yes"/>
			<point x="855" y="1496"/>
			<point x="838" y="1509"/>
			<point x="817" y="1509" type="curve" smooth="yes"/>
			<point x="800" y="1509"/>
			<point x="786" y="1497"/>
			<point x="782" y="1482" type="curve" smooth="yes"/>
			<point x="443" y="179" type="line" smooth="yes"/>
			<point x="440" y="166"/>
			<point x="439" y="161"/>
			<point x="439" y="157" type="curve" smooth="yes"/>
			<point x="439" y="131"/>
			<point x="456" y="120"/>
		</contour>
	</outline>
</glyph>
<glyph name="sterling" format="2">
	<unicode hex="00A3"/>
	<advance width="1200"/>
	<outline>
		<contour>
			<point x="-12" y="89" type="curve" smooth="yes"/>
			<point x="-12" y="29"/>
			<point x="32" y="-12"/>
			<point x="100" y="-12" type="curve" smooth="yes"/>
			<point x="354" y="-12"/>
			<point x="451" y="568"/>
			<point x="496" y="794" type="curve" smooth="yes"/>
			<point x="585" y="1239"/>
			<point x="700" y="1525"/>
			<point x="930" y="1525" type="curve" smooth="yes"/>
			<point x="985" y="1525"/>
			<point x="1037" y="1509"/>
			<point x="1082" y="1482" type="curve" smooth="yes"/>
			<point x="1097" y="1473"/>
			<point x="1105" y="1467"/>
			<point x="1115" y="1467" type="curve" smooth="yes"/>
			<point x="1132" y="1467"/>
			<point x="1148" y="1484"/>
			<point x="1148" y="1499" type="curve" smooth="yes"/>
			<point x="1148" y="1511"/>
			<point x="1138" y="1528"/>
			<point x="1105" y="1551" type="curve" smooth="yes"/>
			<point x="1066" y="1578"/>
			<point x="1013" y="1600"/>
			<point x="938" y="1600" type="curve" smooth="yes"/>
			<point x="665" y="1600"/>
			<point x="516" y="1309"/>
			<point x="417" y="797" type="curve" smooth="yes"/>
			<point x="384" y="626"/>
			<point x="287" y="63"/>
			<point x="110" y="63" type="curve" smooth="yes"/>
			<point x="82" y="63"/>
			<point x="65" y="77"/>
			<point x="65" y="101" type="curve" smooth="yes"/>
			<point x="65" y="136"/>
			<point x="102" y="167"/>
			<point x="169" y="167" type="curve" smooth="yes"/>
			<point x="330" y="167"/>
			<point x="482" y="-12"/>
			<point x="718" y="-12" type="curve" smooth="yes"/>
			<point x="871" y="-12"/>
			<point x="985" y="64"/>
			<point x="1051" y="163" type="curve" smooth="yes"/>
			<point x="1071" y="193"/>
			<point x="1077" y="211"/>
			<point x="1077" y="225" type="curve" smooth="yes"/>
			<point x="1077" y="242"/>
			<point x="1067" y="251"/>
			<point x="1054" y="251" type="curve" smooth="yes"/>
			<point x="1039" y="251"/>
			<point x="1032" y="238"/>
			<point x="1006" y="206" type="curve" smooth="yes"/>
			<point x="941" y="126"/>
			<point x="869" y="63"/>
			<point x="733" y="63" type="curve" smooth="yes"/>
			<point x="506" y="63"/>
			<point x="362" y="239"/>
			<point x="179" y="239" type="curve" smooth="yes"/>
			<point x="64" y="239"/>
			<point x="-12" y="169"/>
		</contour>
		<contour>
			<point x="210" y="824" type="curve" smooth="yes"/>
			<point x="184" y="823"/>
			<point x="173" y="809"/>
			<point x="173" y="791" type="curve" smooth="yes"/>
			<point x="173" y="762"/>
			<point x="200" y="754"/>
			<point x="264" y="754" type="curve" smooth="yes"/>
			<point x="348" y="754"/>
			<point x="762" y="768"/>
			<point x="860" y="776" type="curve" smooth="yes"/>
			<point x="918" y="781"/>
			<point x="937" y="791"/>
			<point x="937" y="817" type="curve" smooth="yes"/>
			<point x="937" y="837"/>
			<point x="926" y="839"/>
			<point x="896" y="839" type="curve" smooth="yes"/>
			<point x="848" y="839"/>
			<point x="707" y="834"/>
			<point x="550" y="832" type="curve" smooth="yes"/>
			<point x="404" y="830"/>
			<point x="316" y="828"/>
		</contour>
	</outline>
</glyph>
<glyph name="twosuperior" format="2">
	<unicode hex="00B2"/>
	<advance width="742"/>
	<outline>
		<contour>
			<point x="58" y="999" type="curve" smooth="yes"/>
			<point x="534" y="999" type="line" smooth="yes"/>
			<point x="574" y="999"/>
			<point x="586" y="1030"/>
			<point x="586" y="1050" type="curve" smooth="yes"/>
			<point x="586" y="1065"/>
			<point x="577" y="1076"/>
			<point x="558" y="1076" type="curve" smooth="yes"/>
			<point x="37" y="1076" type="line"/>
			<point x="31" y="1050" type="line"/>
			<point x="467" y="1280"/>
			<point x="682" y="1436"/>
			<point x="682" y="1646" type="curve" smooth="yes"/>
			<point x="682" y="1758"/>
			<point x="598" y="1828"/>
			<point x="488" y="1828" type="curve" smooth="yes"/>
			<point x="393" y="1828"/>
			<point x="292" y="1794"/>
			<point x="202" y="1733" type="curve" smooth="yes"/>
			<point x="169" y="1710"/>
			<point x="159" y="1694"/>
			<point x="159" y="1680" type="curve" smooth="yes"/>
			<point x="159" y="1666"/>
			<point x="171" y="1650"/>
			<point x="190" y="1650" type="curve" smooth="yes"/>
			<point x="201" y="1650"/>
			<point x="212" y="1655"/>
			<point x="236" y="1670" type="curve" smooth="yes"/>
			<point x="312" y="1718"/>
			<point x="394" y="1751"/>
			<point x="462" y="1751" type="curve" smooth="yes"/>
			<point x="548" y="1751"/>
			<point x="602" y="1706"/>
			<point x="602" y="1627" type="curve" smooth="yes"/>
			<point x="602" y="1468"/>
			<point x="416" y="1342"/>
			<point x="70" y="1145" type="curve" smooth="yes"/>
			<point x="24" y="1119"/>
			<point x="0" y="1095"/>
			<point x="0" y="1057" type="curve" smooth="yes"/>
			<point x="0" y="1023"/>
			<point x="27" y="999"/>
		</contour>
	</outline>
</glyph>
<glyph name="paragraph" format="2">
	<unicode hex="00B6"/>
	<advance width="1251"/>
	<outline>
		<contour>
			<point x="186" y="828" type="curve" smooth="yes"/>
			<point x="186" y="562"/>
			<point x="408" y="415"/>
			<point x="682" y="415" type="curve" smooth="yes"/>
			<point x="827" y="415"/>
			<point x="950" y="451"/>
			<point x="1063" y="516" type="curve" smooth="yes"/>
			<point x="1108" y="542"/>
			<point x="1120" y="556"/>
			<point x="1120" y="567" type="curve" smooth="yes"/>
			<point x="1120" y="580"/>
			<point x="1105" y="600"/>
			<point x="1092" y="600" type="curve" smooth="yes"/>
			<point x="1081" y="600"/>
			<point x="1074" y="596"/>
			<point x="1032" y="572" type="curve" smooth="yes"/>
			<point x="955" y="528"/>
			<point x="841" y="490"/>
			<point x="692" y="490" type="curve" smooth="yes"/>
			<point x="466" y="490"/>
			<point x="264" y="587"/>
			<point x="264" y="833" type="curve" smooth="yes"/>
			<point x="264" y="1102"/>
			<point x="514" y="1329"/>
			<point x="822" y="1329" type="curve" smooth="yes"/>
			<point x="915" y="1329"/>
			<point x="1012" y="1310"/>
			<point x="1063" y="1286" type="curve"/>
			<point x="1088" y="1346" type="line"/>
			<point x="1017" y="1380"/>
			<point x="928" y="1403"/>
			<point x="818" y="1403" type="curve" smooth="yes"/>
			<point x="482" y="1403"/>
			<point x="186" y="1144"/>
		</contour>
		<contour>
			<point x="422" y="-366" type="curve"/>
			<point x="374" y="-421" type="line"/>
			<point x="400" y="-435"/>
			<point x="434" y="-449"/>
			<point x="480" y="-449" type="curve" smooth="yes"/>
			<point x="712" y="-449"/>
			<point x="782" y="-252"/>
			<point x="809" y="13" type="curve" smooth="yes"/>
			<point x="870" y="619"/>
			<point x="933" y="916"/>
			<point x="1150" y="1332" type="curve" smooth="yes"/>
			<point x="1193" y="1414"/>
			<point x="1204" y="1427"/>
			<point x="1204" y="1435" type="curve" smooth="yes"/>
			<point x="1204" y="1446"/>
			<point x="1190" y="1465"/>
			<point x="1161" y="1465" type="curve" smooth="yes"/>
			<point x="1146" y="1465"/>
			<point x="1131" y="1454"/>
			<point x="1089" y="1371" type="curve" smooth="yes"/>
			<point x="870" y="940"/>
			<point x="801" y="651"/>
			<point x="735" y="24" type="curve" smooth="yes"/>
			<point x="710" y="-215"/>
			<point x="650" y="-379"/>
			<point x="489" y="-379" type="curve" smooth="yes"/>
			<point x="472" y="-379"/>
			<point x="449" y="-376"/>
		</contour>
		<contour>
			<point x="271" y="-449" type="curve" smooth="yes"/>
			<point x="517" y="-449"/>
			<point x="580" y="-239"/>
			<point x="607" y="3" type="curve" smooth="yes"/>
			<point x="675" y="613"/>
			<point x="761" y="991"/>
			<point x="946" y="1342" type="curve"/>
			<point x="871" y="1349" type="line"/>
			<point x="695" y="1017"/>
			<point x="601" y="642"/>
			<point x="533" y="14" type="curve" smooth="yes"/>
			<point x="508" y="-215"/>
			<point x="445" y="-379"/>
			<point x="277" y="-379" type="curve" smooth="yes"/>
			<point x="192" y="-379"/>
			<point x="114" y="-347"/>
			<point x="57" y="-295" type="curve" smooth="yes"/>
			<point x="48" y="-287"/>
			<point x="41" y="-281"/>
			<point x="31" y="-281" type="curve" smooth="yes"/>
			<point x="15" y="-281"/>
			<point x="-9" y="-297"/>
			<point x="-9" y="-317" type="curve" smooth="yes"/>
			<point x="-9" y="-364"/>
			<point x="131" y="-449"/>
		</contour>
	</outline>
</glyph>
<glyph name="onesuperior" format="2">
	<unicode hex="00B9"/>
	<advance width="518"/>
	<outline>
		<contour>
			<point x="192" y="989" type="curve" smooth="yes"/>
			<point x="225" y="989"/>
			<point x="238" y="1002"/>
			<point x="245" y="1028" type="curve" smooth="yes"/>
			<point x="441" y="1768" type="line" smooth="yes"/>
			<point x="445" y="1783"/>
			<point x="448" y="1793"/>
			<point x="448" y="1799" type="curve" smooth="yes"/>
			<point x="448" y="1814"/>
			<point x="437" y="1828"/>
			<point x="417" y="1828" type="curve" smooth="yes"/>
			<point x="406" y="1828"/>
			<point x="398" y="1824"/>
			<point x="372" y="1810" type="curve" smooth="yes"/>
			<point x="320" y="1782"/>
			<point x="222" y="1730"/>
			<point x="129" y="1684" type="curve" smooth="yes"/>
			<point x="101" y="1670"/>
			<point x="90" y="1659"/>
			<point x="90" y="1641" type="curve" smooth="yes"/>
			<point x="90" y="1623"/>
			<point x="104" y="1606"/>
			<point x="117" y="1606" type="curve" smooth="yes"/>
			<point x="124" y="1606"/>
			<point x="132" y="1608"/>
			<point x="153" y="1618" type="curve" smooth="yes"/>
			<point x="246" y="1662"/>
			<point x="317" y="1699"/>
			<point x="374" y="1731" type="curve"/>
			<point x="358" y="1736" type="line"/>
			<point x="171" y="1051" type="line" smooth="yes"/>
			<point x="167" y="1036"/>
			<point x="164" y="1018"/>
			<point x="164" y="1013" type="curve" smooth="yes"/>
			<point x="164" y="996"/>
			<point x="175" y="989"/>
		</contour>
	</outline>
</glyph>
<glyph name="Thorn" format="2">
	<unicode hex="00DE"/>
	<advance width="1282"/>
	<outline>
		<contour>
			<point x="388" y="184" type="curve" smooth="yes"/>
			<point x="369" y="184"/>
			<point x="362" y="173"/>
			<point x="362" y="157" type="curve" smooth="yes"/>
			<point x="362" y="139"/>
			<point x="368" y="120"/>
			<point x="384" y="96" type="curve" smooth="yes"/>
			<point x="426" y="33"/>
			<point x="490" y="-12"/>
			<point x="585" y="-12" type="curve" smooth="yes"/>
			<point x="820" y="-12"/>
			<point x="1132" y="336"/>
			<point x="1132" y="812" type="curve" smooth="yes"/>
			<point x="1132" y="1052"/>
			<point x="1032" y="1162"/>
			<point x="884" y="1162" type="curve" smooth="yes"/>
			<point x="721" y="1162"/>
			<point x="567" y="1009"/>
			<point x="446" y="739" type="curve"/>
			<point x="453" y="738" type="line"/>
			<point x="520" y="1047"/>
			<point x="583" y="1293"/>
			<point x="621" y="1440" type="curve" smooth="yes"/>
			<point x="643" y="1526"/>
			<point x="656" y="1578"/>
			<point x="656" y="1587" type="curve" smooth="yes"/>
			<point x="656" y="1610"/>
			<point x="641" y="1624"/>
			<point x="616" y="1624" type="curve" smooth="yes"/>
			<point x="596" y="1624"/>
			<point x="585" y="1612"/>
			<point x="563" y="1533" type="curve" smooth="yes"/>
			<point x="505" y="1321"/>
			<point x="385" y="739"/>
			<point x="335" y="494" type="curve"/>
			<point x="199" y="33"/>
			<point x="110" y="-387"/>
			<point x="110" y="-538" type="curve" smooth="yes"/>
			<point x="110" y="-584"/>
			<point x="122" y="-612"/>
			<point x="154" y="-612" type="curve" smooth="yes"/>
			<point x="184" y="-612"/>
			<point x="204" y="-599"/>
			<point x="212" y="-545" type="curve" smooth="yes"/>
			<point x="252" y="-258"/>
			<point x="282" y="-57"/>
			<point x="344" y="248" type="curve"/>
			<point x="420" y="529"/>
			<point x="469" y="667"/>
			<point x="544" y="804" type="curve" smooth="yes"/>
			<point x="638" y="976"/>
			<point x="759" y="1087"/>
			<point x="864" y="1087" type="curve" smooth="yes"/>
			<point x="984" y="1087"/>
			<point x="1052" y="992"/>
			<point x="1052" y="792" type="curve" smooth="yes"/>
			<point x="1052" y="386"/>
			<point x="781" y="63"/>
			<point x="585" y="63" type="curve" smooth="yes"/>
			<point x="518" y="63"/>
			<point x="471" y="90"/>
			<point x="422" y="159" type="curve" smooth="yes"/>
			<point x="410" y="176"/>
			<point x="401" y="184"/>
		</contour>
	</outline>
</glyph>
<glyph name="germandbls" format="2">
	<unicode hex="00DF"/>
	<advance width="984"/>
	<outline>
		<contour>
			<point x="372" y="-45" type="curve" smooth="yes"/>
			<point x="385" y="-45"/>
			<point x="400" y="-43"/>
			<point x="425" y="-38" type="curve" smooth="yes"/>
			<point x="699" y="17"/>
			<point x="853" y="130"/>
			<point x="853" y="294" type="curve" smooth="yes"/>
			<point x="853" y="384"/>
			<point x="809" y="447"/>
			<point x="697" y="544" type="curve" smooth="yes"/>
			<point x="600" y="628"/>
			<point x="576" y="662"/>
			<point x="576" y="716" type="curve" smooth="yes"/>
			<point x="576" y="772"/>
			<point x="598" y="810"/>
			<point x="733" y="958" type="curve" smooth="yes"/>
			<point x="863" y="1100"/>
			<point x="907" y="1183"/>
			<point x="907" y="1264" type="curve" smooth="yes"/>
			<point x="907" y="1375"/>
			<point x="821" y="1425"/>
			<point x="733" y="1425" type="curve" smooth="yes"/>
			<point x="554" y="1425"/>
			<point x="429" y="1304"/>
			<point x="306" y="850" type="curve"/>
			<point x="303" y="852"/>
			<point x="296" y="854"/>
			<point x="290" y="854" type="curve" smooth="yes"/>
			<point x="272" y="854"/>
			<point x="261" y="837"/>
			<point x="257" y="808" type="curve"/>
			<point x="253" y="658"/>
			<point x="242" y="559"/>
			<point x="225" y="446" type="curve"/>
			<point x="173" y="253"/>
			<point x="120" y="36"/>
			<point x="120" y="-17" type="curve" smooth="yes"/>
			<point x="120" y="-43"/>
			<point x="150" y="-51"/>
			<point x="167" y="-51" type="curve" smooth="yes"/>
			<point x="183" y="-51"/>
			<point x="191" y="-45"/>
			<point x="197" y="-23" type="curve" smooth="yes"/>
			<point x="246" y="158"/>
			<point x="284" y="352"/>
			<point x="308" y="540" type="curve"/>
			<point x="353" y="771" type="line" smooth="yes"/>
			<point x="451" y="1201"/>
			<point x="580" y="1350"/>
			<point x="724" y="1350" type="curve" smooth="yes"/>
			<point x="787" y="1350"/>
			<point x="833" y="1319"/>
			<point x="833" y="1256" type="curve" smooth="yes"/>
			<point x="833" y="1196"/>
			<point x="799" y="1122"/>
			<point x="682" y="999" type="curve" smooth="yes"/>
			<point x="544" y="854"/>
			<point x="502" y="784"/>
			<point x="502" y="703" type="curve" smooth="yes"/>
			<point x="502" y="636"/>
			<point x="543" y="584"/>
			<point x="632" y="509" type="curve" smooth="yes"/>
			<point x="740" y="418"/>
			<point x="779" y="369"/>
			<point x="779" y="287" type="curve" smooth="yes"/>
			<point x="779" y="165"/>
			<point x="651" y="78"/>
			<point x="370" y="29" type="curve" smooth="yes"/>
			<point x="347" y="25"/>
			<point x="335" y="15"/>
			<point x="335" y="-6" type="curve" smooth="yes"/>
			<point x="335" y="-30"/>
			<point x="350" y="-45"/>
		</contour>
	</outline>
</glyph>
<glyph name="ae" format="2">
	<unicode hex="00E6"/>
	<advance width="1084"/>
	<outline>
		<contour>
			<point x="729" y="451" type="curve"/>
			<point x="722" y="387" type="line"/>
			<point x="962" y="399"/>
			<point x="1302" y="496"/>
			<point x="1302" y="748" type="curve" smooth="yes"/>
			<point x="1302" y="858"/>
			<point x="1227" y="925"/>
			<point x="1115" y="925" type="curve" smooth="yes"/>
			<point x="1009" y="925"/>
			<point x="903" y="866"/>
			<point x="796" y="741" type="curve"/>
			<point x="809" y="736" type="line"/>
			<point x="845" y="830"/>
			<point x="858" y="880"/>
			<point x="858" y="901" type="curve" smooth="yes"/>
			<point x="858" y="923"/>
			<point x="842" y="935"/>
			<point x="817" y="935" type="curve" smooth="yes"/>
			<point x="796" y="935"/>
			<point x="783" y="928"/>
			<point x="767" y="864" type="curve"/>
			<point x="662" y="911"/>
			<point x="573" y="935"/>
			<point x="515" y="935" type="curve" smooth="yes"/>
			<point x="287" y="935"/>
			<point x="65" y="604"/>
			<point x="65" y="248" type="curve" smooth="yes"/>
			<point x="65" y="73"/>
			<point x="127" y="-12"/>
			<point x="213" y="-12" type="curve" smooth="yes"/>
			<point x="373" y="-12"/>
			<point x="542" y="203"/>
			<point x="681" y="464" type="curve"/>
			<point x="666" y="467" type="line"/>
			<point x="658" y="431"/>
			<point x="652" y="386"/>
			<point x="652" y="350" type="curve" smooth="yes"/>
			<point x="652" y="138"/>
			<point x="792" y="-12"/>
			<point x="1012" y="-12" type="curve" smooth="yes"/>
			<point x="1061" y="-12"/>
			<point x="1074" y="9"/>
			<point x="1074" y="30" type="curve" smooth="yes"/>
			<point x="1074" y="52"/>
			<point x="1059" y="63"/>
			<point x="1036" y="63" type="curve" smooth="yes"/>
			<point x="839" y="63"/>
			<point x="732" y="166"/>
			<point x="732" y="353" type="curve" smooth="yes"/>
			<point x="732" y="603"/>
			<point x="914" y="853"/>
			<point x="1107" y="853" type="curve" smooth="yes"/>
			<point x="1180" y="853"/>
			<point x="1224" y="808"/>
			<point x="1224" y="736" type="curve" smooth="yes"/>
			<point x="1224" y="528"/>
			<point x="937" y="462"/>
		</contour>
		<contour>
			<point x="145" y="261" type="curve" smooth="yes"/>
			<point x="145" y="561"/>
			<point x="333" y="860"/>
			<point x="520" y="860" type="curve" smooth="yes"/>
			<point x="587" y="860"/>
			<point x="657" y="843"/>
			<point x="750" y="800" type="curve"/>
			<point x="740" y="765" type="line" smooth="yes"/>
			<point x="628" y="373"/>
			<point x="358" y="63"/>
			<point x="230" y="63" type="curve" smooth="yes"/>
			<point x="179" y="63"/>
			<point x="145" y="113"/>
		</contour>
	</outline>
	<anchor name="bottom" x="575" y="0"/>
	<anchor name="top" x="885" y="920"/>
</glyph>
<glyph name="eth" format="2">
	<unicode hex="00F0"/>
	<advance width="975"/>
	<outline>
		<contour>
			<point x="279" y="-12" type="curve" smooth="yes"/>
			<point x="532" y="-12"/>
			<point x="815" y="281"/>
			<point x="815" y="792" type="curve" smooth="yes"/>
			<point x="815" y="1047"/>
			<point x="735" y="1231"/>
			<point x="614" y="1345" type="curve" smooth="yes"/>
			<point x="573" y="1384"/>
			<point x="542" y="1400"/>
			<point x="522" y="1400" type="curve" smooth="yes"/>
			<point x="503" y="1400"/>
			<point x="488" y="1389"/>
			<point x="488" y="1370" type="curve" smooth="yes"/>
			<point x="488" y="1360"/>
			<point x="496" y="1351"/>
			<point x="519" y="1332" type="curve" smooth="yes"/>
			<point x="662" y="1211"/>
			<point x="735" y="1014"/>
			<point x="735" y="781" type="curve" smooth="yes"/>
			<point x="735" y="331"/>
			<point x="485" y="63"/>
			<point x="292" y="63" type="curve" smooth="yes"/>
			<point x="184" y="63"/>
			<point x="118" y="134"/>
			<point x="118" y="281" type="curve" smooth="yes"/>
			<point x="118" y="443"/>
			<point x="200" y="625"/>
			<point x="294" y="734" type="curve" smooth="yes"/>
			<point x="364" y="815"/>
			<point x="442" y="846"/>
			<point x="509" y="846" type="curve" smooth="yes"/>
			<point x="534" y="846"/>
			<point x="556" y="843"/>
			<point x="574" y="838" type="curve" smooth="yes"/>
			<point x="587" y="834"/>
			<point x="599" y="832"/>
			<point x="606" y="832" type="curve" smooth="yes"/>
			<point x="621" y="832"/>
			<point x="631" y="845"/>
			<point x="631" y="855" type="curve" smooth="yes"/>
			<point x="631" y="878"/>
			<point x="584" y="910"/>
			<point x="497" y="910" type="curve" smooth="yes"/>
			<point x="402" y="910"/>
			<point x="308" y="859"/>
			<point x="226" y="763" type="curve" smooth="yes"/>
			<point x="132" y="653"/>
			<point x="38" y="471"/>
			<point x="38" y="275" type="curve" smooth="yes"/>
			<point x="38" y="72"/>
			<point x="139" y="-12"/>
		</contour>
		<contour>
			<point x="457" y="1055" type="curve" smooth="yes"/>
			<point x="464" y="1055"/>
			<point x="471" y="1056"/>
			<point x="478" y="1057" type="curve" smooth="yes"/>
			<point x="557" y="1071"/>
			<point x="825" y="1163"/>
			<point x="884" y="1211" type="curve" smooth="yes"/>
			<point x="895" y="1220"/>
			<point x="903" y="1231"/>
			<point x="903" y="1243" type="curve" smooth="yes"/>
			<point x="903" y="1255"/>
			<point x="895" y="1271"/>
			<point x="877" y="1271" type="curve" smooth="yes"/>
			<point x="869" y="1271"/>
			<point x="864" y="1269"/>
			<point x="845" y="1260" type="curve" smooth="yes"/>
			<point x="745" y="1215"/>
			<point x="617" y="1163"/>
			<point x="451" y="1120" type="curve" smooth="yes"/>
			<point x="431" y="1115"/>
			<point x="426" y="1103"/>
			<point x="426" y="1091" type="curve" smooth="yes"/>
			<point x="426" y="1073"/>
			<point x="437" y="1055"/>
		</contour>
	</outline>
</glyph>
<glyph name="thorn" format="2">
	<unicode hex="00FE"/>
	<advance width="1099"/>
	<outline>
		<contour>
			<point x="343" y="61" type="curve" smooth="yes"/>
			<point x="318" y="61"/>
			<point x="300" y="47"/>
			<point x="300" y="20" type="curve" smooth="yes"/>
			<point x="300" y="-1"/>
			<point x="320" y="-12"/>
			<point x="339" y="-12" type="curve" smooth="yes"/>
			<point x="630" y="-12"/>
			<point x="909" y="346"/>
			<point x="909" y="676" type="curve" smooth="yes"/>
			<point x="909" y="857"/>
			<point x="832" y="935"/>
			<point x="720" y="935" type="curve" smooth="yes"/>
			<point x="551" y="935"/>
			<point x="400" y="802"/>
			<point x="236" y="481" type="curve"/>
			<point x="244" y="479" type="line"/>
			<point x="280" y="615"/>
			<point x="315" y="752"/>
			<point x="349" y="888" type="curve"/>
			<point x="445" y="1185"/>
			<point x="482" y="1313"/>
			<point x="482" y="1355" type="curve" smooth="yes"/>
			<point x="482" y="1384"/>
			<point x="466" y="1400"/>
			<point x="438" y="1400" type="curve" smooth="yes"/>
			<point x="418" y="1400"/>
			<point x="407" y="1394"/>
			<point x="383" y="1309" type="curve" smooth="yes"/>
			<point x="360" y="1227"/>
			<point x="346" y="1164"/>
			<point x="281" y="910" type="curve" smooth="yes"/>
			<point x="178" y="505"/>
			<point x="140" y="349"/>
			<point x="86" y="85" type="curve"/>
			<point x="33" y="-127"/>
			<point x="-11" y="-338"/>
			<point x="-11" y="-417" type="curve" smooth="yes"/>
			<point x="-11" y="-455"/>
			<point x="8" y="-470"/>
			<point x="33" y="-470" type="curve" smooth="yes"/>
			<point x="53" y="-470"/>
			<point x="70" y="-457"/>
			<point x="77" y="-423" type="curve" smooth="yes"/>
			<point x="86" y="-378"/>
			<point x="92" y="-334"/>
			<point x="104" y="-239" type="curve" smooth="yes"/>
			<point x="117" y="-136"/>
			<point x="141" y="10"/>
			<point x="173" y="142" type="curve" smooth="yes"/>
			<point x="252" y="469"/>
			<point x="497" y="860"/>
			<point x="696" y="860" type="curve" smooth="yes"/>
			<point x="776" y="860"/>
			<point x="829" y="795"/>
			<point x="829" y="663" type="curve" smooth="yes"/>
			<point x="829" y="370"/>
			<point x="593" y="61"/>
		</contour>
	</outline>
</glyph>
<glyph name="Eogonek" format="2">
	<unicode hex="0118"/>
	<advance width="1230"/>
	<outline>
		<contour>
			<point x="518" y="-12" type="curve" smooth="yes"/>
			<point x="592" y="-12"/>
			<point x="678" y="3"/>
			<point x="743" y="35" type="curve"/>
			<point x="720" y="39" type="line"/>
			<point x="588" y="-84"/>
			<point x="525" y="-189"/>
			<point x="525" y="-286" type="curve" smooth="yes"/>
			<point x="525" y="-344"/>
			<point x="560" y="-386"/>
			<point x="631" y="-386" type="curve" smooth="yes"/>
			<point x="694" y="-386"/>
			<point x="757" y="-353"/>
			<point x="798" y="-315" type="curve" smooth="yes"/>
			<point x="816" y="-298"/>
			<point x="820" y="-287"/>
			<point x="820" y="-280" type="curve" smooth="yes"/>
			<point x="820" y="-263"/>
			<point x="806" y="-255"/>
			<point x="793" y="-255" type="curve" smooth="yes"/>
			<point x="783" y="-255"/>
			<point x="774" y="-259"/>
			<point x="757" y="-270" type="curve" smooth="yes"/>
			<point x="721" y="-294"/>
			<point x="679" y="-309"/>
			<point x="652" y="-309" type="curve" smooth="yes"/>
			<point x="621" y="-309"/>
			<point x="605" y="-297"/>
			<point x="605" y="-266" type="curve" smooth="yes"/>
			<point x="605" y="-183"/>
			<point x="680" y="-54"/>
			<point x="842" y="73" type="curve" smooth="yes"/>
			<point x="884" y="106"/>
			<point x="915" y="130"/>
			<point x="953" y="166" type="curve" smooth="yes"/>
			<point x="976" y="188"/>
			<point x="983" y="204"/>
			<point x="983" y="215" type="curve" smooth="yes"/>
			<point x="983" y="229"/>
			<point x="972" y="238"/>
			<point x="958" y="238" type="curve" smooth="yes"/>
			<point x="946" y="238"/>
			<point x="933" y="226"/>
			<point x="907" y="203" type="curve" smooth="yes"/>
			<point x="801" y="109"/>
			<point x="667" y="63"/>
			<point x="539" y="63" type="curve" smooth="yes"/>
			<point x="311" y="63"/>
			<point x="166" y="179"/>
			<point x="166" y="378" type="curve" smooth="yes"/>
			<point x="166" y="591"/>
			<point x="339" y="781"/>
			<point x="592" y="833" type="curve"/>
			<point x="626" y="821"/>
			<point x="660" y="815"/>
			<point x="688" y="815" type="curve" smooth="yes"/>
			<point x="718" y="815"/>
			<point x="753" y="836"/>
			<point x="753" y="878" type="curve" smooth="yes"/>
			<point x="753" y="895"/>
			<point x="742" y="906"/>
			<point x="716" y="906" type="curve" smooth="yes"/>
			<point x="698" y="906"/>
			<point x="636" y="899"/>
			<point x="611" y="895" type="curve"/>
			<point x="491" y="945"/>
			<point x="413" y="1040"/>
			<point x="413" y="1173" type="curve" smooth="yes"/>
			<point x="413" y="1374"/>
			<point x="582" y="1550"/>
			<point x="788" y="1550" type="curve" smooth="yes"/>
			<point x="878" y="1550"/>
			<point x="959" y="1521"/>
			<point x="1027" y="1471" type="curve" smooth="yes"/>
			<point x="1057" y="1449"/>
			<point x="1065" y="1445"/>
			<point x="1078" y="1445" type="curve" smooth="yes"/>
			<point x="1092" y="1445"/>
			<point x="1110" y="1462"/>
			<point x="1110" y="1479" type="curve" smooth="yes"/>
			<point x="1110" y="1489"/>
			<point x="1105" y="1499"/>
			<point x="1071" y="1527" type="curve" smooth="yes"/>
			<point x="1002" y="1584"/>
			<point x="901" y="1625"/>
			<point x="792" y="1625" type="curve" smooth="yes"/>
			<point x="531" y="1625"/>
			<point x="335" y="1403"/>
			<point x="335" y="1182" type="curve" smooth="yes"/>
			<point x="335" y="1043"/>
			<point x="404" y="927"/>
			<point x="540" y="860" type="curve"/>
			<point x="542" y="878" type="line"/>
			<point x="304" y="826"/>
			<point x="90" y="614"/>
			<point x="90" y="363" type="curve" smooth="yes"/>
			<point x="90" y="118"/>
			<point x="267" y="-12"/>
		</contour>
	</outline>
	<anchor name="top" x="791" y="1600"/>
	<anchor name="topleft" x="451" y="1600"/>
</glyph>
<glyph name="eogonek" format="2">
	<unicode hex="0119"/>
	<advance width="918"/>
	<outline>
		<contour>
			<point x="157" y="450" type="curve"/>
			<point x="149" y="385" type="line"/>
			<point x="390" y="399"/>
			<point x="730" y="496"/>
			<point x="730" y="748" type="curve" smooth="yes"/>
			<point x="730" y="858"/>
			<point x="655" y="925"/>
			<point x="543" y="925" type="curve" smooth="yes"/>
			<point x="311" y="925"/>
			<point x="80" y="650"/>
			<point x="80" y="350" type="curve" smooth="yes"/>
			<point x="80" y="138"/>
			<point x="221" y="-12"/>
			<point x="412" y="-12" type="curve" smooth="yes"/>
			<point x="447" y="-12"/>
			<point x="486" y="0"/>
			<point x="509" y="11" type="curve"/>
			<point x="501" y="21" type="line"/>
			<point x="336" y="-112"/>
			<point x="280" y="-203"/>
			<point x="280" y="-286" type="curve" smooth="yes"/>
			<point x="280" y="-344"/>
			<point x="315" y="-386"/>
			<point x="386" y="-386" type="curve" smooth="yes"/>
			<point x="449" y="-386"/>
			<point x="513" y="-354"/>
			<point x="553" y="-315" type="curve" smooth="yes"/>
			<point x="571" y="-298"/>
			<point x="575" y="-287"/>
			<point x="575" y="-280" type="curve" smooth="yes"/>
			<point x="575" y="-263"/>
			<point x="561" y="-255"/>
			<point x="548" y="-255" type="curve" smooth="yes"/>
			<point x="538" y="-255"/>
			<point x="529" y="-259"/>
			<point x="512" y="-270" type="curve" smooth="yes"/>
			<point x="476" y="-294"/>
			<point x="434" y="-309"/>
			<point x="407" y="-309" type="curve" smooth="yes"/>
			<point x="376" y="-309"/>
			<point x="360" y="-297"/>
			<point x="360" y="-266" type="curve" smooth="yes"/>
			<point x="360" y="-203"/>
			<point x="422" y="-110"/>
			<point x="542" y="-12" type="curve" smooth="yes"/>
			<point x="669" y="92" type="line" smooth="yes"/>
			<point x="722" y="135"/>
			<point x="738" y="157"/>
			<point x="738" y="176" type="curve" smooth="yes"/>
			<point x="738" y="190"/>
			<point x="726" y="199"/>
			<point x="712" y="199" type="curve" smooth="yes"/>
			<point x="702" y="199"/>
			<point x="695" y="196"/>
			<point x="663" y="169" type="curve" smooth="yes"/>
			<point x="572" y="94"/>
			<point x="510" y="63"/>
			<point x="431" y="63" type="curve" smooth="yes"/>
			<point x="271" y="63"/>
			<point x="160" y="170"/>
			<point x="160" y="353" type="curve" smooth="yes"/>
			<point x="160" y="603"/>
			<point x="342" y="853"/>
			<point x="535" y="853" type="curve" smooth="yes"/>
			<point x="608" y="853"/>
			<point x="652" y="808"/>
			<point x="652" y="736" type="curve" smooth="yes"/>
			<point x="652" y="528"/>
			<point x="365" y="462"/>
		</contour>
	</outline>
	<anchor name="bottom" x="387" y="0"/>
	<anchor name="top" x="534" y="920"/>
</glyph>
<glyph name="ij" format="2">
	<unicode hex="0133"/>
	<advance width="834"/>
	<outline>
		<contour>
			<point x="699" y="36" type="curve"/>
			<point x="699" y="108" type="line"/>
			<point x="263" y="-97"/>
			<point x="176" y="-199"/>
			<point x="176" y="-319" type="curve" smooth="yes"/>
			<point x="176" y="-408"/>
			<point x="258" y="-470"/>
			<point x="373" y="-470" type="curve" smooth="yes"/>
			<point x="569" y="-470"/>
			<point x="723" y="-351"/>
			<point x="748" y="-123" type="curve" smooth="yes"/>
			<point x="756" y="-53"/>
			<point x="758" y="17"/>
			<point x="758" y="124" type="curve" smooth="yes"/>
			<point x="758" y="301"/>
			<point x="767" y="373"/>
			<point x="803" y="501" type="curve" smooth="yes"/>
			<point x="884" y="790"/>
			<point x="910" y="884"/>
			<point x="910" y="902" type="curve" smooth="yes"/>
			<point x="910" y="930"/>
			<point x="890" y="935"/>
			<point x="869" y="935" type="curve" smooth="yes"/>
			<point x="849" y="935"/>
			<point x="833" y="920"/>
			<point x="826" y="892" type="curve" smooth="yes"/>
			<point x="809" y="828"/>
			<point x="793" y="763"/>
			<point x="764" y="652" type="curve" smooth="yes"/>
			<point x="692" y="377"/>
			<point x="430" y="83"/>
			<point x="267" y="83" type="curve" smooth="yes"/>
			<point x="202" y="83"/>
			<point x="167" y="115"/>
			<point x="167" y="201" type="curve" smooth="yes"/>
			<point x="167" y="273"/>
			<point x="182" y="339"/>
			<point x="245" y="534" type="curve" smooth="yes"/>
			<point x="321" y="769"/>
			<point x="348" y="872"/>
			<point x="348" y="902" type="curve" smooth="yes"/>
			<point x="348" y="925"/>
			<point x="337" y="935"/>
			<point x="317" y="935" type="curve" smooth="yes"/>
			<point x="296" y="935"/>
			<point x="279" y="925"/>
			<point x="269" y="878" type="curve" smooth="yes"/>
			<point x="261" y="841"/>
			<point x="243" y="760"/>
			<point x="181" y="563" type="curve" smooth="yes"/>
			<point x="110" y="338"/>
			<point x="87" y="258"/>
			<point x="87" y="182" type="curve" smooth="yes"/>
			<point x="87" y="67"/>
			<point x="150" y="8"/>
			<point x="249" y="8" type="curve" smooth="yes"/>
			<point x="366" y="8"/>
			<point x="541" y="116"/>
			<point x="712" y="385" type="curve"/>
			<point x="703" y="393" type="line"/>
			<point x="688" y="305"/>
			<point x="685" y="213"/>
			<point x="685" y="129" type="curve" smooth="yes"/>
			<point x="685" y="37"/>
			<point x="681" y="-46"/>
			<point x="673" y="-116" type="curve" smooth="yes"/>
			<point x="650" y="-310"/>
			<point x="542" y="-395"/>
			<point x="385" y="-395" type="curve" smooth="yes"/>
			<point x="298" y="-395"/>
			<point x="251" y="-359"/>
			<point x="251" y="-310" type="curve" smooth="yes"/>
			<point x="251" y="-216"/>
			<point x="336" y="-131"/>
		</contour>
		<contour>
			<point x="377" y="1154" type="curve" smooth="yes"/>
			<point x="423" y="1154"/>
			<point x="465" y="1192"/>
			<point x="465" y="1243" type="curve" smooth="yes"/>
			<point x="465" y="1282"/>
			<point x="441" y="1307"/>
			<point x="401" y="1307" type="curve" smooth="yes"/>
			<point x="355" y="1307"/>
			<point x="315" y="1273"/>
			<point x="315" y="1221" type="curve" smooth="yes"/>
			<point x="315" y="1183"/>
			<point x="337" y="1154"/>
		</contour>
		<contour>
			<point x="929" y="1154" type="curve" smooth="yes"/>
			<point x="975" y="1154"/>
			<point x="1017" y="1192"/>
			<point x="1017" y="1243" type="curve" smooth="yes"/>
			<point x="1017" y="1282"/>
			<point x="993" y="1307"/>
			<point x="953" y="1307" type="curve" smooth="yes"/>
			<point x="907" y="1307"/>
			<point x="867" y="1273"/>
			<point x="867" y="1221" type="curve" smooth="yes"/>
			<point x="867" y="1183"/>
			<point x="889" y="1154"/>
		</contour>
	</outline>
	<anchor name="top" x="680" y="1307"/>
</glyph>
<glyph name="lslash" format="2">
	<unicode hex="0142"/>
	<advance width="266"/>
	<outline>
		<contour>
			<point x="360" y="938" type="curve"/>
			<point x="391" y="1028"/>
			<point x="411" y="1089"/>
			<point x="435" y="1181" type="curve" smooth="yes"/>
			<point x="450" y="1237"/>
			<point x="454" y="1259"/>
			<point x="454" y="1271" type="curve" smooth="yes"/>
			<point x="454" y="1302"/>
			<point x="433" y="1321"/>
			<point x="411" y="1321" type="curve" smooth="yes"/>
			<point x="391" y="1321"/>
			<point x="379" y="1310"/>
			<point x="361" y="1250" type="curve" smooth="yes"/>
			<point x="337" y="1170"/>
			<point x="303" y="1026"/>
			<point x="282" y="924" type="curve"/>
			<point x="123" y="388"/>
			<point x="90" y="223"/>
			<point x="90" y="119" type="curve" smooth="yes"/>
			<point x="90" y="27"/>
			<point x="134" y="-12"/>
			<point x="190" y="-12" type="curve" smooth="yes"/>
			<point x="223" y="-12"/>
			<point x="246" y="6"/>
			<point x="246" y="34" type="curve" smooth="yes"/>
			<point x="246" y="50"/>
			<point x="238" y="63"/>
			<point x="209" y="63" type="curve" smooth="yes"/>
			<point x="182" y="63"/>
			<point x="170" y="77"/>
			<point x="170" y="133" type="curve" smooth="yes"/>
			<point x="170" y="238"/>
			<point x="199" y="390"/>
		</contour>
		<contour>
			<point x="667" y="1505" type="curve" smooth="yes"/>
			<point x="527" y="1505"/>
			<point x="313" y="1497"/>
			<point x="266" y="1490" type="curve" smooth="yes"/>
			<point x="240" y="1486"/>
			<point x="228" y="1475"/>
			<point x="228" y="1455" type="curve" smooth="yes"/>
			<point x="228" y="1436"/>
			<point x="238" y="1422"/>
			<point x="265" y="1422" type="curve" smooth="yes"/>
			<point x="277" y="1422"/>
			<point x="324" y="1424"/>
			<point x="385" y="1428" type="curve" smooth="yes"/>
			<point x="485" y="1435"/>
			<point x="625" y="1441"/>
			<point x="722" y="1444" type="curve" smooth="yes"/>
			<point x="777" y="1446"/>
			<point x="791" y="1452"/>
			<point x="791" y="1466" type="curve" smooth="yes"/>
			<point x="791" y="1492"/>
			<point x="752" y="1505"/>
		</contour>
	</outline>
	<anchor name="top" x="475" y="1530"/>
</glyph>
<glyph name="Eng" format="2">
	<unicode hex="014A"/>
	<advance width="1459"/>
	<outline>
		<contour>
			<point x="149" y="-12" type="curve" smooth="yes"/>
			<point x="165" y="-12"/>
			<point x="178" y="-4"/>
			<point x="187" y="25" type="curve" smooth="yes"/>
			<point x="260" y="269"/>
			<point x="475" y="1052"/>
			<point x="561" y="1382" type="curve"/>
			<point x="530" y="1517" type="line"/>
			<point x="418" y="1106"/>
			<point x="186" y="294"/>
			<point x="123" y="82" type="curve" smooth="yes"/>
			<point x="113" y="48"/>
			<point x="110" y="37"/>
			<point x="110" y="22" type="curve" smooth="yes"/>
			<point x="110" y="1"/>
			<point x="128" y="-12"/>
		</contour>
		<contour>
			<point x="917" y="-134" type="curve" smooth="yes"/>
			<point x="1402" y="1505" type="line" smooth="yes"/>
			<point x="1414" y="1547"/>
			<point x="1419" y="1563"/>
			<point x="1419" y="1571" type="curve" smooth="yes"/>
			<point x="1419" y="1589"/>
			<point x="1400" y="1600"/>
			<point x="1380" y="1600" type="curve" smooth="yes"/>
			<point x="1362" y="1600"/>
			<point x="1351" y="1587"/>
			<point x="1344" y="1565" type="curve" smooth="yes"/>
			<point x="922" y="117" type="line"/>
			<point x="941" y="117" type="line"/>
			<point x="602" y="1542" type="line" smooth="yes"/>
			<point x="591" y="1587"/>
			<point x="582" y="1600"/>
			<point x="551" y="1600" type="curve" smooth="yes"/>
			<point x="528" y="1600"/>
			<point x="514" y="1587"/>
			<point x="514" y="1562" type="curve" smooth="yes"/>
			<point x="514" y="1543"/>
			<point x="521" y="1518"/>
			<point x="536" y="1455" type="curve" smooth="yes"/>
			<point x="880" y="9" type="line"/>
			<point x="846" y="-108" type="line" smooth="yes"/>
			<point x="723" y="-531"/>
			<point x="641" y="-615"/>
			<point x="505" y="-615" type="curve" smooth="yes"/>
			<point x="427" y="-615"/>
			<point x="370" y="-589"/>
			<point x="316" y="-553" type="curve" smooth="yes"/>
			<point x="299" y="-542"/>
			<point x="288" y="-535"/>
			<point x="276" y="-535" type="curve" smooth="yes"/>
			<point x="261" y="-535"/>
			<point x="247" y="-552"/>
			<point x="247" y="-568" type="curve" smooth="yes"/>
			<point x="247" y="-608"/>
			<point x="368" y="-690"/>
			<point x="518" y="-690" type="curve" smooth="yes"/>
			<point x="690" y="-690"/>
			<point x="789" y="-568"/>
		</contour>
	</outline>
</glyph>
<glyph name="eng" format="2">
	<unicode hex="014B"/>
	<advance width="1090"/>
	<outline>
		<contour>
			<point x="798" y="765" type="curve" smooth="yes"/>
			<point x="798" y="682"/>
			<point x="721" y="400"/>
			<point x="576" y="-110" type="curve" smooth="yes"/>
			<point x="512" y="-336"/>
			<point x="436" y="-395"/>
			<point x="349" y="-395" type="curve" smooth="yes"/>
			<point x="311" y="-395"/>
			<point x="269" y="-381"/>
			<point x="238" y="-355" type="curve" smooth="yes"/>
			<point x="219" y="-339"/>
			<point x="205" y="-332"/>
			<point x="193" y="-332" type="curve" smooth="yes"/>
			<point x="180" y="-332"/>
			<point x="168" y="-344"/>
			<point x="168" y="-361" type="curve" smooth="yes"/>
			<point x="168" y="-376"/>
			<point x="176" y="-393"/>
			<point x="192" y="-410" type="curve" smooth="yes"/>
			<point x="224" y="-444"/>
			<point x="278" y="-469"/>
			<point x="340" y="-469" type="curve" smooth="yes"/>
			<point x="474" y="-469"/>
			<point x="582" y="-396"/>
			<point x="655" y="-135" type="curve" smooth="yes"/>
			<point x="805" y="399"/>
			<point x="880" y="669"/>
			<point x="880" y="785" type="curve" smooth="yes"/>
			<point x="880" y="897"/>
			<point x="817" y="935"/>
			<point x="744" y="935" type="curve" smooth="yes"/>
			<point x="580" y="935"/>
			<point x="380" y="766"/>
			<point x="202" y="420" type="curve"/>
			<point x="210" y="417" type="line"/>
			<point x="336" y="837" type="line" smooth="yes"/>
			<point x="343" y="861"/>
			<point x="349" y="885"/>
			<point x="349" y="900" type="curve" smooth="yes"/>
			<point x="349" y="923"/>
			<point x="337" y="935"/>
			<point x="315" y="935" type="curve" smooth="yes"/>
			<point x="295" y="935"/>
			<point x="279" y="926"/>
			<point x="266" y="878" type="curve" smooth="yes"/>
			<point x="53" y="83" type="line" smooth="yes"/>
			<point x="43" y="46"/>
			<point x="40" y="33"/>
			<point x="40" y="25" type="curve" smooth="yes"/>
			<point x="40" y="0"/>
			<point x="61" y="-12"/>
			<point x="80" y="-12" type="curve" smooth="yes"/>
			<point x="101" y="-12"/>
			<point x="121" y="1"/>
			<point x="138" y="73" type="curve" smooth="yes"/>
			<point x="165" y="186"/>
			<point x="192" y="264"/>
			<point x="253" y="390" type="curve" smooth="yes"/>
			<point x="382" y="657"/>
			<point x="598" y="860"/>
			<point x="718" y="860" type="curve" smooth="yes"/>
			<point x="766" y="860"/>
			<point x="798" y="829"/>
		</contour>
	</outline>
	<anchor name="bottom" x="250" y="-470"/>
	<anchor name="top" x="585" y="920"/>
</glyph>
<glyph name="jdotless" format="2">
	<unicode hex="0237"/>
	<advance width="291"/>
	<outline>
		<contour>
			<point x="-361" y="-337" type="curve" smooth="yes"/>
			<point x="-361" y="-416"/>
			<point x="-302" y="-470"/>
			<point x="-221" y="-470" type="curve" smooth="yes"/>
			<point x="-40" y="-470"/>
			<point x="153" y="-300"/>
			<point x="194" y="73" type="curve" smooth="yes"/>
			<point x="209" y="207"/>
			<point x="239" y="403"/>
			<point x="284" y="607" type="curve" smooth="yes"/>
			<point x="336" y="842" type="line" smooth="yes"/>
			<point x="342" y="871"/>
			<point x="346" y="889"/>
			<point x="346" y="901" type="curve" smooth="yes"/>
			<point x="346" y="925"/>
			<point x="337" y="935"/>
			<point x="316" y="935" type="curve" smooth="yes"/>
			<point x="292" y="935"/>
			<point x="280" y="924"/>
			<point x="265" y="856" type="curve" smooth="yes"/>
			<point x="217" y="642" type="line" smooth="yes"/>
			<point x="174" y="446"/>
			<point x="136" y="220"/>
			<point x="111" y="38" type="curve" smooth="yes"/>
			<point x="72" y="-247"/>
			<point x="-65" y="-395"/>
			<point x="-204" y="-395" type="curve" smooth="yes"/>
			<point x="-259" y="-395"/>
			<point x="-286" y="-371"/>
			<point x="-286" y="-328" type="curve" smooth="yes"/>
			<point x="-286" y="-237"/>
			<point x="-196" y="-111"/>
			<point x="140" y="30" type="curve"/>
			<point x="145" y="105" type="line"/>
			<point x="-257" y="-66"/>
			<point x="-361" y="-219"/>
		</contour>
	</outline>
	<anchor name="top" x="317" y="920"/>
</glyph>
<glyph name="schwa" format="2">
	<unicode hex="0259"/>
	<advance width="803"/>
	<outline>
		<contour>
			<point x="584" y="558" type="curve"/>
			<point x="597" y="630" type="line"/>
			<point x="164" y="458"/>
			<point x="0" y="278"/>
			<point x="0" y="121" type="curve" smooth="yes"/>
			<point x="0" y="37"/>
			<point x="57" y="-12"/>
			<point x="132" y="-12" type="curve" smooth="yes"/>
			<point x="387" y="-12"/>
			<point x="663" y="345"/>
			<point x="663" y="685" type="curve" smooth="yes"/>
			<point x="663" y="856"/>
			<point x="588" y="935"/>
			<point x="462" y="935" type="curve" smooth="yes"/>
			<point x="372" y="935"/>
			<point x="281" y="897"/>
			<point x="201" y="827" type="curve" smooth="yes"/>
			<point x="172" y="802"/>
			<point x="166" y="794"/>
			<point x="166" y="778" type="curve" smooth="yes"/>
			<point x="166" y="764"/>
			<point x="181" y="748"/>
			<point x="194" y="748" type="curve" smooth="yes"/>
			<point x="206" y="748"/>
			<point x="215" y="753"/>
			<point x="242" y="776" type="curve" smooth="yes"/>
			<point x="302" y="827"/>
			<point x="374" y="857"/>
			<point x="445" y="857" type="curve" smooth="yes"/>
			<point x="529" y="857"/>
			<point x="578" y="814"/>
			<point x="578" y="675" type="curve" smooth="yes"/>
			<point x="578" y="400"/>
			<point x="350" y="66"/>
			<point x="143" y="66" type="curve" smooth="yes"/>
			<point x="98" y="66"/>
			<point x="76" y="87"/>
			<point x="76" y="133" type="curve" smooth="yes"/>
			<point x="76" y="250"/>
			<point x="205" y="393"/>
		</contour>
	</outline>
</glyph>
<glyph name="acutecomb" format="2">
	<unicode hex="0301"/>
	<outline>
		<contour>
			<point x="74" y="1085" type="curve" smooth="yes"/>
			<point x="97" y="1085"/>
			<point x="159" y="1111"/>
			<point x="299" y="1244" type="curve" smooth="yes"/>
			<point x="405" y="1345"/>
			<point x="423" y="1381"/>
			<point x="423" y="1405" type="curve" smooth="yes"/>
			<point x="423" y="1424"/>
			<point x="411" y="1441"/>
			<point x="390" y="1441" type="curve" smooth="yes"/>
			<point x="378" y="1441"/>
			<point x="364" y="1436"/>
			<point x="284" y="1350" type="curve" smooth="yes"/>
			<point x="160" y="1218"/>
			<point x="117" y="1181"/>
			<point x="74" y="1144" type="curve" smooth="yes"/>
			<point x="55" y="1128"/>
			<point x="50" y="1119"/>
			<point x="50" y="1108" type="curve" smooth="yes"/>
			<point x="50" y="1092"/>
			<point x="62" y="1085"/>
		</contour>
	</outline>
	<anchor name="_top" x="68" y="920"/>
	<anchor name="top" x="209" y="1440"/>
</glyph>
<glyph name="macroncomb" format="2">
	<unicode hex="0304"/>
	<outline>
		<contour>
			<point x="263" y="1153" type="curve" smooth="yes"/>
			<point x="391" y="1153"/>
			<point x="459" y="1154"/>
			<point x="495" y="1165" type="curve" smooth="yes"/>
			<point x="516" y="1171"/>
			<point x="526" y="1182"/>
			<point x="526" y="1204" type="curve" smooth="yes"/>
			<point x="526" y="1214"/>
			<point x="517" y="1227"/>
			<point x="495" y="1227" type="curve" smooth="yes"/>
			<point x="467" y="1227"/>
			<point x="378" y="1223"/>
			<point x="299" y="1223" type="curve" smooth="yes"/>
			<point x="222" y="1223"/>
			<point x="116" y="1229"/>
			<point x="97" y="1229" type="curve" smooth="yes"/>
			<point x="70" y="1229"/>
			<point x="60" y="1215"/>
			<point x="60" y="1196" type="curve" smooth="yes"/>
			<point x="60" y="1176"/>
			<point x="72" y="1165"/>
			<point x="98" y="1161" type="curve" smooth="yes"/>
			<point x="129" y="1156"/>
			<point x="205" y="1153"/>
		</contour>
	</outline>
	<anchor name="_center" x="277" y="1191"/>
	<anchor name="_top" x="213" y="920"/>
	<anchor name="top" x="289" y="1227"/>
	<guideline x="-877" y="1110" angle="0"/>
</glyph>
<glyph name="ringcomb" format="2">
	<unicode hex="030A"/>
	<outline>
		<contour>
			<point x="190" y="1085" type="curve" smooth="yes"/>
			<point x="299" y="1085"/>
			<point x="393" y="1174"/>
			<point x="393" y="1281" type="curve" smooth="yes"/>
			<point x="393" y="1364"/>
			<point x="343" y="1417"/>
			<point x="254" y="1417" type="curve" smooth="yes"/>
			<point x="142" y="1417"/>
			<point x="50" y="1328"/>
			<point x="50" y="1221" type="curve" smooth="yes"/>
			<point x="50" y="1138"/>
			<point x="100" y="1085"/>
		</contour>
		<contour>
			<point x="196" y="1150" type="curve" smooth="yes"/>
			<point x="147" y="1150"/>
			<point x="120" y="1180"/>
			<point x="120" y="1227" type="curve" smooth="yes"/>
			<point x="120" y="1292"/>
			<point x="174" y="1352"/>
			<point x="242" y="1352" type="curve" smooth="yes"/>
			<point x="293" y="1352"/>
			<point x="323" y="1324"/>
			<point x="323" y="1273" type="curve" smooth="yes"/>
			<point x="323" y="1202"/>
			<point x="262" y="1150"/>
		</contour>
	</outline>
	<anchor name="_top" x="134" y="920"/>
	<anchor name="top" x="254" y="1417"/>
</glyph>
<glyph name="emdash" format="2">
	<unicode hex="2014"/>
	<advance width="2287"/>
	<outline>
		<contour>
			<point x="195" y="630" type="curve" smooth="yes"/>
			<point x="829" y="630"/>
			<point x="1540" y="628"/>
			<point x="2077" y="651" type="curve" smooth="yes"/>
			<point x="2119" y="653"/>
			<point x="2137" y="666"/>
			<point x="2137" y="687" type="curve" smooth="yes"/>
			<point x="2137" y="703"/>
			<point x="2122" y="714"/>
			<point x="2097" y="714" type="curve" smooth="yes"/>
			<point x="2075" y="714"/>
			<point x="2071" y="714"/>
			<point x="1959" y="712" type="curve" smooth="yes"/>
			<point x="1665" y="707"/>
			<point x="867" y="702"/>
			<point x="195" y="702" type="curve" smooth="yes"/>
			<point x="166" y="702"/>
			<point x="150" y="687"/>
			<point x="150" y="667" type="curve" smooth="yes"/>
			<point x="150" y="646"/>
			<point x="166" y="630"/>
		</contour>
	</outline>
</glyph>
<glyph name="dagger" format="2">
	<unicode hex="2020"/>
	<advance width="660"/>
	<outline>
		<contour>
			<point x="119" y="1266" type="curve" smooth="yes"/>
			<point x="185" y="1259"/>
			<point x="246" y="1259"/>
			<point x="313" y="1258" type="curve" smooth="yes"/>
			<point x="430" y="1259"/>
			<point x="507" y="1266"/>
			<point x="543" y="1277" type="curve" smooth="yes"/>
			<point x="567" y="1284"/>
			<point x="580" y="1293"/>
			<point x="580" y="1315" type="curve" smooth="yes"/>
			<point x="580" y="1322"/>
			<point x="574" y="1335"/>
			<point x="551" y="1335" type="curve" smooth="yes"/>
			<point x="541" y="1335"/>
			<point x="513" y="1334"/>
			<point x="481" y="1332" type="curve" smooth="yes"/>
			<point x="435" y="1329"/>
			<point x="374" y="1328"/>
			<point x="327" y="1328" type="curve" smooth="yes"/>
			<point x="241" y="1329"/>
			<point x="204" y="1330"/>
			<point x="158" y="1333" type="curve" smooth="yes"/>
			<point x="134" y="1335"/>
			<point x="121" y="1336"/>
			<point x="111" y="1336" type="curve" smooth="yes"/>
			<point x="90" y="1336"/>
			<point x="80" y="1322"/>
			<point x="80" y="1304" type="curve" smooth="yes"/>
			<point x="80" y="1283"/>
			<point x="91" y="1269"/>
		</contour>
		<contour>
			<point x="335" y="1561" type="curve" smooth="yes"/>
			<point x="306" y="1435"/>
			<point x="235" y="1071"/>
			<point x="196" y="871" type="curve" smooth="yes"/>
			<point x="174" y="758"/>
			<point x="168" y="707"/>
			<point x="168" y="683" type="curve" smooth="yes"/>
			<point x="168" y="662"/>
			<point x="172" y="642"/>
			<point x="188" y="642" type="curve" smooth="yes"/>
			<point x="207" y="642"/>
			<point x="218" y="650"/>
			<point x="250" y="806" type="curve" smooth="yes"/>
			<point x="289" y="1000"/>
			<point x="380" y="1399"/>
			<point x="412" y="1526" type="curve" smooth="yes"/>
			<point x="424" y="1571"/>
			<point x="426" y="1588"/>
			<point x="426" y="1596" type="curve" smooth="yes"/>
			<point x="426" y="1612"/>
			<point x="400" y="1625"/>
			<point x="379" y="1625" type="curve" smooth="yes"/>
			<point x="358" y="1625"/>
			<point x="347" y="1614"/>
		</contour>
	</outline>
</glyph>
<glyph name="guilsinglright" format="2">
	<unicode hex="203A"/>
	<advance width="760"/>
	<outline>
		<contour>
			<point x="357" y="880" type="curve" smooth="yes"/>
			<point x="337" y="880"/>
			<point x="321" y="860"/>
			<point x="321" y="844" type="curve" smooth="yes"/>
			<point x="321" y="834"/>
			<point x="324" y="826"/>
			<point x="349" y="784" type="curve" smooth="yes"/>
			<point x="409" y="686"/>
			<point x="512" y="558"/>
			<point x="556" y="511" type="curve"/>
			<point x="553" y="551" type="line"/>
			<point x="415" y="449"/>
			<point x="285" y="355"/>
			<point x="183" y="240" type="curve" smooth="yes"/>
			<point x="158" y="211"/>
			<point x="150" y="199"/>
			<point x="150" y="187" type="curve" smooth="yes"/>
			<point x="150" y="166"/>
			<point x="169" y="149"/>
			<point x="190" y="149" type="curve" smooth="yes"/>
			<point x="199" y="149"/>
			<point x="208" y="155"/>
			<point x="221" y="170" type="curve" smooth="yes"/>
			<point x="318" y="285"/>
			<point x="448" y="401"/>
			<point x="553" y="472" type="curve" smooth="yes"/>
			<point x="591" y="498"/>
			<point x="600" y="513"/>
			<point x="600" y="531" type="curve" smooth="yes"/>
			<point x="600" y="548"/>
			<point x="591" y="561"/>
			<point x="565" y="595" type="curve" smooth="yes"/>
			<point x="519" y="655"/>
			<point x="448" y="756"/>
			<point x="397" y="843" type="curve" smooth="yes"/>
			<point x="379" y="874"/>
			<point x="369" y="880"/>
		</contour>
	</outline>
</glyph>
<glyph name="foursuperior" format="2">
	<unicode hex="2074"/>
	<advance width="743"/>
	<outline>
		<contour>
			<point x="108" y="1229" type="curve" smooth="yes"/>
			<point x="650" y="1229" type="line" smooth="yes"/>
			<point x="678" y="1229"/>
			<point x="693" y="1246"/>
			<point x="693" y="1269" type="curve" smooth="yes"/>
			<point x="693" y="1290"/>
			<point x="683" y="1305"/>
			<point x="656" y="1305" type="curve" smooth="yes"/>
			<point x="650" y="1305"/>
			<point x="626" y="1305"/>
			<point x="593" y="1304" type="curve" smooth="yes"/>
			<point x="102" y="1294" type="line"/>
			<point x="114" y="1271" type="line"/>
			<point x="229" y="1417"/>
			<point x="363" y="1602"/>
			<point x="459" y="1751" type="curve" smooth="yes"/>
			<point x="475" y="1776"/>
			<point x="479" y="1789"/>
			<point x="479" y="1797" type="curve" smooth="yes"/>
			<point x="479" y="1815"/>
			<point x="462" y="1828"/>
			<point x="439" y="1828" type="curve" smooth="yes"/>
			<point x="424" y="1828"/>
			<point x="414" y="1820"/>
			<point x="399" y="1796" type="curve" smooth="yes"/>
			<point x="300" y="1638"/>
			<point x="182" y="1468"/>
			<point x="86" y="1342" type="curve" smooth="yes"/>
			<point x="62" y="1311"/>
			<point x="53" y="1295"/>
			<point x="53" y="1277" type="curve" smooth="yes"/>
			<point x="53" y="1247"/>
			<point x="72" y="1229"/>
		</contour>
		<contour>
			<point x="403" y="1030" type="curve" smooth="yes"/>
			<point x="524" y="1464" type="line" smooth="yes"/>
			<point x="527" y="1475"/>
			<point x="531" y="1494"/>
			<point x="531" y="1498" type="curve" smooth="yes"/>
			<point x="531" y="1516"/>
			<point x="515" y="1524"/>
			<point x="492" y="1524" type="curve" smooth="yes"/>
			<point x="468" y="1524"/>
			<point x="463" y="1509"/>
			<point x="454" y="1476" type="curve" smooth="yes"/>
			<point x="341" y="1078" type="line" smooth="yes"/>
			<point x="331" y="1042"/>
			<point x="327" y="1029"/>
			<point x="327" y="1019" type="curve" smooth="yes"/>
			<point x="327" y="998"/>
			<point x="343" y="989"/>
			<point x="366" y="989" type="curve" smooth="yes"/>
			<point x="383" y="989"/>
			<point x="394" y="998"/>
		</contour>
	</outline>
</glyph>
<glyph name="fivesuperior" format="2">
	<unicode hex="2075"/>
	<advance width="800"/>
	<outline>
		<contour>
			<point x="288" y="988" type="curve" smooth="yes"/>
			<point x="501" y="988"/>
			<point x="665" y="1128"/>
			<point x="665" y="1313" type="curve" smooth="yes"/>
			<point x="665" y="1437"/>
			<point x="576" y="1513"/>
			<point x="459" y="1513" type="curve" smooth="yes"/>
			<point x="395" y="1513"/>
			<point x="325" y="1498"/>
			<point x="243" y="1470" type="curve"/>
			<point x="259" y="1460" type="line"/>
			<point x="337" y="1741" type="line"/>
			<point x="711" y="1741" type="line" smooth="yes"/>
			<point x="745" y="1741"/>
			<point x="765" y="1756"/>
			<point x="765" y="1783" type="curve" smooth="yes"/>
			<point x="765" y="1808"/>
			<point x="752" y="1818"/>
			<point x="724" y="1818" type="curve" smooth="yes"/>
			<point x="326" y="1818" type="line" smooth="yes"/>
			<point x="299" y="1818"/>
			<point x="283" y="1809"/>
			<point x="276" y="1783" type="curve" smooth="yes"/>
			<point x="198" y="1502" type="line" smooth="yes"/>
			<point x="193" y="1483"/>
			<point x="188" y="1465"/>
			<point x="188" y="1453" type="curve" smooth="yes"/>
			<point x="188" y="1432"/>
			<point x="207" y="1409"/>
			<point x="233" y="1409" type="curve" smooth="yes"/>
			<point x="248" y="1409"/>
			<point x="261" y="1413"/>
			<point x="280" y="1418" type="curve" smooth="yes"/>
			<point x="341" y="1434"/>
			<point x="392" y="1443"/>
			<point x="438" y="1443" type="curve" smooth="yes"/>
			<point x="524" y="1443"/>
			<point x="585" y="1391"/>
			<point x="585" y="1296" type="curve" smooth="yes"/>
			<point x="585" y="1170"/>
			<point x="459" y="1063"/>
			<point x="301" y="1063" type="curve" smooth="yes"/>
			<point x="218" y="1063"/>
			<point x="159" y="1080"/>
			<point x="106" y="1106" type="curve" smooth="yes"/>
			<point x="94" y="1112"/>
			<point x="87" y="1115"/>
			<point x="80" y="1115" type="curve" smooth="yes"/>
			<point x="64" y="1115"/>
			<point x="45" y="1089"/>
			<point x="45" y="1069" type="curve" smooth="yes"/>
			<point x="45" y="1060"/>
			<point x="50" y="1050"/>
			<point x="72" y="1038" type="curve" smooth="yes"/>
			<point x="118" y="1012"/>
			<point x="199" y="988"/>
		</contour>
	</outline>
</glyph>
<glyph name="sixsuperior" format="2">
	<unicode hex="2076"/>
	<advance width="784"/>
	<outline>
		<contour>
			<point x="313" y="989" type="curve" smooth="yes"/>
			<point x="488" y="989"/>
			<point x="663" y="1162"/>
			<point x="663" y="1346" type="curve" smooth="yes"/>
			<point x="663" y="1461"/>
			<point x="596" y="1525"/>
			<point x="495" y="1525" type="curve" smooth="yes"/>
			<point x="375" y="1525"/>
			<point x="255" y="1455"/>
			<point x="148" y="1345" type="curve"/>
			<point x="176" y="1305" type="line"/>
			<point x="278" y="1398"/>
			<point x="385" y="1450"/>
			<point x="470" y="1450" type="curve" smooth="yes"/>
			<point x="541" y="1450"/>
			<point x="583" y="1406"/>
			<point x="583" y="1327" type="curve" smooth="yes"/>
			<point x="583" y="1199"/>
			<point x="447" y="1064"/>
			<point x="326" y="1064" type="curve" smooth="yes"/>
			<point x="236" y="1064"/>
			<point x="179" y="1124"/>
			<point x="179" y="1259" type="curve" smooth="yes"/>
			<point x="179" y="1508"/>
			<point x="368" y="1753"/>
			<point x="566" y="1753" type="curve" smooth="yes"/>
			<point x="602" y="1753"/>
			<point x="633" y="1746"/>
			<point x="665" y="1734" type="curve" smooth="yes"/>
			<point x="680" y="1728"/>
			<point x="687" y="1726"/>
			<point x="697" y="1726" type="curve" smooth="yes"/>
			<point x="714" y="1726"/>
			<point x="730" y="1748"/>
			<point x="730" y="1767" type="curve" smooth="yes"/>
			<point x="730" y="1781"/>
			<point x="717" y="1793"/>
			<point x="695" y="1804" type="curve" smooth="yes"/>
			<point x="669" y="1817"/>
			<point x="631" y="1828"/>
			<point x="579" y="1828" type="curve" smooth="yes"/>
			<point x="326" y="1828"/>
			<point x="100" y="1551"/>
			<point x="100" y="1255" type="curve" smooth="yes"/>
			<point x="100" y="1084"/>
			<point x="192" y="989"/>
		</contour>
	</outline>
</glyph>
<glyph name="gClef-musical" format="2">
	<unicode hex="1D11E"/>
	<advance width="1148"/>
	<outline>
		<contour>
			<point x="565" y="1083" type="curve" smooth="yes"/>
			<point x="565" y="783"/>
			<point x="640" y="255"/>
			<point x="640" y="-34" type="curve" smooth="yes"/>
			<point x="640" y="-423"/>
			<point x="501" y="-615"/>
			<point x="351" y="-615" type="curve" smooth="yes"/>
			<point x="262" y="-615"/>
			<point x="220" y="-565"/>
			<point x="220" y="-490" type="curve" smooth="yes"/>
			<point x="220" y="-421"/>
			<point x="267" y="-362"/>
			<point x="304" y="-324" type="curve" smooth="yes"/>
			<point x="323" y="-305"/>
			<point x="332" y="-293"/>
			<point x="332" y="-281" type="curve" smooth="yes"/>
			<point x="332" y="-270"/>
			<point x="323" y="-261"/>
			<point x="309" y="-261" type="curve" smooth="yes"/>
			<point x="299" y="-261"/>
			<point x="286" y="-266"/>
			<point x="269" y="-278" type="curve" smooth="yes"/>
			<point x="198" y="-328"/>
			<point x="150" y="-418"/>
			<point x="150" y="-504" type="curve" smooth="yes"/>
			<point x="150" y="-606"/>
			<point x="221" y="-685"/>
			<point x="335" y="-685" type="curve" smooth="yes"/>
			<point x="557" y="-685"/>
			<point x="710" y="-470"/>
			<point x="710" y="-42" type="curve" smooth="yes"/>
			<point x="710" y="313"/>
			<point x="639" y="716"/>
			<point x="639" y="1114" type="curve" smooth="yes"/>
			<point x="639" y="1419"/>
			<point x="723" y="1555"/>
			<point x="830" y="1555" type="curve" smooth="yes"/>
			<point x="871" y="1555"/>
			<point x="897" y="1523"/>
			<point x="897" y="1439" type="curve" smooth="yes"/>
			<point x="897" y="989"/>
			<point x="151" y="896"/>
			<point x="151" y="318" type="curve" smooth="yes"/>
			<point x="151" y="71"/>
			<point x="321" y="-75"/>
			<point x="536" y="-75" type="curve" smooth="yes"/>
			<point x="774" y="-75"/>
			<point x="999" y="107"/>
			<point x="999" y="367" type="curve" smooth="yes"/>
			<point x="999" y="553"/>
			<point x="873" y="659"/>
			<point x="712" y="659" type="curve" smooth="yes"/>
			<point x="583" y="659"/>
			<point x="367" y="559"/>
			<point x="367" y="342" type="curve" smooth="yes"/>
			<point x="367" y="220"/>
			<point x="448" y="155"/>
			<point x="496" y="155" type="curve" smooth="yes"/>
			<point x="517" y="155"/>
			<point x="529" y="167"/>
			<point x="529" y="182" type="curve" smooth="yes"/>
			<point x="529" y="194"/>
			<point x="521" y="202"/>
			<point x="506" y="209" type="curve" smooth="yes"/>
			<point x="462" y="229"/>
			<point x="436" y="270"/>
			<point x="436" y="335" type="curve" smooth="yes"/>
			<point x="436" y="517"/>
			<point x="615" y="589"/>
			<point x="703" y="589" type="curve" smooth="yes"/>
			<point x="831" y="589"/>
			<point x="921" y="510"/>
			<point x="921" y="359" type="curve" smooth="yes"/>
			<point x="921" y="137"/>
			<point x="750" y="-5"/>
			<point x="550" y="-5" type="curve" smooth="yes"/>
			<point x="365" y="-5"/>
			<point x="229" y="108"/>
			<point x="229" y="328" type="curve" smooth="yes"/>
			<point x="229" y="883"/>
			<point x="975" y="950"/>
			<point x="975" y="1451" type="curve" smooth="yes"/>
			<point x="975" y="1563"/>
			<point x="927" y="1625"/>
			<point x="840" y="1625" type="curve" smooth="yes"/>
			<point x="682" y="1625"/>
			<point x="565" y="1478"/>
		</contour>
	</outline>
</glyph>
<glyph name="whiteRightBackhandIndex" format="2">
	<unicode hex="1F449"/>
	<advance width="5326"/>
	<outline>
		<contour>
			<point x="2989" y="-716" type="curve" smooth="yes"/>
			<point x="3094" y="-716"/>
			<point x="3174" y="-617"/>
			<point x="3201" y="-548" type="curve"/>
			<point x="3258" y="-545"/>
			<point x="3336" y="-515"/>
			<point x="3426" y="-441" type="curve" smooth="yes"/>
			<point x="3550" y="-340"/>
			<point x="3643" y="-157"/>
			<point x="3643" y="6" type="curve" smooth="yes"/>
			<point x="3643" y="27"/>
			<point x="3642" y="37"/>
			<point x="3641" y="46" type="curve"/>
			<point x="3690" y="169"/>
			<point x="3739" y="340"/>
			<point x="3739" y="490" type="curve" smooth="yes"/>
			<point x="3739" y="563"/>
			<point x="3725" y="602"/>
			<point x="3669" y="686" type="curve"/>
			<point x="3896" y="765"/>
			<point x="3988" y="882"/>
			<point x="3993" y="998" type="curve"/>
			<point x="4425" y="998" type="line"/>
			<point x="4583" y="926"/>
			<point x="4723" y="893"/>
			<point x="4838" y="893" type="curve" smooth="yes"/>
			<point x="5049" y="893"/>
			<point x="5176" y="994"/>
			<point x="5176" y="1119" type="curve" smooth="yes"/>
			<point x="5176" y="1223"/>
			<point x="5120" y="1290"/>
			<point x="4975" y="1327" type="curve" smooth="yes"/>
			<point x="4846" y="1360"/>
			<point x="4741" y="1392"/>
			<point x="4623" y="1458" type="curve" smooth="yes"/>
			<point x="4562" y="1492"/>
			<point x="3760" y="1540"/>
			<point x="3529" y="1553" type="curve" smooth="yes"/>
			<point x="3371" y="1562"/>
			<point x="3322" y="1565"/>
			<point x="3273" y="1569" type="curve" smooth="yes"/>
			<point x="3251" y="1571"/>
			<point x="3202" y="1589"/>
			<point x="3140" y="1615" type="curve" smooth="yes"/>
			<point x="3028" y="1662"/>
			<point x="2875" y="1716"/>
			<point x="2751" y="1723" type="curve" smooth="yes"/>
			<point x="2611" y="1731"/>
			<point x="2341" y="1739"/>
			<point x="2093" y="1739" type="curve" smooth="yes"/>
			<point x="1783" y="1739"/>
			<point x="1465" y="1726"/>
			<point x="1344" y="1675" type="curve" smooth="yes"/>
			<point x="1206" y="1617"/>
			<point x="920" y="1566"/>
			<point x="851" y="1560" type="curve"/>
			<point x="644" y="1585"/>
			<point x="408" y="1613"/>
			<point x="243" y="1627" type="curve" smooth="yes"/>
			<point x="242" y="1627"/>
			<point x="240" y="1627"/>
			<point x="236" y="1627" type="curve" smooth="yes"/>
			<point x="220" y="1627"/>
			<point x="210" y="1612"/>
			<point x="210" y="1597" type="curve" smooth="yes"/>
			<point x="210" y="1581"/>
			<point x="222" y="1568"/>
			<point x="239" y="1567" type="curve" smooth="yes"/>
			<point x="411" y="1552"/>
			<point x="665" y="1522"/>
			<point x="849" y="1500" type="curve"/>
			<point x="908" y="1503"/>
			<point x="1220" y="1558"/>
			<point x="1367" y="1620" type="curve" smooth="yes"/>
			<point x="1478" y="1667"/>
			<point x="1784" y="1679"/>
			<point x="2086" y="1679" type="curve" smooth="yes"/>
			<point x="2323" y="1679"/>
			<point x="2594" y="1672"/>
			<point x="2745" y="1664" type="curve" smooth="yes"/>
			<point x="2854" y="1658"/>
			<point x="2995" y="1607"/>
			<point x="3106" y="1563" type="curve" smooth="yes"/>
			<point x="3179" y="1534"/>
			<point x="3240" y="1511"/>
			<point x="3269" y="1509" type="curve" smooth="yes"/>
			<point x="3281" y="1508"/>
			<point x="3325" y="1506"/>
			<point x="3511" y="1498" type="curve" smooth="yes"/>
			<point x="3701" y="1490"/>
			<point x="4488" y="1452"/>
			<point x="4599" y="1395" type="curve" smooth="yes"/>
			<point x="4769" y="1308"/>
			<point x="4884" y="1276"/>
			<point x="4962" y="1257" type="curve" smooth="yes"/>
			<point x="5079" y="1228"/>
			<point x="5111" y="1189"/>
			<point x="5111" y="1121" type="curve" smooth="yes"/>
			<point x="5111" y="1031"/>
			<point x="5018" y="958"/>
			<point x="4849" y="958" type="curve" smooth="yes"/>
			<point x="4742" y="958"/>
			<point x="4604" y="988"/>
			<point x="4439" y="1061" type="curve"/>
			<point x="3993" y="1061" type="line"/>
			<point x="3977" y="1172"/>
			<point x="3888" y="1233"/>
			<point x="3800" y="1233" type="curve" smooth="yes"/>
			<point x="3739" y="1233"/>
			<point x="3670" y="1216"/>
			<point x="3604" y="1197" type="curve" smooth="yes"/>
			<point x="3534" y="1177"/>
			<point x="3478" y="1165"/>
			<point x="3444" y="1165" type="curve" smooth="yes"/>
			<point x="3421" y="1165"/>
			<point x="3392" y="1170"/>
			<point x="3324" y="1189" type="curve" smooth="yes"/>
			<point x="3255" y="1208"/>
			<point x="3091" y="1249"/>
			<point x="2969" y="1249" type="curve" smooth="yes"/>
			<point x="2893" y="1249"/>
			<point x="2826" y="1233"/>
			<point x="2760" y="1210" type="curve"/>
			<point x="2184" y="1319" type="line" smooth="yes"/>
			<point x="2155" y="1325"/>
			<point x="2144" y="1326"/>
			<point x="2136" y="1326" type="curve" smooth="yes"/>
			<point x="2123" y="1326"/>
			<point x="2111" y="1314"/>
			<point x="2111" y="1297" type="curve" smooth="yes"/>
			<point x="2111" y="1282"/>
			<point x="2121" y="1270"/>
			<point x="2136" y="1267" type="curve" smooth="yes"/>
			<point x="2760" y="1147" type="line"/>
			<point x="2826" y="1172"/>
			<point x="2896" y="1189"/>
			<point x="2969" y="1189" type="curve" smooth="yes"/>
			<point x="3079" y="1189"/>
			<point x="3230" y="1152"/>
			<point x="3302" y="1133" type="curve" smooth="yes"/>
			<point x="3384" y="1111"/>
			<point x="3423" y="1105"/>
			<point x="3452" y="1105" type="curve" smooth="yes"/>
			<point x="3493" y="1105"/>
			<point x="3537" y="1111"/>
			<point x="3636" y="1140" type="curve" smooth="yes"/>
			<point x="3714" y="1163"/>
			<point x="3753" y="1169"/>
			<point x="3795" y="1169" type="curve" smooth="yes"/>
			<point x="3886" y="1169"/>
			<point x="3938" y="1107"/>
			<point x="3938" y="1010" type="curve" smooth="yes"/>
			<point x="3938" y="824"/>
			<point x="3632" y="684"/>
			<point x="3301" y="684" type="curve" smooth="yes"/>
			<point x="3179" y="684"/>
			<point x="3051" y="703"/>
			<point x="2951" y="740" type="curve" smooth="yes"/>
			<point x="2929" y="748"/>
			<point x="2925" y="748"/>
			<point x="2921" y="748" type="curve" smooth="yes"/>
			<point x="2901" y="748"/>
			<point x="2860" y="740"/>
			<point x="2806" y="728" type="curve" smooth="yes"/>
			<point x="2698" y="704"/>
			<point x="2534" y="672"/>
			<point x="2371" y="672" type="curve" smooth="yes"/>
			<point x="2336" y="672"/>
			<point x="2320" y="674"/>
			<point x="2297" y="677" type="curve" smooth="yes"/>
			<point x="2283" y="679"/>
			<point x="2268" y="681"/>
			<point x="2259" y="681" type="curve" smooth="yes"/>
			<point x="2237" y="681"/>
			<point x="2188" y="651"/>
			<point x="2124" y="609" type="curve" smooth="yes"/>
			<point x="1841" y="423"/>
			<point x="1634" y="350"/>
			<point x="1337" y="350" type="curve" smooth="yes"/>
			<point x="1132" y="350"/>
			<point x="1002" y="380"/>
			<point x="738" y="543" type="curve"/>
			<point x="177" y="466" type="line" smooth="yes"/>
			<point x="162" y="464"/>
			<point x="150" y="451"/>
			<point x="150" y="436" type="curve" smooth="yes"/>
			<point x="150" y="418"/>
			<point x="159" y="406"/>
			<point x="176" y="406" type="curve" smooth="yes"/>
			<point x="180" y="406"/>
			<point x="186" y="406"/>
			<point x="215" y="410" type="curve" smooth="yes"/>
			<point x="725" y="480" type="line"/>
			<point x="1000" y="318"/>
			<point x="1127" y="289"/>
			<point x="1337" y="289" type="curve" smooth="yes"/>
			<point x="1647" y="289"/>
			<point x="1876" y="387"/>
			<point x="2028" y="476" type="curve"/>
			<point x="2174" y="457"/>
			<point x="2387" y="436"/>
			<point x="2442" y="436" type="curve"/>
			<point x="2455" y="436" type="line"/>
			<point x="2479" y="349"/>
			<point x="2526" y="258"/>
			<point x="2583" y="189" type="curve"/>
			<point x="2558" y="147"/>
			<point x="2532" y="99"/>
			<point x="2520" y="67" type="curve"/>
			<point x="2361" y="22"/>
			<point x="2247" y="-89"/>
			<point x="2247" y="-210" type="curve" smooth="yes"/>
			<point x="2247" y="-309"/>
			<point x="2312" y="-380"/>
			<point x="2403" y="-380" type="curve" smooth="yes"/>
			<point x="2424" y="-380"/>
			<point x="2450" y="-373"/>
			<point x="2465" y="-361" type="curve" smooth="yes"/>
			<point x="2482" y="-347"/>
			<point x="2532" y="-315"/>
			<point x="2548" y="-306" type="curve"/>
			<point x="2635" y="-353"/>
			<point x="2676" y="-372"/>
			<point x="2754" y="-372" type="curve" smooth="yes"/>
			<point x="2778" y="-372"/>
			<point x="2814" y="-371"/>
			<point x="2834" y="-370" type="curve"/>
			<point x="2818" y="-420"/>
			<point x="2809" y="-470"/>
			<point x="2809" y="-515" type="curve" smooth="yes"/>
			<point x="2809" y="-653"/>
			<point x="2895" y="-716"/>
		</contour>
		<contour>
			<point x="2989" y="-656" type="curve" smooth="yes"/>
			<point x="2915" y="-656"/>
			<point x="2863" y="-602"/>
			<point x="2863" y="-510" type="curve" smooth="yes"/>
			<point x="2863" y="-335"/>
			<point x="3026" y="-69"/>
			<point x="3305" y="-69" type="curve" smooth="yes"/>
			<point x="3321" y="-69"/>
			<point x="3335" y="-56"/>
			<point x="3335" y="-39" type="curve" smooth="yes"/>
			<point x="3335" y="-23"/>
			<point x="3321" y="-9"/>
			<point x="3306" y="-9" type="curve" smooth="yes"/>
			<point x="3266" y="-9"/>
			<point x="3230" y="-11"/>
			<point x="3194" y="-19" type="curve"/>
			<point x="3194" y="2" type="line" smooth="yes"/>
			<point x="3194" y="69"/>
			<point x="3209" y="182"/>
			<point x="3263" y="309" type="curve"/>
			<point x="3278" y="317"/>
			<point x="3306" y="330"/>
			<point x="3329" y="334" type="curve" smooth="yes"/>
			<point x="3342" y="337"/>
			<point x="3353" y="349"/>
			<point x="3353" y="364" type="curve" smooth="yes"/>
			<point x="3353" y="382"/>
			<point x="3343" y="394"/>
			<point x="3325" y="394" type="curve" smooth="yes"/>
			<point x="3300" y="394"/>
			<point x="3265" y="377"/>
			<point x="3245" y="367" type="curve"/>
			<point x="3243" y="372"/>
			<point x="3241" y="377"/>
			<point x="3236" y="381" type="curve" smooth="yes"/>
			<point x="3182" y="425"/>
			<point x="3099" y="539"/>
			<point x="3048" y="651" type="curve"/>
			<point x="3129" y="634"/>
			<point x="3212" y="626"/>
			<point x="3294" y="626" type="curve" smooth="yes"/>
			<point x="3389" y="626"/>
			<point x="3522" y="642"/>
			<point x="3616" y="668" type="curve"/>
			<point x="3666" y="594"/>
			<point x="3680" y="550"/>
			<point x="3680" y="489" type="curve" smooth="yes"/>
			<point x="3680" y="343"/>
			<point x="3631" y="174"/>
			<point x="3579" y="54" type="curve"/>
			<point x="3581" y="45"/>
			<point x="3582" y="33"/>
			<point x="3582" y="20" type="curve" smooth="yes"/>
			<point x="3582" y="-79"/>
			<point x="3533" y="-276"/>
			<point x="3389" y="-395" type="curve" smooth="yes"/>
			<point x="3301" y="-467"/>
			<point x="3235" y="-489"/>
			<point x="3196" y="-489" type="curve" smooth="yes"/>
			<point x="3182" y="-489"/>
			<point x="3171" y="-486"/>
			<point x="3164" y="-482" type="curve"/>
			<point x="3157" y="-534"/>
			<point x="3087" y="-656"/>
		</contour>
		<contour>
			<point x="2399" y="-322" type="curve" smooth="yes"/>
			<point x="2338" y="-322"/>
			<point x="2305" y="-262"/>
			<point x="2305" y="-209" type="curve" smooth="yes"/>
			<point x="2305" y="-86"/>
			<point x="2465" y="29"/>
			<point x="2667" y="29" type="curve" smooth="yes"/>
			<point x="2740" y="29"/>
			<point x="2818" y="14"/>
			<point x="2897" y="-21" type="curve" smooth="yes"/>
			<point x="2901" y="-23"/>
			<point x="2906" y="-23"/>
			<point x="2909" y="-23" type="curve" smooth="yes"/>
			<point x="2925" y="-23"/>
			<point x="2939" y="-9"/>
			<point x="2939" y="7" type="curve" smooth="yes"/>
			<point x="2939" y="19"/>
			<point x="2933" y="30"/>
			<point x="2922" y="34" type="curve" smooth="yes"/>
			<point x="2859" y="62"/>
			<point x="2796" y="78"/>
			<point x="2735" y="85" type="curve"/>
			<point x="2765" y="191"/>
			<point x="2824" y="196"/>
			<point x="2894" y="196" type="curve" smooth="yes"/>
			<point x="2910" y="196"/>
			<point x="2924" y="210"/>
			<point x="2924" y="226" type="curve" smooth="yes"/>
			<point x="2924" y="243"/>
			<point x="2910" y="256"/>
			<point x="2894" y="256" type="curve" smooth="yes"/>
			<point x="2861" y="256"/>
			<point x="2822" y="254"/>
			<point x="2786" y="239" type="curve"/>
			<point x="2751" y="306"/>
			<point x="2735" y="394"/>
			<point x="2735" y="478" type="curve" smooth="yes"/>
			<point x="2735" y="509"/>
			<point x="2737" y="541"/>
			<point x="2741" y="569" type="curve"/>
			<point x="2794" y="579"/>
			<point x="2852" y="610"/>
			<point x="2910" y="691" type="curve"/>
			<point x="2932" y="683"/>
			<point x="2954" y="676"/>
			<point x="2977" y="669" type="curve"/>
			<point x="3010" y="577"/>
			<point x="3112" y="406"/>
			<point x="3198" y="334" type="curve" smooth="yes"/>
			<point x="3200" y="332"/>
			<point x="3203" y="331"/>
			<point x="3206" y="330" type="curve"/>
			<point x="3150" y="199"/>
			<point x="3133" y="77"/>
			<point x="3133" y="2" type="curve" smooth="yes"/>
			<point x="3133" y="-13"/>
			<point x="3134" y="-26"/>
			<point x="3135" y="-38" type="curve"/>
			<point x="3007" y="-88"/>
			<point x="2911" y="-195"/>
			<point x="2858" y="-307" type="curve"/>
			<point x="2819" y="-309"/>
			<point x="2790" y="-310"/>
			<point x="2753" y="-310" type="curve" smooth="yes"/>
			<point x="2711" y="-310"/>
			<point x="2668" y="-305"/>
			<point x="2613" y="-276" type="curve"/>
			<point x="2635" y="-269"/>
			<point x="2657" y="-264"/>
			<point x="2676" y="-264" type="curve" smooth="yes"/>
			<point x="2685" y="-264"/>
			<point x="2692" y="-265"/>
			<point x="2697" y="-266" type="curve" smooth="yes"/>
			<point x="2704" y="-267"/>
			<point x="2711" y="-268"/>
			<point x="2718" y="-268" type="curve" smooth="yes"/>
			<point x="2738" y="-268"/>
			<point x="2747" y="-257"/>
			<point x="2747" y="-239" type="curve" smooth="yes"/>
			<point x="2747" y="-215"/>
			<point x="2721" y="-204"/>
			<point x="2679" y="-204" type="curve" smooth="yes"/>
			<point x="2615" y="-204"/>
			<point x="2540" y="-236"/>
			<point x="2444" y="-305" type="curve" smooth="yes"/>
			<point x="2422" y="-321"/>
			<point x="2411" y="-322"/>
		</contour>
		<contour>
			<point x="2592" y="82" type="curve"/>
			<point x="2608" y="115"/>
			<point x="2632" y="156"/>
			<point x="2652" y="189" type="curve"/>
			<point x="2564" y="295"/>
			<point x="2532" y="361"/>
			<point x="2509" y="446" type="curve"/>
			<point x="2566" y="464"/>
			<point x="2611" y="499"/>
			<point x="2646" y="527" type="curve" smooth="yes"/>
			<point x="2658" y="537"/>
			<point x="2669" y="545"/>
			<point x="2679" y="552" type="curve"/>
			<point x="2676" y="529"/>
			<point x="2675" y="504"/>
			<point x="2675" y="479" type="curve" smooth="yes"/>
			<point x="2675" y="389"/>
			<point x="2696" y="275"/>
			<point x="2736" y="206" type="curve"/>
			<point x="2710" y="181"/>
			<point x="2688" y="144"/>
			<point x="2674" y="88" type="curve"/>
			<point x="2673" y="88" type="line" smooth="yes"/>
			<point x="2645" y="88"/>
			<point x="2618" y="86"/>
		</contour>
		<contour>
			<point x="2433" y="496" type="curve" smooth="yes"/>
			<point x="2392" y="496"/>
			<point x="2218" y="515"/>
			<point x="2111" y="528" type="curve"/>
			<point x="2136" y="544"/>
			<point x="2158" y="559"/>
			<point x="2177" y="573" type="curve" smooth="yes"/>
			<point x="2218" y="603"/>
			<point x="2248" y="622"/>
			<point x="2260" y="622" type="curve" smooth="yes"/>
			<point x="2266" y="622"/>
			<point x="2284" y="620"/>
			<point x="2303" y="617" type="curve" smooth="yes"/>
			<point x="2324" y="614"/>
			<point x="2360" y="612"/>
			<point x="2401" y="612" type="curve" smooth="yes"/>
			<point x="2542" y="612"/>
			<point x="2706" y="645"/>
			<point x="2807" y="668" type="curve"/>
			<point x="2779" y="645"/>
			<point x="2752" y="633"/>
			<point x="2715" y="627" type="curve" smooth="yes"/>
			<point x="2678" y="621"/>
			<point x="2640" y="600"/>
			<point x="2598" y="569" type="curve" smooth="yes"/>
			<point x="2517" y="510"/>
			<point x="2476" y="496"/>
		</contour>
	</outline>
	<note>
u0044
</note>
</glyph>
<glyph name="B_r_a_v_o_exclam_exclam_exclam" format="2">
	<advance width="6726"/>
	<outline>
		<component base="B" xOffset="200"/>
		<component base="r" xOffset="1378" yOffset="261"/>
		<component base="a" xOffset="1967" yOffset="-9"/>
		<component base="v" xOffset="3001" yOffset="394"/>
		<component base="o" xOffset="3649"/>
		<contour>
			<point x="5056" y="174" type="curve" smooth="yes"/>
			<point x="5074" y="174"/>
			<point x="5090" y="181"/>
			<point x="5099" y="226" type="curve"/>
			<point x="5191" y="566"/>
			<point x="5369" y="1171"/>
			<point x="5472" y="1498" type="curve"/>
			<point x="5488" y="1537"/>
			<point x="5498" y="1570"/>
			<point x="5498" y="1576" type="curve" smooth="yes"/>
			<point x="5498" y="1598"/>
			<point x="5472" y="1618"/>
			<point x="5450" y="1618" type="curve" smooth="yes"/>
			<point x="5429" y="1618"/>
			<point x="5415" y="1602"/>
			<point x="5407" y="1581" type="curve" smooth="yes"/>
			<point x="5274" y="1181"/>
			<point x="5110" y="592"/>
			<point x="5043" y="328" type="curve" smooth="yes"/>
			<point x="5018" y="235"/>
			<point x="5018" y="223"/>
			<point x="5018" y="210" type="curve" smooth="yes"/>
			<point x="5018" y="190"/>
			<point x="5031" y="174"/>
		</contour>
		<contour>
			<point x="4947" y="-314" type="curve" smooth="yes"/>
			<point x="5011" y="-314"/>
			<point x="5067" y="-254"/>
			<point x="5067" y="-182" type="curve" smooth="yes"/>
			<point x="5067" y="-140"/>
			<point x="5029" y="-107"/>
			<point x="4985" y="-107" type="curve" smooth="yes"/>
			<point x="4926" y="-107"/>
			<point x="4872" y="-160"/>
			<point x="4872" y="-227" type="curve" smooth="yes"/>
			<point x="4872" y="-280"/>
			<point x="4908" y="-314"/>
		</contour>
		<contour>
			<point x="5398" y="-201" type="curve" smooth="yes"/>
			<point x="5419" y="-201"/>
			<point x="5435" y="-193"/>
			<point x="5444" y="-147" type="curve"/>
			<point x="5532" y="192"/>
			<point x="5709" y="796"/>
			<point x="5818" y="1123" type="curve" smooth="yes"/>
			<point x="5831" y="1159"/>
			<point x="5840" y="1190"/>
			<point x="5840" y="1201" type="curve" smooth="yes"/>
			<point x="5840" y="1223"/>
			<point x="5818" y="1239"/>
			<point x="5795" y="1239" type="curve" smooth="yes"/>
			<point x="5773" y="1239"/>
			<point x="5758" y="1223"/>
			<point x="5751" y="1205" type="curve" smooth="yes"/>
			<point x="5619" y="803"/>
			<point x="5454" y="217"/>
			<point x="5387" y="-45" type="curve" smooth="yes"/>
			<point x="5361" y="-142"/>
			<point x="5361" y="-152"/>
			<point x="5361" y="-166" type="curve" smooth="yes"/>
			<point x="5361" y="-187"/>
			<point x="5374" y="-201"/>
		</contour>
		<contour>
			<point x="5291" y="-689" type="curve" smooth="yes"/>
			<point x="5354" y="-689"/>
			<point x="5412" y="-630"/>
			<point x="5412" y="-558" type="curve" smooth="yes"/>
			<point x="5412" y="-515"/>
			<point x="5372" y="-486"/>
			<point x="5326" y="-486" type="curve" smooth="yes"/>
			<point x="5270" y="-486"/>
			<point x="5213" y="-535"/>
			<point x="5213" y="-603" type="curve" smooth="yes"/>
			<point x="5213" y="-655"/>
			<point x="5252" y="-689"/>
		</contour>
		<contour>
			<point x="6082" y="377" type="curve" smooth="yes"/>
			<point x="6102" y="377"/>
			<point x="6119" y="385"/>
			<point x="6131" y="430" type="curve" smooth="yes"/>
			<point x="6220" y="768"/>
			<point x="6396" y="1374"/>
			<point x="6504" y="1702" type="curve" smooth="yes"/>
			<point x="6516" y="1739"/>
			<point x="6526" y="1771"/>
			<point x="6526" y="1779" type="curve" smooth="yes"/>
			<point x="6526" y="1802"/>
			<point x="6504" y="1819"/>
			<point x="6479" y="1819" type="curve" smooth="yes"/>
			<point x="6458" y="1819"/>
			<point x="6444" y="1803"/>
			<point x="6438" y="1784" type="curve" smooth="yes"/>
			<point x="6303" y="1382"/>
			<point x="6141" y="795"/>
			<point x="6071" y="532" type="curve" smooth="yes"/>
			<point x="6047" y="437"/>
			<point x="6047" y="425"/>
			<point x="6047" y="414" type="curve" smooth="yes"/>
			<point x="6047" y="391"/>
			<point x="6059" y="377"/>
		</contour>
		<contour>
			<point x="5975" y="-112" type="curve" smooth="yes"/>
			<point x="6036" y="-112"/>
			<point x="6096" y="-51"/>
			<point x="6096" y="19" type="curve" smooth="yes"/>
			<point x="6096" y="63"/>
			<point x="6057" y="96"/>
			<point x="6015" y="96" type="curve" smooth="yes"/>
			<point x="5954" y="96"/>
			<point x="5901" y="43"/>
			<point x="5901" y="-24" type="curve" smooth="yes"/>
			<point x="5901" y="-79"/>
			<point x="5937" y="-112"/>
		</contour>
		<component base="finial.r" xOffset="2123" yOffset="261"/>
		<component base="finial" xOffset="2746" yOffset="-9"/>
	</outline>
</glyph>
<glyph name="IJ.e" format="2">
	<advance width="1017"/>
	<outline>
		<contour>
			<point x="797" y="-63" type="curve"/>
			<point x="814" y="13" type="line"/>
			<point x="438" y="-145"/>
			<point x="280" y="-361"/>
			<point x="280" y="-525" type="curve" smooth="yes"/>
			<point x="280" y="-629"/>
			<point x="346" y="-690"/>
			<point x="431" y="-690" type="curve" smooth="yes"/>
			<point x="583" y="-690"/>
			<point x="737" y="-564"/>
			<point x="832" y="-136" type="curve" smooth="yes"/>
			<point x="908" y="205"/>
			<point x="980" y="501"/>
			<point x="1049" y="763" type="curve" smooth="yes"/>
			<point x="1137" y="1099"/>
			<point x="1172" y="1202"/>
			<point x="1240" y="1402" type="curve" smooth="yes"/>
			<point x="1289" y="1545"/>
			<point x="1292" y="1560"/>
			<point x="1292" y="1578" type="curve" smooth="yes"/>
			<point x="1292" y="1597"/>
			<point x="1272" y="1606"/>
			<point x="1253" y="1606" type="curve" smooth="yes"/>
			<point x="1235" y="1606"/>
			<point x="1226" y="1601"/>
			<point x="1202" y="1529" type="curve" smooth="yes"/>
			<point x="1094" y="1200"/>
			<point x="1063" y="1113"/>
			<point x="923" y="817" type="curve" smooth="yes"/>
			<point x="712" y="371"/>
			<point x="509" y="193"/>
			<point x="356" y="193" type="curve" smooth="yes"/>
			<point x="272" y="193"/>
			<point x="230" y="249"/>
			<point x="230" y="365" type="curve" smooth="yes"/>
			<point x="230" y="461"/>
			<point x="251" y="577"/>
			<point x="327" y="788" type="curve" smooth="yes"/>
			<point x="396" y="980"/>
			<point x="494" y="1253"/>
			<point x="557" y="1478" type="curve" smooth="yes"/>
			<point x="580" y="1560"/>
			<point x="581" y="1575"/>
			<point x="581" y="1580" type="curve" smooth="yes"/>
			<point x="581" y="1599"/>
			<point x="564" y="1608"/>
			<point x="540" y="1608" type="curve" smooth="yes"/>
			<point x="523" y="1608"/>
			<point x="513" y="1603"/>
			<point x="494" y="1533" type="curve" smooth="yes"/>
			<point x="426" y="1288"/>
			<point x="332" y="1017"/>
			<point x="260" y="817" type="curve" smooth="yes"/>
			<point x="177" y="585"/>
			<point x="150" y="454"/>
			<point x="150" y="350" type="curve" smooth="yes"/>
			<point x="150" y="205"/>
			<point x="217" y="118"/>
			<point x="340" y="118" type="curve" smooth="yes"/>
			<point x="528" y="118"/>
			<point x="770" y="320"/>
			<point x="1014" y="862" type="curve"/>
			<point x="1004" y="849" type="line"/>
			<point x="917" y="551"/>
			<point x="855" y="291"/>
			<point x="782" y="-21" type="curve" smooth="yes"/>
			<point x="693" y="-401"/>
			<point x="588" y="-615"/>
			<point x="443" y="-615" type="curve" smooth="yes"/>
			<point x="389" y="-615"/>
			<point x="355" y="-582"/>
			<point x="355" y="-516" type="curve" smooth="yes"/>
			<point x="355" y="-385"/>
			<point x="498" y="-198"/>
		</contour>
	</outline>
</glyph>
<glyph name="J.e" format="2">
	<advance width="593"/>
	<outline>
		<contour>
			<point x="375" y="-68" type="curve"/>
			<point x="392" y="8" type="line"/>
			<point x="18" y="-149"/>
			<point x="-140" y="-363"/>
			<point x="-140" y="-525" type="curve" smooth="yes"/>
			<point x="-140" y="-629"/>
			<point x="-74" y="-690"/>
			<point x="11" y="-690" type="curve" smooth="yes"/>
			<point x="163" y="-690"/>
			<point x="317" y="-564"/>
			<point x="419" y="-106" type="curve" smooth="yes"/>
			<point x="560" y="526"/>
			<point x="738" y="1213"/>
			<point x="798" y="1397" type="curve" smooth="yes"/>
			<point x="833" y="1504"/>
			<point x="846" y="1548"/>
			<point x="846" y="1571" type="curve" smooth="yes"/>
			<point x="846" y="1588"/>
			<point x="838" y="1605"/>
			<point x="808" y="1605" type="curve" smooth="yes"/>
			<point x="799" y="1605"/>
			<point x="792" y="1604"/>
			<point x="772" y="1601" type="curve" smooth="yes"/>
			<point x="717" y="1594"/>
			<point x="648" y="1589"/>
			<point x="567" y="1589" type="curve" smooth="yes"/>
			<point x="513" y="1589"/>
			<point x="460" y="1591"/>
			<point x="392" y="1597" type="curve" smooth="yes"/>
			<point x="357" y="1600"/>
			<point x="345" y="1601"/>
			<point x="334" y="1601" type="curve" smooth="yes"/>
			<point x="313" y="1601"/>
			<point x="298" y="1586"/>
			<point x="298" y="1563" type="curve" smooth="yes"/>
			<point x="298" y="1542"/>
			<point x="316" y="1530"/>
			<point x="356" y="1525" type="curve" smooth="yes"/>
			<point x="411" y="1518"/>
			<point x="483" y="1514"/>
			<point x="550" y="1514" type="curve" smooth="yes"/>
			<point x="635" y="1514"/>
			<point x="716" y="1521"/>
			<point x="791" y="1535" type="curve"/>
			<point x="772" y="1562" type="line"/>
			<point x="648" y="1205"/>
			<point x="483" y="503"/>
			<point x="335" y="-141" type="curve" smooth="yes"/>
			<point x="254" y="-493"/>
			<point x="120" y="-615"/>
			<point x="23" y="-615" type="curve" smooth="yes"/>
			<point x="-31" y="-615"/>
			<point x="-65" y="-582"/>
			<point x="-65" y="-516" type="curve" smooth="yes"/>
			<point x="-65" y="-386"/>
			<point x="78" y="-202"/>
		</contour>
	</outline>
	<anchor name="bottom" x="0" y="-670"/>
	<anchor name="center" x="531" y="717"/>
	<anchor name="top" x="780" y="1600"/>
</glyph>
<glyph name="J.isol" format="2">
	<advance width="933"/>
	<outline>
		<contour>
			<point x="788" y="1535" type="curve"/>
			<point x="769" y="1562" type="line"/>
			<point x="649" y="1205"/>
			<point x="471" y="474"/>
			<point x="358" y="-18" type="curve" smooth="yes"/>
			<point x="239" y="-538"/>
			<point x="119" y="-615"/>
			<point x="-60" y="-615" type="curve" smooth="yes"/>
			<point x="-131" y="-615"/>
			<point x="-184" y="-596"/>
			<point x="-229" y="-561" type="curve" smooth="yes"/>
			<point x="-246" y="-548"/>
			<point x="-260" y="-541"/>
			<point x="-272" y="-541" type="curve" smooth="yes"/>
			<point x="-287" y="-541"/>
			<point x="-300" y="-554"/>
			<point x="-300" y="-570" type="curve" smooth="yes"/>
			<point x="-300" y="-614"/>
			<point x="-202" y="-690"/>
			<point x="-48" y="-690" type="curve" smooth="yes"/>
			<point x="225" y="-690"/>
			<point x="338" y="-482"/>
			<point x="444" y="-3" type="curve" smooth="yes"/>
			<point x="559" y="515"/>
			<point x="739" y="1217"/>
			<point x="797" y="1399" type="curve" smooth="yes"/>
			<point x="831" y="1506"/>
			<point x="843" y="1548"/>
			<point x="843" y="1571" type="curve" smooth="yes"/>
			<point x="843" y="1588"/>
			<point x="835" y="1605"/>
			<point x="805" y="1605" type="curve" smooth="yes"/>
			<point x="796" y="1605"/>
			<point x="787" y="1604"/>
			<point x="779" y="1603" type="curve" smooth="yes"/>
			<point x="712" y="1594"/>
			<point x="645" y="1589"/>
			<point x="560" y="1589" type="curve" smooth="yes"/>
			<point x="509" y="1589"/>
			<point x="455" y="1591"/>
			<point x="387" y="1597" type="curve" smooth="yes"/>
			<point x="351" y="1600"/>
			<point x="339" y="1601"/>
			<point x="332" y="1601" type="curve" smooth="yes"/>
			<point x="308" y="1601"/>
			<point x="293" y="1586"/>
			<point x="293" y="1564" type="curve" smooth="yes"/>
			<point x="293" y="1542"/>
			<point x="307" y="1532"/>
			<point x="350" y="1525" type="curve" smooth="yes"/>
			<point x="394" y="1518"/>
			<point x="477" y="1514"/>
			<point x="543" y="1514" type="curve" smooth="yes"/>
			<point x="630" y="1514"/>
			<point x="713" y="1521"/>
		</contour>
	</outline>
	<anchor name="bottom" x="-48" y="-690"/>
	<anchor name="center" x="527" y="717"/>
	<anchor name="top" x="750" y="1600"/>
</glyph>
<glyph name="J.isol.salt" format="2">
	<advance width="928"/>
	<outline>
		<contour>
			<point x="823" y="1535" type="curve"/>
			<point x="804" y="1562" type="line"/>
			<point x="716" y="1308"/>
			<point x="583" y="789"/>
			<point x="503" y="439" type="curve" smooth="yes"/>
			<point x="427" y="106"/>
			<point x="318" y="50"/>
			<point x="180" y="50" type="curve" smooth="yes"/>
			<point x="105" y="50"/>
			<point x="35" y="73"/>
			<point x="-9" y="104" type="curve" smooth="yes"/>
			<point x="-26" y="116"/>
			<point x="-40" y="124"/>
			<point x="-52" y="124" type="curve" smooth="yes"/>
			<point x="-67" y="124"/>
			<point x="-80" y="111"/>
			<point x="-80" y="95" type="curve" smooth="yes"/>
			<point x="-80" y="51"/>
			<point x="32" y="-25"/>
			<point x="192" y="-25" type="curve" smooth="yes"/>
			<point x="412" y="-25"/>
			<point x="516" y="124"/>
			<point x="589" y="454" type="curve" smooth="yes"/>
			<point x="666" y="803"/>
			<point x="793" y="1276"/>
			<point x="832" y="1399" type="curve" smooth="yes"/>
			<point x="866" y="1506"/>
			<point x="878" y="1548"/>
			<point x="878" y="1571" type="curve" smooth="yes"/>
			<point x="878" y="1588"/>
			<point x="870" y="1605"/>
			<point x="840" y="1605" type="curve" smooth="yes"/>
			<point x="831" y="1605"/>
			<point x="822" y="1604"/>
			<point x="814" y="1603" type="curve" smooth="yes"/>
			<point x="747" y="1594"/>
			<point x="680" y="1589"/>
			<point x="595" y="1589" type="curve" smooth="yes"/>
			<point x="544" y="1589"/>
			<point x="490" y="1591"/>
			<point x="422" y="1597" type="curve" smooth="yes"/>
			<point x="386" y="1600"/>
			<point x="374" y="1601"/>
			<point x="367" y="1601" type="curve" smooth="yes"/>
			<point x="343" y="1601"/>
			<point x="328" y="1586"/>
			<point x="328" y="1564" type="curve" smooth="yes"/>
			<point x="328" y="1542"/>
			<point x="342" y="1532"/>
			<point x="385" y="1525" type="curve" smooth="yes"/>
			<point x="429" y="1518"/>
			<point x="512" y="1514"/>
			<point x="578" y="1514" type="curve" smooth="yes"/>
			<point x="665" y="1514"/>
			<point x="748" y="1521"/>
		</contour>
	</outline>
	<anchor name="bottom" x="192" y="-25"/>
	<anchor name="center" x="562" y="717"/>
	<anchor name="top" x="830" y="1600"/>
</glyph>
<glyph name="K.swsh" format="2">
	<advance width="1188"/>
	<outline>
		<contour>
			<point x="404" y="895" type="curve"/>
			<point x="363" y="776" type="line"/>
			<point x="392" y="713"/>
			<point x="539" y="424"/>
			<point x="667" y="191" type="curve" smooth="yes"/>
			<point x="897" y="-229"/>
			<point x="1088" y="-380"/>
			<point x="1358" y="-380" type="curve" smooth="yes"/>
			<point x="1496" y="-380"/>
			<point x="1602" y="-347"/>
			<point x="1699" y="-273" type="curve" smooth="yes"/>
			<point x="1741" y="-241"/>
			<point x="1748" y="-223"/>
			<point x="1748" y="-206" type="curve" smooth="yes"/>
			<point x="1748" y="-192"/>
			<point x="1735" y="-183"/>
			<point x="1726" y="-183" type="curve" smooth="yes"/>
			<point x="1710" y="-183"/>
			<point x="1695" y="-193"/>
			<point x="1677" y="-206" type="curve" smooth="yes"/>
			<point x="1567" y="-283"/>
			<point x="1474" y="-305"/>
			<point x="1375" y="-305" type="curve" smooth="yes"/>
			<point x="1120" y="-305"/>
			<point x="955" y="-168"/>
			<point x="729" y="235" type="curve" smooth="yes"/>
			<point x="559" y="539"/>
			<point x="441" y="770"/>
			<point x="408" y="845" type="curve"/>
			<point x="399" y="815" type="line"/>
			<point x="697" y="1036"/>
			<point x="972" y="1262"/>
			<point x="1243" y="1525" type="curve" smooth="yes"/>
			<point x="1261" y="1542"/>
			<point x="1268" y="1556"/>
			<point x="1268" y="1567" type="curve" smooth="yes"/>
			<point x="1268" y="1587"/>
			<point x="1252" y="1600"/>
			<point x="1233" y="1600" type="curve" smooth="yes"/>
			<point x="1223" y="1600"/>
			<point x="1214" y="1596"/>
			<point x="1173" y="1555" type="curve" smooth="yes"/>
			<point x="940" y="1327"/>
			<point x="677" y="1109"/>
		</contour>
		<contour>
			<point x="188" y="34" type="curve" smooth="yes"/>
			<point x="292" y="451"/>
			<point x="487" y="1170"/>
			<point x="589" y="1530" type="curve" smooth="yes"/>
			<point x="594" y="1548"/>
			<point x="597" y="1563"/>
			<point x="597" y="1571" type="curve" smooth="yes"/>
			<point x="597" y="1588"/>
			<point x="576" y="1600"/>
			<point x="555" y="1600" type="curve" smooth="yes"/>
			<point x="535" y="1600"/>
			<point x="526" y="1586"/>
			<point x="522" y="1570" type="curve" smooth="yes"/>
			<point x="399" y="1123"/>
			<point x="217" y="453"/>
			<point x="143" y="167" type="curve" smooth="yes"/>
			<point x="112" y="48"/>
			<point x="110" y="25"/>
			<point x="110" y="15" type="curve" smooth="yes"/>
			<point x="110" y="-3"/>
			<point x="127" y="-12"/>
			<point x="148" y="-12" type="curve" smooth="yes"/>
			<point x="166" y="-12"/>
			<point x="180" y="1"/>
		</contour>
	</outline>
	<anchor name="bottom" x="490" y="0"/>
	<anchor name="ogonek" x="76" y="0"/>
	<anchor name="top" x="880" y="1600"/>
	<anchor name="topleft" x="482" y="1600"/>
</glyph>
<glyph name="_part.Q-tail" format="2">
	<advance width="528"/>
	<outline>
		<contour>
			<point x="386" y="-221" type="curve" smooth="yes"/>
			<point x="409" y="-265"/>
			<point x="422" y="-280"/>
			<point x="437" y="-280" type="curve" smooth="yes"/>
			<point x="456" y="-280"/>
			<point x="478" y="-260"/>
			<point x="478" y="-244" type="curve" smooth="yes"/>
			<point x="478" y="-231"/>
			<point x="471" y="-216"/>
			<point x="454" y="-186" type="curve" smooth="yes"/>
			<point x="366" y="-26"/>
			<point x="241" y="234"/>
			<point x="134" y="508" type="curve" smooth="yes"/>
			<point x="111" y="566"/>
			<point x="105" y="575"/>
			<point x="88" y="575" type="curve" smooth="yes"/>
			<point x="72" y="575"/>
			<point x="50" y="564"/>
			<point x="50" y="545" type="curve" smooth="yes"/>
			<point x="50" y="536"/>
			<point x="54" y="519"/>
			<point x="68" y="482" type="curve" smooth="yes"/>
			<point x="179" y="198"/>
			<point x="305" y="-62"/>
		</contour>
	</outline>
	<anchor name="_Qtail" x="50" y="0"/>
</glyph>
<glyph name="ae.salt" format="2">
	<advance width="828"/>
	<outline>
		<contour>
			<point x="918" y="777" type="curve" smooth="yes"/>
			<point x="918" y="577"/>
			<point x="490" y="63"/>
			<point x="230" y="63" type="curve" smooth="yes"/>
			<point x="179" y="63"/>
			<point x="145" y="113"/>
			<point x="145" y="261" type="curve" smooth="yes"/>
			<point x="145" y="561"/>
			<point x="333" y="860"/>
			<point x="520" y="860" type="curve" smooth="yes"/>
			<point x="574" y="860"/>
			<point x="643" y="843"/>
			<point x="699" y="815" type="curve"/>
			<point x="735" y="871" type="line"/>
			<point x="650" y="914"/>
			<point x="578" y="935"/>
			<point x="515" y="935" type="curve" smooth="yes"/>
			<point x="287" y="935"/>
			<point x="65" y="604"/>
			<point x="65" y="248" type="curve" smooth="yes"/>
			<point x="65" y="73"/>
			<point x="127" y="-12"/>
			<point x="213" y="-12" type="curve" smooth="yes"/>
			<point x="513" y="-12"/>
			<point x="998" y="556"/>
			<point x="998" y="795" type="curve" smooth="yes"/>
			<point x="998" y="885"/>
			<point x="941" y="935"/>
			<point x="865" y="935" type="curve" smooth="yes"/>
			<point x="694" y="935"/>
			<point x="536" y="672"/>
			<point x="536" y="351" type="curve" smooth="yes"/>
			<point x="536" y="100"/>
			<point x="613" y="-12"/>
			<point x="757" y="-12" type="curve" smooth="yes"/>
			<point x="785" y="-12"/>
			<point x="808" y="12"/>
			<point x="808" y="35" type="curve" smooth="yes"/>
			<point x="808" y="52"/>
			<point x="796" y="63"/>
			<point x="777" y="63" type="curve" smooth="yes"/>
			<point x="660" y="63"/>
			<point x="614" y="136"/>
			<point x="614" y="364" type="curve" smooth="yes"/>
			<point x="614" y="635"/>
			<point x="742" y="860"/>
			<point x="851" y="860" type="curve" smooth="yes"/>
			<point x="890" y="860"/>
			<point x="918" y="836"/>
		</contour>
	</outline>
	<anchor name="bottom" x="532" y="0"/>
	<anchor name="top" x="700" y="920"/>
</glyph>
<glyph name="b.medi.e" format="2">
	<advance width="1015"/>
	<outline>
		<contour>
			<point x="312" y="1136" type="curve" smooth="yes"/>
			<point x="298" y="1077"/>
			<point x="278" y="985"/>
			<point x="246" y="830" type="curve"/>
			<point x="172" y="565"/>
			<point x="110" y="321"/>
			<point x="110" y="179" type="curve" smooth="yes"/>
			<point x="110" y="53"/>
			<point x="187" y="-12"/>
			<point x="288" y="-12" type="curve" smooth="yes"/>
			<point x="558" y="-12"/>
			<point x="825" y="324"/>
			<point x="825" y="657" type="curve" smooth="yes"/>
			<point x="825" y="842"/>
			<point x="748" y="935"/>
			<point x="634" y="935" type="curve" smooth="yes"/>
			<point x="608" y="935"/>
			<point x="591" y="917"/>
			<point x="591" y="899" type="curve" smooth="yes"/>
			<point x="591" y="882"/>
			<point x="609" y="870"/>
			<point x="639" y="870" type="curve" smooth="yes"/>
			<point x="687" y="870"/>
			<point x="750" y="794"/>
			<point x="750" y="645" type="curve" smooth="yes"/>
			<point x="750" y="358"/>
			<point x="522" y="63"/>
			<point x="303" y="63" type="curve" smooth="yes"/>
			<point x="235" y="63"/>
			<point x="190" y="109"/>
			<point x="190" y="209" type="curve" smooth="yes"/>
			<point x="190" y="324"/>
			<point x="235" y="530"/>
			<point x="322" y="817" type="curve"/>
			<point x="515" y="1089"/>
			<point x="584" y="1238"/>
			<point x="584" y="1326" type="curve" smooth="yes"/>
			<point x="584" y="1395"/>
			<point x="555" y="1425"/>
			<point x="510" y="1425" type="curve" smooth="yes"/>
			<point x="438" y="1425"/>
			<point x="364" y="1357"/>
		</contour>
		<contour>
			<point x="316" y="903" type="curve"/>
			<point x="322" y="903" type="line"/>
			<point x="342" y="990"/>
			<point x="359" y="1061"/>
			<point x="378" y="1128" type="curve" smooth="yes"/>
			<point x="429" y="1308"/>
			<point x="462" y="1350"/>
			<point x="487" y="1350" type="curve" smooth="yes"/>
			<point x="503" y="1350"/>
			<point x="509" y="1338"/>
			<point x="509" y="1309" type="curve" smooth="yes"/>
			<point x="509" y="1246"/>
			<point x="453" y="1113"/>
		</contour>
	</outline>
	<anchor name="bottom" x="288" y="-12"/>
	<anchor name="top" x="505" y="1400"/>
</glyph>
<glyph name="barcomb.case" format="2">
	<advance width="773"/>
	<outline>
		<contour>
			<point x="129" y="861" type="curve" smooth="yes"/>
			<point x="86" y="861" type="line" smooth="yes"/>
			<point x="60" y="861"/>
			<point x="50" y="847"/>
			<point x="50" y="830" type="curve" smooth="yes"/>
			<point x="50" y="800"/>
			<point x="88" y="790"/>
			<point x="178" y="790" type="curve" smooth="yes"/>
			<point x="293" y="790"/>
			<point x="472" y="795"/>
			<point x="585" y="804" type="curve" smooth="yes"/>
			<point x="697" y="813"/>
			<point x="723" y="822"/>
			<point x="723" y="847" type="curve" smooth="yes"/>
			<point x="723" y="862"/>
			<point x="716" y="867"/>
			<point x="690" y="867" type="curve" smooth="yes"/>
			<point x="688" y="867"/>
			<point x="685" y="867"/>
			<point x="682" y="867" type="curve" smooth="yes"/>
			<point x="625" y="865"/>
			<point x="386" y="861"/>
		</contour>
	</outline>
	<anchor name="_center" x="340" y="839"/>
</glyph>
<glyph name="dieresiscomb.case" format="2">
	<outline>
		<contour>
			<point x="112" y="1154" type="curve" smooth="yes"/>
			<point x="158" y="1154"/>
			<point x="200" y="1192"/>
			<point x="200" y="1243" type="curve" smooth="yes"/>
			<point x="200" y="1282"/>
			<point x="176" y="1307"/>
			<point x="136" y="1307" type="curve" smooth="yes"/>
			<point x="90" y="1307"/>
			<point x="50" y="1273"/>
			<point x="50" y="1221" type="curve" smooth="yes"/>
			<point x="50" y="1183"/>
			<point x="72" y="1154"/>
		</contour>
		<contour>
			<point x="447" y="1154" type="curve" smooth="yes"/>
			<point x="493" y="1154"/>
			<point x="535" y="1192"/>
			<point x="535" y="1243" type="curve" smooth="yes"/>
			<point x="535" y="1282"/>
			<point x="511" y="1307"/>
			<point x="471" y="1307" type="curve" smooth="yes"/>
			<point x="425" y="1307"/>
			<point x="385" y="1273"/>
			<point x="385" y="1221" type="curve" smooth="yes"/>
			<point x="385" y="1183"/>
			<point x="407" y="1154"/>
		</contour>
	</outline>
	<anchor name="_top" x="213" y="920"/>
	<anchor name="top" x="294" y="1307"/>
</glyph>
<glyph name="eth.posto" format="2">
	<advance width="1015"/>
	<outline>
		<contour>
			<point x="38" y="275" type="curve" smooth="yes"/>
			<point x="38" y="85"/>
			<point x="139" y="-12"/>
			<point x="279" y="-12" type="curve" smooth="yes"/>
			<point x="532" y="-12"/>
			<point x="815" y="281"/>
			<point x="815" y="792" type="curve" smooth="yes"/>
			<point x="815" y="1047"/>
			<point x="735" y="1231"/>
			<point x="614" y="1345" type="curve" smooth="yes"/>
			<point x="573" y="1384"/>
			<point x="542" y="1400"/>
			<point x="522" y="1400" type="curve" smooth="yes"/>
			<point x="503" y="1400"/>
			<point x="488" y="1389"/>
			<point x="488" y="1370" type="curve" smooth="yes"/>
			<point x="488" y="1361"/>
			<point x="496" y="1351"/>
			<point x="519" y="1332" type="curve" smooth="yes"/>
			<point x="662" y="1211"/>
			<point x="735" y="1014"/>
			<point x="735" y="781" type="curve" smooth="yes"/>
			<point x="735" y="331"/>
			<point x="485" y="63"/>
			<point x="292" y="63" type="curve" smooth="yes"/>
			<point x="184" y="63"/>
			<point x="118" y="138"/>
			<point x="118" y="285" type="curve" smooth="yes"/>
			<point x="118" y="453"/>
			<point x="196" y="623"/>
			<point x="295" y="735" type="curve" smooth="yes"/>
			<point x="324" y="768"/>
			<point x="334" y="776"/>
			<point x="350" y="788" type="curve"/>
			<point x="572" y="834"/>
			<point x="627" y="857"/>
			<point x="627" y="881" type="curve" smooth="yes"/>
			<point x="627" y="905"/>
			<point x="601" y="920"/>
			<point x="577" y="920" type="curve" smooth="yes"/>
			<point x="449" y="920"/>
			<point x="293" y="842"/>
			<point x="226" y="763" type="curve" smooth="yes"/>
			<point x="129" y="648"/>
			<point x="38" y="471"/>
		</contour>
		<contour>
			<point x="885" y="1270" type="curve" smooth="yes"/>
			<point x="780" y="1223"/>
			<point x="646" y="1165"/>
			<point x="471" y="1120" type="curve" smooth="yes"/>
			<point x="451" y="1115"/>
			<point x="446" y="1103"/>
			<point x="446" y="1091" type="curve" smooth="yes"/>
			<point x="446" y="1072"/>
			<point x="458" y="1055"/>
			<point x="474" y="1055" type="curve" smooth="yes"/>
			<point x="484" y="1055"/>
			<point x="491" y="1056"/>
			<point x="498" y="1057" type="curve" smooth="yes"/>
			<point x="581" y="1072"/>
			<point x="862" y="1170"/>
			<point x="924" y="1221" type="curve" smooth="yes"/>
			<point x="935" y="1230"/>
			<point x="943" y="1241"/>
			<point x="943" y="1253" type="curve" smooth="yes"/>
			<point x="943" y="1265"/>
			<point x="935" y="1281"/>
			<point x="917" y="1281" type="curve" smooth="yes"/>
			<point x="909" y="1281"/>
			<point x="904" y="1279"/>
		</contour>
	</outline>
</glyph>
<glyph name="f.medi" format="2">
	<advance width="26"/>
	<outline>
		<contour>
			<point x="-16" y="-409" type="curve" smooth="yes"/>
			<point x="-16" y="-448"/>
			<point x="-1" y="-470"/>
			<point x="21" y="-470" type="curve" smooth="yes"/>
			<point x="46" y="-470"/>
			<point x="64" y="-449"/>
			<point x="79" y="-369" type="curve" smooth="yes"/>
			<point x="91" y="-306"/>
			<point x="129" y="-91"/>
			<point x="168" y="156" type="curve"/>
			<point x="211" y="366"/>
			<point x="263" y="608"/>
			<point x="318" y="818" type="curve"/>
			<point x="513" y="1089"/>
			<point x="584" y="1236"/>
			<point x="584" y="1326" type="curve" smooth="yes"/>
			<point x="584" y="1395"/>
			<point x="555" y="1425"/>
			<point x="510" y="1425" type="curve" smooth="yes"/>
			<point x="438" y="1425"/>
			<point x="362" y="1358"/>
			<point x="312" y="1136" type="curve" smooth="yes"/>
			<point x="299" y="1079"/>
			<point x="263" y="910"/>
			<point x="250" y="830" type="curve"/>
			<point x="203" y="644"/>
			<point x="156" y="448"/>
			<point x="118" y="273" type="curve"/>
			<point x="66" y="268"/>
			<point x="37" y="259"/>
			<point x="37" y="233" type="curve" smooth="yes"/>
			<point x="37" y="210"/>
			<point x="50" y="194"/>
			<point x="94" y="167" type="curve"/>
			<point x="37" y="-93" type="line" smooth="yes"/>
			<point x="2" y="-250"/>
			<point x="-16" y="-336"/>
		</contour>
		<contour>
			<point x="316" y="904" type="curve"/>
			<point x="324" y="904" type="line"/>
			<point x="343" y="990"/>
			<point x="359" y="1061"/>
			<point x="378" y="1128" type="curve" smooth="yes"/>
			<point x="429" y="1308"/>
			<point x="462" y="1350"/>
			<point x="487" y="1350" type="curve" smooth="yes"/>
			<point x="503" y="1350"/>
			<point x="509" y="1338"/>
			<point x="509" y="1309" type="curve" smooth="yes"/>
			<point x="509" y="1246"/>
			<point x="453" y="1112"/>
		</contour>
	</outline>
</glyph>
<glyph name="four.osf" format="2">
	<advance width="1210"/>
	<outline>
		<contour>
			<point x="621" y="-484" type="curve" smooth="yes"/>
			<point x="687" y="-203"/>
			<point x="783" y="149"/>
			<point x="849" y="355" type="curve" smooth="yes"/>
			<point x="866" y="407"/>
			<point x="867" y="420"/>
			<point x="867" y="430" type="curve" smooth="yes"/>
			<point x="867" y="445"/>
			<point x="848" y="458"/>
			<point x="828" y="458" type="curve" smooth="yes"/>
			<point x="809" y="458"/>
			<point x="798" y="445"/>
			<point x="783" y="399" type="curve" smooth="yes"/>
			<point x="704" y="152"/>
			<point x="616" y="-179"/>
			<point x="555" y="-437" type="curve" smooth="yes"/>
			<point x="545" y="-481"/>
			<point x="544" y="-489"/>
			<point x="544" y="-499" type="curve" smooth="yes"/>
			<point x="544" y="-515"/>
			<point x="561" y="-527"/>
			<point x="582" y="-527" type="curve" smooth="yes"/>
			<point x="599" y="-527"/>
			<point x="614" y="-515"/>
		</contour>
		<contour>
			<point x="183" y="-6" type="curve" smooth="yes"/>
			<point x="239" y="-6"/>
			<point x="746" y="1"/>
			<point x="1028" y="4" type="curve" smooth="yes"/>
			<point x="1066" y="5"/>
			<point x="1080" y="22"/>
			<point x="1080" y="43" type="curve" smooth="yes"/>
			<point x="1080" y="66"/>
			<point x="1069" y="81"/>
			<point x="1026" y="81" type="curve" smooth="yes"/>
			<point x="904" y="81"/>
			<point x="380" y="68"/>
			<point x="154" y="65" type="curve"/>
			<point x="178" y="44" type="line"/>
			<point x="370" y="363"/>
			<point x="559" y="704"/>
			<point x="720" y="1018" type="curve" smooth="yes"/>
			<point x="738" y="1054"/>
			<point x="740" y="1062"/>
			<point x="740" y="1071" type="curve" smooth="yes"/>
			<point x="740" y="1089"/>
			<point x="722" y="1105"/>
			<point x="700" y="1105" type="curve" smooth="yes"/>
			<point x="686" y="1105"/>
			<point x="674" y="1095"/>
			<point x="657" y="1062" type="curve" smooth="yes"/>
			<point x="485" y="728"/>
			<point x="301" y="390"/>
			<point x="146" y="132" type="curve" smooth="yes"/>
			<point x="116" y="83"/>
			<point x="110" y="64"/>
			<point x="110" y="46" type="curve" smooth="yes"/>
			<point x="110" y="11"/>
			<point x="137" y="-6"/>
		</contour>
	</outline>
</glyph>
<glyph name="g.isol" format="2">
	<advance width="1021"/>
	<outline>
		<contour>
			<point x="777" y="891" type="curve" smooth="yes"/>
			<point x="769" y="863" type="line"/>
			<point x="713" y="895"/>
			<point x="614" y="935"/>
			<point x="518" y="935" type="curve" smooth="yes"/>
			<point x="290" y="935"/>
			<point x="68" y="604"/>
			<point x="68" y="248" type="curve" smooth="yes"/>
			<point x="68" y="73"/>
			<point x="130" y="-12"/>
			<point x="216" y="-12" type="curve" smooth="yes"/>
			<point x="375" y="-12"/>
			<point x="542" y="199"/>
			<point x="666" y="432" type="curve"/>
			<point x="660" y="437" type="line"/>
			<point x="604" y="222"/>
			<point x="582" y="136"/>
			<point x="544" y="-35" type="curve" smooth="yes"/>
			<point x="492" y="-271"/>
			<point x="382" y="-395"/>
			<point x="236" y="-395" type="curve" smooth="yes"/>
			<point x="162" y="-395"/>
			<point x="102" y="-365"/>
			<point x="49" y="-312" type="curve" smooth="yes"/>
			<point x="32" y="-295"/>
			<point x="20" y="-287"/>
			<point x="8" y="-287" type="curve" smooth="yes"/>
			<point x="-11" y="-287"/>
			<point x="-28" y="-302"/>
			<point x="-28" y="-321" type="curve" smooth="yes"/>
			<point x="-28" y="-331"/>
			<point x="-24" y="-343"/>
			<point x="-14" y="-356" type="curve" smooth="yes"/>
			<point x="28" y="-413"/>
			<point x="129" y="-470"/>
			<point x="234" y="-470" type="curve" smooth="yes"/>
			<point x="410" y="-470"/>
			<point x="557" y="-333"/>
			<point x="616" y="-56" type="curve" smooth="yes"/>
			<point x="652" y="113"/>
			<point x="693" y="272"/>
			<point x="782" y="597" type="curve" smooth="yes"/>
			<point x="853" y="856"/>
			<point x="861" y="889"/>
			<point x="861" y="901" type="curve" smooth="yes"/>
			<point x="861" y="929"/>
			<point x="841" y="935"/>
			<point x="820" y="935" type="curve" smooth="yes"/>
			<point x="800" y="935"/>
			<point x="784" y="919"/>
		</contour>
		<contour>
			<point x="148" y="261" type="curve" smooth="yes"/>
			<point x="148" y="561"/>
			<point x="336" y="860"/>
			<point x="523" y="860" type="curve" smooth="yes"/>
			<point x="590" y="860"/>
			<point x="661" y="843"/>
			<point x="753" y="800" type="curve"/>
			<point x="747" y="778" type="line" smooth="yes"/>
			<point x="632" y="382"/>
			<point x="363" y="63"/>
			<point x="233" y="63" type="curve" smooth="yes"/>
			<point x="182" y="63"/>
			<point x="148" y="113"/>
		</contour>
	</outline>
	<anchor name="bottom" x="239" y="-448"/>
	<anchor name="top" x="556" y="920"/>
</glyph>
<glyph name="g.medi.e" format="2">
	<advance width="788"/>
	<outline>
		<contour>
			<point x="323" y="-470" type="curve" smooth="yes"/>
			<point x="519" y="-470"/>
			<point x="673" y="-351"/>
			<point x="698" y="-123" type="curve" smooth="yes"/>
			<point x="708" y="-32"/>
			<point x="708" y="44"/>
			<point x="708" y="124" type="curve" smooth="yes"/>
			<point x="708" y="228"/>
			<point x="710" y="339"/>
			<point x="753" y="501" type="curve" smooth="yes"/>
			<point x="797" y="668"/>
			<point x="825" y="769"/>
			<point x="844" y="831" type="curve" smooth="yes"/>
			<point x="852" y="857"/>
			<point x="859" y="896"/>
			<point x="859" y="901" type="curve" smooth="yes"/>
			<point x="859" y="924"/>
			<point x="845" y="935"/>
			<point x="818" y="935" type="curve" smooth="yes"/>
			<point x="798" y="935"/>
			<point x="782" y="919"/>
			<point x="775" y="891" type="curve" smooth="yes"/>
			<point x="766" y="857"/>
			<point x="757" y="821"/>
			<point x="745" y="778" type="curve" smooth="yes"/>
			<point x="647" y="442"/>
			<point x="381" y="93"/>
			<point x="231" y="93" type="curve" smooth="yes"/>
			<point x="174" y="93"/>
			<point x="146" y="158"/>
			<point x="146" y="291" type="curve" smooth="yes"/>
			<point x="146" y="575"/>
			<point x="334" y="860"/>
			<point x="521" y="860" type="curve" smooth="yes"/>
			<point x="563" y="860"/>
			<point x="607" y="851"/>
			<point x="663" y="830" type="curve" smooth="yes"/>
			<point x="680" y="824"/>
			<point x="692" y="820"/>
			<point x="699" y="820" type="curve" smooth="yes"/>
			<point x="716" y="820"/>
			<point x="727" y="833"/>
			<point x="727" y="853" type="curve" smooth="yes"/>
			<point x="727" y="891"/>
			<point x="613" y="935"/>
			<point x="516" y="935" type="curve" smooth="yes"/>
			<point x="285" y="935"/>
			<point x="66" y="615"/>
			<point x="66" y="278" type="curve" smooth="yes"/>
			<point x="66" y="115"/>
			<point x="121" y="18"/>
			<point x="214" y="18" type="curve" smooth="yes"/>
			<point x="350" y="18"/>
			<point x="515" y="171"/>
			<point x="666" y="436" type="curve"/>
			<point x="662" y="439" type="line"/>
			<point x="643" y="331"/>
			<point x="635" y="262"/>
			<point x="635" y="129" type="curve" smooth="yes"/>
			<point x="635" y="93"/>
			<point x="633" y="-35"/>
			<point x="623" y="-116" type="curve" smooth="yes"/>
			<point x="599" y="-310"/>
			<point x="492" y="-395"/>
			<point x="335" y="-395" type="curve" smooth="yes"/>
			<point x="253" y="-395"/>
			<point x="201" y="-362"/>
			<point x="201" y="-310" type="curve" smooth="yes"/>
			<point x="201" y="-223"/>
			<point x="342" y="-137"/>
			<point x="644" y="-40" type="curve"/>
			<point x="651" y="39" type="line"/>
			<point x="273" y="-90"/>
			<point x="126" y="-190"/>
			<point x="126" y="-319" type="curve" smooth="yes"/>
			<point x="126" y="-409"/>
			<point x="206" y="-470"/>
		</contour>
	</outline>
	<anchor name="bottom" x="323" y="-470"/>
	<anchor name="top" x="557" y="920"/>
</glyph>
<glyph name="h.medi" format="2">
	<advance width="804"/>
	<outline>
		<contour>
			<point x="312" y="1136" type="curve" smooth="yes"/>
			<point x="298" y="1077"/>
			<point x="278" y="985"/>
			<point x="246" y="830" type="curve"/>
			<point x="53" y="83" type="line" smooth="yes"/>
			<point x="43" y="44"/>
			<point x="41" y="34"/>
			<point x="41" y="25" type="curve" smooth="yes"/>
			<point x="41" y="0"/>
			<point x="61" y="-12"/>
			<point x="80" y="-12" type="curve" smooth="yes"/>
			<point x="101" y="-12"/>
			<point x="121" y="1"/>
			<point x="138" y="73" type="curve" smooth="yes"/>
			<point x="167" y="194"/>
			<point x="192" y="264"/>
			<point x="253" y="390" type="curve" smooth="yes"/>
			<point x="382" y="657"/>
			<point x="602" y="860"/>
			<point x="722" y="860" type="curve" smooth="yes"/>
			<point x="771" y="860"/>
			<point x="797" y="829"/>
			<point x="797" y="770" type="curve" smooth="yes"/>
			<point x="797" y="682"/>
			<point x="749" y="556"/>
			<point x="701" y="431" type="curve" smooth="yes"/>
			<point x="644" y="282"/>
			<point x="615" y="185"/>
			<point x="615" y="111" type="curve" smooth="yes"/>
			<point x="615" y="25"/>
			<point x="658" y="-12"/>
			<point x="732" y="-12" type="curve" smooth="yes"/>
			<point x="765" y="-12"/>
			<point x="788" y="6"/>
			<point x="788" y="34" type="curve" smooth="yes"/>
			<point x="788" y="50"/>
			<point x="780" y="63"/>
			<point x="751" y="63" type="curve" smooth="yes"/>
			<point x="714" y="63"/>
			<point x="696" y="78"/>
			<point x="696" y="122" type="curve" smooth="yes"/>
			<point x="696" y="184"/>
			<point x="719" y="270"/>
			<point x="774" y="409" type="curve" smooth="yes"/>
			<point x="826" y="541"/>
			<point x="879" y="680"/>
			<point x="879" y="794" type="curve" smooth="yes"/>
			<point x="879" y="897"/>
			<point x="821" y="935"/>
			<point x="748" y="935" type="curve" smooth="yes"/>
			<point x="584" y="935"/>
			<point x="379" y="766"/>
			<point x="201" y="419" type="curve"/>
			<point x="210" y="416" type="line"/>
			<point x="309" y="815" type="line"/>
			<point x="515" y="1089"/>
			<point x="584" y="1238"/>
			<point x="584" y="1326" type="curve" smooth="yes"/>
			<point x="584" y="1395"/>
			<point x="555" y="1425"/>
			<point x="510" y="1425" type="curve" smooth="yes"/>
			<point x="438" y="1425"/>
			<point x="365" y="1357"/>
		</contour>
		<contour>
			<point x="316" y="903" type="curve"/>
			<point x="324" y="904" type="line"/>
			<point x="343" y="990"/>
			<point x="359" y="1061"/>
			<point x="378" y="1128" type="curve" smooth="yes"/>
			<point x="429" y="1308"/>
			<point x="462" y="1350"/>
			<point x="487" y="1350" type="curve" smooth="yes"/>
			<point x="503" y="1350"/>
			<point x="509" y="1338"/>
			<point x="509" y="1309" type="curve" smooth="yes"/>
			<point x="509" y="1246"/>
			<point x="453" y="1112"/>
		</contour>
	</outline>
	<anchor name="bottom" x="402" y="0"/>
	<anchor name="center" x="381" y="1205"/>
	<anchor name="top" x="505" y="1400"/>
</glyph>
<glyph name="ij.e" format="2">
	<advance width="834"/>
	<outline>
		<contour>
			<point x="694" y="-40" type="curve"/>
			<point x="701" y="39" type="line"/>
			<point x="275" y="-106"/>
			<point x="176" y="-206"/>
			<point x="176" y="-319" type="curve" smooth="yes"/>
			<point x="176" y="-410"/>
			<point x="257" y="-470"/>
			<point x="373" y="-470" type="curve" smooth="yes"/>
			<point x="569" y="-470"/>
			<point x="723" y="-351"/>
			<point x="748" y="-123" type="curve" smooth="yes"/>
			<point x="756" y="-53"/>
			<point x="756" y="36"/>
			<point x="756" y="143" type="curve" smooth="yes"/>
			<point x="756" y="253"/>
			<point x="769" y="382"/>
			<point x="821" y="568" type="curve" smooth="yes"/>
			<point x="901" y="852"/>
			<point x="910" y="884"/>
			<point x="910" y="902" type="curve" smooth="yes"/>
			<point x="910" y="930"/>
			<point x="890" y="935"/>
			<point x="869" y="935" type="curve" smooth="yes"/>
			<point x="849" y="935"/>
			<point x="833" y="920"/>
			<point x="826" y="892" type="curve" smooth="yes"/>
			<point x="809" y="828"/>
			<point x="793" y="763"/>
			<point x="764" y="652" type="curve" smooth="yes"/>
			<point x="692" y="377"/>
			<point x="430" y="83"/>
			<point x="267" y="83" type="curve" smooth="yes"/>
			<point x="202" y="83"/>
			<point x="167" y="115"/>
			<point x="167" y="201" type="curve" smooth="yes"/>
			<point x="167" y="273"/>
			<point x="182" y="339"/>
			<point x="245" y="534" type="curve" smooth="yes"/>
			<point x="321" y="769"/>
			<point x="348" y="872"/>
			<point x="348" y="902" type="curve" smooth="yes"/>
			<point x="348" y="925"/>
			<point x="337" y="935"/>
			<point x="317" y="935" type="curve" smooth="yes"/>
			<point x="296" y="935"/>
			<point x="279" y="925"/>
			<point x="269" y="878" type="curve" smooth="yes"/>
			<point x="261" y="841"/>
			<point x="243" y="760"/>
			<point x="181" y="563" type="curve" smooth="yes"/>
			<point x="110" y="338"/>
			<point x="87" y="258"/>
			<point x="87" y="182" type="curve" smooth="yes"/>
			<point x="87" y="67"/>
			<point x="150" y="8"/>
			<point x="249" y="8" type="curve" smooth="yes"/>
			<point x="366" y="8"/>
			<point x="541" y="116"/>
			<point x="712" y="385" type="curve"/>
			<point x="703" y="393" type="line"/>
			<point x="688" y="305"/>
			<point x="682" y="215"/>
			<point x="682" y="131" type="curve" smooth="yes"/>
			<point x="682" y="39"/>
			<point x="680" y="-46"/>
			<point x="673" y="-116" type="curve" smooth="yes"/>
			<point x="654" y="-312"/>
			<point x="542" y="-395"/>
			<point x="385" y="-395" type="curve" smooth="yes"/>
			<point x="298" y="-395"/>
			<point x="251" y="-359"/>
			<point x="251" y="-310" type="curve" smooth="yes"/>
			<point x="251" y="-223"/>
			<point x="391" y="-137"/>
		</contour>
		<contour>
			<point x="377" y="1154" type="curve" smooth="yes"/>
			<point x="423" y="1154"/>
			<point x="465" y="1192"/>
			<point x="465" y="1243" type="curve" smooth="yes"/>
			<point x="465" y="1282"/>
			<point x="441" y="1307"/>
			<point x="401" y="1307" type="curve" smooth="yes"/>
			<point x="355" y="1307"/>
			<point x="315" y="1273"/>
			<point x="315" y="1221" type="curve" smooth="yes"/>
			<point x="315" y="1183"/>
			<point x="337" y="1154"/>
		</contour>
		<contour>
			<point x="929" y="1154" type="curve" smooth="yes"/>
			<point x="975" y="1154"/>
			<point x="1017" y="1192"/>
			<point x="1017" y="1243" type="curve" smooth="yes"/>
			<point x="1017" y="1282"/>
			<point x="993" y="1307"/>
			<point x="953" y="1307" type="curve" smooth="yes"/>
			<point x="907" y="1307"/>
			<point x="867" y="1273"/>
			<point x="867" y="1221" type="curve" smooth="yes"/>
			<point x="867" y="1183"/>
			<point x="889" y="1154"/>
		</contour>
	</outline>
	<anchor name="top" x="400" y="1307"/>
</glyph>
<glyph name="instroke.ascender" format="2">
	<advance width="113"/>
	<outline>
		<contour>
			<point x="144" y="443" type="curve" smooth="yes"/>
			<point x="251" y="557"/>
			<point x="323" y="644"/>
			<point x="405" y="767" type="curve" smooth="yes"/>
			<point x="421" y="790"/>
			<point x="425" y="803"/>
			<point x="425" y="814" type="curve" smooth="yes"/>
			<point x="425" y="829"/>
			<point x="413" y="837"/>
			<point x="399" y="837" type="curve" smooth="yes"/>
			<point x="389" y="837"/>
			<point x="382" y="835"/>
			<point x="369" y="815" type="curve" smooth="yes"/>
			<point x="296" y="704"/>
			<point x="197" y="592"/>
			<point x="82" y="477" type="curve" smooth="yes"/>
			<point x="64" y="459"/>
			<point x="59" y="448"/>
			<point x="59" y="436" type="curve" smooth="yes"/>
			<point x="59" y="421"/>
			<point x="75" y="407"/>
			<point x="92" y="407" type="curve" smooth="yes"/>
			<point x="106" y="407"/>
			<point x="120" y="417"/>
		</contour>
	</outline>
	<guideline x="534" y="541" angle="224.0954"/>
</glyph>
<glyph name="jdotless.e" format="2">
	<advance width="299"/>
	<outline>
		<contour>
			<point x="-303" y="-319" type="curve" smooth="yes"/>
			<point x="-303" y="-410"/>
			<point x="-236" y="-470"/>
			<point x="-136" y="-470" type="curve" smooth="yes"/>
			<point x="34" y="-470"/>
			<point x="194" y="-310"/>
			<point x="226" y="26" type="curve" smooth="yes"/>
			<point x="260" y="383"/>
			<point x="279" y="504"/>
			<point x="338" y="849" type="curve" smooth="yes"/>
			<point x="342" y="872"/>
			<point x="346" y="891"/>
			<point x="346" y="910" type="curve" smooth="yes"/>
			<point x="346" y="927"/>
			<point x="337" y="935"/>
			<point x="316" y="935" type="curve" smooth="yes"/>
			<point x="292" y="935"/>
			<point x="278" y="925"/>
			<point x="267" y="856" type="curve" smooth="yes"/>
			<point x="209" y="508"/>
			<point x="190" y="375"/>
			<point x="152" y="-10" type="curve" smooth="yes"/>
			<point x="129" y="-240"/>
			<point x="11" y="-395"/>
			<point x="-124" y="-395" type="curve" smooth="yes"/>
			<point x="-195" y="-395"/>
			<point x="-228" y="-359"/>
			<point x="-228" y="-310" type="curve" smooth="yes"/>
			<point x="-228" y="-214"/>
			<point x="-128" y="-117"/>
			<point x="165" y="-28" type="curve"/>
			<point x="172" y="49" type="line"/>
			<point x="-193" y="-69"/>
			<point x="-303" y="-196"/>
		</contour>
	</outline>
	<anchor name="bottom" x="-300" y="-690"/>
	<anchor name="top" x="315" y="920"/>
</glyph>
<glyph name="jdotless.fina" format="2">
	<advance width="555"/>
	<outline>
		<contour>
			<point x="274" y="894" type="curve" smooth="yes"/>
			<point x="50" y="-48" type="line" smooth="yes"/>
			<point x="-11" y="-306"/>
			<point x="-94" y="-396"/>
			<point x="-191" y="-396" type="curve" smooth="yes"/>
			<point x="-234" y="-396"/>
			<point x="-272" y="-380"/>
			<point x="-302" y="-355" type="curve" smooth="yes"/>
			<point x="-321" y="-339"/>
			<point x="-332" y="-331"/>
			<point x="-344" y="-331" type="curve" smooth="yes"/>
			<point x="-357" y="-331"/>
			<point x="-372" y="-344"/>
			<point x="-372" y="-361" type="curve" smooth="yes"/>
			<point x="-372" y="-376"/>
			<point x="-363" y="-392"/>
			<point x="-347" y="-409" type="curve" smooth="yes"/>
			<point x="-314" y="-443"/>
			<point x="-255" y="-470"/>
			<point x="-185" y="-470" type="curve" smooth="yes"/>
			<point x="-57" y="-470"/>
			<point x="48" y="-380"/>
			<point x="119" y="-80" type="curve" smooth="yes"/>
			<point x="335" y="831" type="line" smooth="yes"/>
			<point x="341" y="857"/>
			<point x="348" y="889"/>
			<point x="348" y="901" type="curve" smooth="yes"/>
			<point x="348" y="929"/>
			<point x="335" y="935"/>
			<point x="314" y="935" type="curve" smooth="yes"/>
			<point x="294" y="935"/>
			<point x="281" y="922"/>
		</contour>
	</outline>
	<anchor name="bottom" x="-213" y="-469"/>
	<anchor name="top" x="318" y="920"/>
</glyph>
<glyph name="joint.Eh" format="2">
	<advance width="570"/>
	<outline>
		<contour>
			<point x="-77" y="-12" type="curve" smooth="yes"/>
			<point x="231" y="-12"/>
			<point x="557" y="299"/>
			<point x="866" y="787" type="curve" smooth="yes"/>
			<point x="878" y="806"/>
			<point x="883" y="815"/>
			<point x="883" y="824" type="curve" smooth="yes"/>
			<point x="883" y="840"/>
			<point x="869" y="849"/>
			<point x="857" y="849" type="curve" smooth="yes"/>
			<point x="844" y="849"/>
			<point x="838" y="844"/>
			<point x="825" y="824" type="curve" smooth="yes"/>
			<point x="519" y="353"/>
			<point x="212" y="63"/>
			<point x="-56" y="63" type="curve" smooth="yes"/>
			<point x="-81" y="63"/>
			<point x="-100" y="44"/>
			<point x="-100" y="18" type="curve" smooth="yes"/>
			<point x="-100" y="0"/>
			<point x="-89" y="-12"/>
		</contour>
	</outline>
</glyph>
<glyph name="joint.En" format="2">
	<advance width="534"/>
	<outline>
		<contour>
			<point x="-77" y="-12" type="curve" smooth="yes"/>
			<point x="313" y="-12"/>
			<point x="628" y="376"/>
			<point x="858" y="856" type="curve" smooth="yes"/>
			<point x="864" y="867"/>
			<point x="869" y="880"/>
			<point x="869" y="890" type="curve" smooth="yes"/>
			<point x="869" y="912"/>
			<point x="857" y="922"/>
			<point x="841" y="922" type="curve" smooth="yes"/>
			<point x="827" y="922"/>
			<point x="817" y="921"/>
			<point x="809" y="904" type="curve" smooth="yes"/>
			<point x="575" y="416"/>
			<point x="294" y="63"/>
			<point x="-56" y="63" type="curve" smooth="yes"/>
			<point x="-81" y="63"/>
			<point x="-100" y="44"/>
			<point x="-100" y="18" type="curve" smooth="yes"/>
			<point x="-100" y="0"/>
			<point x="-89" y="-12"/>
		</contour>
	</outline>
</glyph>
<glyph name="joint.Gh" format="2">
	<advance width="394"/>
	<outline>
		<contour>
			<point x="-171" y="-45" type="curve" smooth="yes"/>
			<point x="124" y="162"/>
			<point x="440" y="457"/>
			<point x="691" y="778" type="curve" smooth="yes"/>
			<point x="708" y="799"/>
			<point x="708" y="813"/>
			<point x="708" y="823" type="curve" smooth="yes"/>
			<point x="708" y="838"/>
			<point x="699" y="845"/>
			<point x="689" y="845" type="curve" smooth="yes"/>
			<point x="669" y="845"/>
			<point x="663" y="838"/>
			<point x="642" y="812" type="curve" smooth="yes"/>
			<point x="400" y="506"/>
			<point x="116" y="238"/>
			<point x="-185" y="22" type="curve" smooth="yes"/>
			<point x="-206" y="7"/>
			<point x="-231" y="-6"/>
			<point x="-231" y="-32" type="curve" smooth="yes"/>
			<point x="-231" y="-52"/>
			<point x="-228" y="-72"/>
			<point x="-221" y="-71" type="curve" smooth="yes"/>
			<point x="-209" y="-71"/>
			<point x="-193" y="-60"/>
		</contour>
	</outline>
</glyph>
<glyph name="joint.Go" format="2">
	<advance width="343"/>
	<outline>
		<contour>
			<point x="-188" y="-44" type="curve" smooth="yes"/>
			<point x="137" y="220"/>
			<point x="420" y="492"/>
			<point x="612" y="729" type="curve" smooth="yes"/>
			<point x="637" y="759"/>
			<point x="642" y="773"/>
			<point x="642" y="780" type="curve" smooth="yes"/>
			<point x="642" y="790"/>
			<point x="632" y="801"/>
			<point x="619" y="801" type="curve" smooth="yes"/>
			<point x="607" y="801"/>
			<point x="590" y="787"/>
			<point x="572" y="766" type="curve" smooth="yes"/>
			<point x="382" y="546"/>
			<point x="89" y="260"/>
			<point x="-212" y="15" type="curve" smooth="yes"/>
			<point x="-229" y="1"/>
			<point x="-241" y="-6"/>
			<point x="-241" y="-23" type="curve" smooth="yes"/>
			<point x="-241" y="-40"/>
			<point x="-228" y="-54"/>
			<point x="-213" y="-54" type="curve" smooth="yes"/>
			<point x="-206" y="-54"/>
			<point x="-193" y="-48"/>
		</contour>
	</outline>
	<note>
joint.ga
</note>
</glyph>
<glyph name="joint.bh" format="2">
	<advance width="43"/>
	<outline>
		<contour>
			<point x="-478" y="841" type="curve" smooth="yes"/>
			<point x="-478" y="732"/>
			<point x="-262" y="591"/>
			<point x="6" y="591" type="curve" smooth="yes"/>
			<point x="147" y="591"/>
			<point x="231" y="644"/>
			<point x="301" y="733" type="curve" smooth="yes"/>
			<point x="324" y="763"/>
			<point x="330" y="776"/>
			<point x="330" y="785" type="curve" smooth="yes"/>
			<point x="330" y="798"/>
			<point x="317" y="807"/>
			<point x="303" y="807" type="curve" smooth="yes"/>
			<point x="296" y="807"/>
			<point x="291" y="803"/>
			<point x="282" y="792" type="curve" smooth="yes"/>
			<point x="206" y="695"/>
			<point x="138" y="656"/>
			<point x="-5" y="656" type="curve" smooth="yes"/>
			<point x="-189" y="656"/>
			<point x="-406" y="757"/>
			<point x="-406" y="844" type="curve" smooth="yes"/>
			<point x="-406" y="862"/>
			<point x="-393" y="870"/>
			<point x="-372" y="870" type="curve" smooth="yes"/>
			<point x="-357" y="870"/>
			<point x="-347" y="889"/>
			<point x="-347" y="904" type="curve" smooth="yes"/>
			<point x="-347" y="919"/>
			<point x="-362" y="935"/>
			<point x="-375" y="935" type="curve" smooth="yes"/>
			<point x="-434" y="935"/>
			<point x="-478" y="897"/>
		</contour>
	</outline>
</glyph>
<glyph name="joint.eh" format="2">
	<advance width="530"/>
	<outline>
		<contour>
			<point x="-77" y="-12" type="curve" smooth="yes"/>
			<point x="221" y="-12"/>
			<point x="517" y="299"/>
			<point x="826" y="787" type="curve" smooth="yes"/>
			<point x="838" y="806"/>
			<point x="843" y="815"/>
			<point x="843" y="824" type="curve" smooth="yes"/>
			<point x="843" y="840"/>
			<point x="829" y="849"/>
			<point x="817" y="849" type="curve" smooth="yes"/>
			<point x="804" y="849"/>
			<point x="798" y="844"/>
			<point x="785" y="824" type="curve" smooth="yes"/>
			<point x="479" y="353"/>
			<point x="203" y="63"/>
			<point x="-56" y="63" type="curve" smooth="yes"/>
			<point x="-81" y="63"/>
			<point x="-100" y="44"/>
			<point x="-100" y="18" type="curve" smooth="yes"/>
			<point x="-100" y="0"/>
			<point x="-89" y="-12"/>
		</contour>
	</outline>
</glyph>
<glyph name="joint.fn" format="2">
	<advance width="696"/>
	<outline>
		<contour>
			<point x="109" y="204" type="curve" smooth="yes"/>
			<point x="457" y="292"/>
			<point x="812" y="523"/>
			<point x="1015" y="859" type="curve" smooth="yes"/>
			<point x="1025" y="875"/>
			<point x="1033" y="897"/>
			<point x="1033" y="913" type="curve" smooth="yes"/>
			<point x="1033" y="928"/>
			<point x="1024" y="935"/>
			<point x="1014" y="935" type="curve" smooth="yes"/>
			<point x="993" y="935"/>
			<point x="981" y="928"/>
			<point x="964" y="897" type="curve" smooth="yes"/>
			<point x="750" y="517"/>
			<point x="377" y="353"/>
			<point x="107" y="277" type="curve" smooth="yes"/>
			<point x="72" y="267"/>
			<point x="44" y="260"/>
			<point x="44" y="233" type="curve" smooth="yes"/>
			<point x="44" y="214"/>
			<point x="55" y="202"/>
			<point x="81" y="202" type="curve" smooth="yes"/>
			<point x="86" y="202"/>
			<point x="93" y="200"/>
		</contour>
	</outline>
</glyph>
<glyph name="joint.fs" format="2">
	<advance width="577"/>
	<outline>
		<contour>
			<point x="123" y="202" type="curve" smooth="yes"/>
			<point x="309" y="245"/>
			<point x="568" y="462"/>
			<point x="758" y="663" type="curve" smooth="yes"/>
			<point x="844" y="754"/>
			<point x="917" y="831"/>
			<point x="969" y="863" type="curve" smooth="yes"/>
			<point x="1021" y="895"/>
			<point x="1040" y="900"/>
			<point x="1040" y="914" type="curve" smooth="yes"/>
			<point x="1040" y="922"/>
			<point x="1034" y="935"/>
			<point x="1019" y="935" type="curve" smooth="yes"/>
			<point x="988" y="935"/>
			<point x="953" y="923"/>
			<point x="915" y="897" type="curve" smooth="yes"/>
			<point x="871" y="868"/>
			<point x="800" y="792"/>
			<point x="717" y="704" type="curve" smooth="yes"/>
			<point x="537" y="514"/>
			<point x="296" y="315"/>
			<point x="106" y="273" type="curve" smooth="yes"/>
			<point x="81" y="268"/>
			<point x="62" y="254"/>
			<point x="62" y="228" type="curve" smooth="yes"/>
			<point x="62" y="213"/>
			<point x="74" y="200"/>
			<point x="84" y="200" type="curve" smooth="yes"/>
			<point x="95" y="200"/>
			<point x="109" y="199"/>
		</contour>
	</outline>
</glyph>
<glyph name="joint.fschwa" format="2">
	<advance width="577"/>
	<outline>
		<contour>
			<point x="129" y="205" type="curve" smooth="yes"/>
			<point x="263" y="244"/>
			<point x="453" y="396"/>
			<point x="662" y="608" type="curve" smooth="yes"/>
			<point x="846" y="795"/>
			<point x="968" y="857"/>
			<point x="1065" y="857" type="curve" smooth="yes"/>
			<point x="1098" y="857"/>
			<point x="1106" y="884"/>
			<point x="1106" y="906" type="curve" smooth="yes"/>
			<point x="1106" y="917"/>
			<point x="1100" y="935"/>
			<point x="1085" y="935" type="curve" smooth="yes"/>
			<point x="961" y="935"/>
			<point x="839" y="873"/>
			<point x="624" y="656" type="curve" smooth="yes"/>
			<point x="400" y="430"/>
			<point x="237" y="307"/>
			<point x="117" y="275" type="curve" smooth="yes"/>
			<point x="91" y="268"/>
			<point x="77" y="251"/>
			<point x="77" y="221" type="curve" smooth="yes"/>
			<point x="77" y="211"/>
			<point x="85" y="200"/>
			<point x="95" y="200" type="curve" smooth="yes"/>
			<point x="107" y="200"/>
			<point x="118" y="202"/>
		</contour>
	</outline>
</glyph>
<glyph name="joint.ga" format="2">
	<advance width="343"/>
	<outline>
		<contour>
			<point x="-82" y="60" type="curve" smooth="yes"/>
			<point x="213" y="209"/>
			<point x="353" y="336"/>
			<point x="621" y="729" type="curve" smooth="yes"/>
			<point x="640" y="756"/>
			<point x="646" y="763"/>
			<point x="646" y="780" type="curve" smooth="yes"/>
			<point x="646" y="785"/>
			<point x="641" y="794"/>
			<point x="628" y="794" type="curve" smooth="yes"/>
			<point x="607" y="794"/>
			<point x="589" y="785"/>
			<point x="554" y="734" type="curve" smooth="yes"/>
			<point x="325" y="404"/>
			<point x="157" y="249"/>
			<point x="-106" y="122" type="curve" smooth="yes"/>
			<point x="-125" y="113"/>
			<point x="-135" y="98"/>
			<point x="-135" y="81" type="curve" smooth="yes"/>
			<point x="-135" y="64"/>
			<point x="-122" y="50"/>
			<point x="-107" y="50" type="curve" smooth="yes"/>
			<point x="-100" y="50"/>
			<point x="-87" y="57"/>
		</contour>
	</outline>
	<note>
joint.ga
</note>
</glyph>
<glyph name="joint.ge" format="2">
	<advance width="365"/>
	<outline>
		<contour>
			<point x="420" y="263" type="curve" smooth="yes"/>
			<point x="309" y="198"/>
			<point x="-8" y="76"/>
			<point x="-105" y="49" type="curve" smooth="yes"/>
			<point x="-145" y="38"/>
			<point x="-152" y="23"/>
			<point x="-152" y="10" type="curve" smooth="yes"/>
			<point x="-152" y="-9"/>
			<point x="-144" y="-27"/>
			<point x="-130" y="-27" type="curve" smooth="yes"/>
			<point x="-120" y="-27"/>
			<point x="-109" y="-25"/>
			<point x="-88" y="-19" type="curve" smooth="yes"/>
			<point x="27" y="16"/>
			<point x="325" y="138"/>
			<point x="439" y="203" type="curve" smooth="yes"/>
			<point x="467" y="219"/>
			<point x="473" y="241"/>
			<point x="473" y="249" type="curve" smooth="yes"/>
			<point x="473" y="263"/>
			<point x="464" y="275"/>
			<point x="454" y="275" type="curve" smooth="yes"/>
			<point x="445" y="275"/>
			<point x="438" y="273"/>
		</contour>
	</outline>
</glyph>
